<svg width="36" height="36" viewBox="0 0 36 36" fill="none" xmlns="http://www.w3.org/2000/svg">
<rect x="0.307861" y="0.188232" width="35.1984" height="35.1984" rx="8" fill="#9B5D4E"/>
<path d="M11.3075 23.5375C12.6857 23.3328 13.9445 22.6395 14.8541 21.5839C15.7636 20.5283 16.2634 19.1809 16.262 17.7875C16.269 16.0384 16.9035 14.3498 18.0502 13.029C19.1969 11.7082 20.7796 10.8429 22.5104 10.5904L24.9925 10.2358C24.9254 10.1591 24.8679 10.0825 24.7912 10.0058C21.667 6.88164 15.6679 7.82081 11.3745 12.095C7.74246 15.775 6.51579 20.6625 8.20246 23.9783L11.3075 23.5375Z" fill="#FBFAF8"/>
<path d="M17.7569 17.7875C17.7506 19.5363 17.1178 21.2249 15.9732 22.5471C14.8286 23.8693 13.248 24.7375 11.5181 24.9941L9.16064 25.3296L9.30439 25.4925C12.4286 28.6166 18.4277 27.6871 22.7211 23.4129C26.334 19.8096 27.599 14.9125 25.9219 11.6446L22.7211 12.1046C21.3516 12.3035 20.0984 12.9857 19.188 14.028C18.2776 15.0702 17.77 16.4037 17.7569 17.7875Z" fill="#FBFAF8"/>
</svg>
