<svg width="36" height="36" viewBox="0 0 36 36" fill="none" xmlns="http://www.w3.org/2000/svg">
<rect x="0.307861" y="0.188232" width="35.1984" height="35.1984" rx="8" fill="#9B5D4E"/>
<path d="M9.47449 26.875H24.5787C24.9931 26.875 25.3905 26.7104 25.6835 26.4174C25.9765 26.1243 26.1412 25.7269 26.1412 25.3125V9.6875C26.1412 9.2731 25.9765 8.87567 25.6835 8.58265C25.3905 8.28962 24.9931 8.125 24.5787 8.125H14.162" stroke="#FBFAF8" stroke-width="2" stroke-linecap="round" stroke-linejoin="round"/>
<path d="M16.7662 23.75C19.6428 23.75 21.9745 21.4182 21.9745 18.5417H11.5579C11.5579 21.4182 13.8896 23.75 16.7662 23.75Z" stroke="#FBFAF8" stroke-width="2" stroke-linejoin="round"/>
<path d="M13.6411 14.375V15.4167M16.7661 14.375V15.4167M19.8911 14.375V15.4167" stroke="#FBFAF8" stroke-width="2" stroke-linecap="round" stroke-linejoin="round"/>
</svg>
