<svg width="36" height="36" viewBox="0 0 36 36" fill="none" xmlns="http://www.w3.org/2000/svg">
<rect x="0.307861" y="0.188232" width="35.1984" height="35.1984" rx="8" fill="#9B5D4E"/>
<path d="M11.407 8.53745C11.407 8.33853 11.328 8.14777 11.1873 8.00711C11.0467 7.86646 10.8559 7.78745 10.657 7.78745C10.4581 7.78745 10.2673 7.86646 10.1267 8.00711C9.986 8.14777 9.90699 8.33853 9.90699 8.53745C9.90699 9.80745 10.835 10.4544 11.413 10.8574L11.477 10.9014C12.157 11.3774 12.407 11.6064 12.407 12.0374C12.407 12.2364 12.486 12.4271 12.6267 12.5678C12.7673 12.7084 12.9581 12.7874 13.157 12.7874C13.3559 12.7874 13.5467 12.7084 13.6873 12.5678C13.828 12.4271 13.907 12.2364 13.907 12.0374C13.907 10.7674 12.979 10.1204 12.401 9.71745L12.337 9.67344C11.657 9.19744 11.407 8.96745 11.407 8.53745ZM10.728 13.7874C10.245 13.7874 9.78185 13.9793 9.44034 14.3208C9.09884 14.6623 8.90699 15.1255 8.90699 15.6084V19.7874C8.90537 21.6452 9.55038 23.4457 10.7313 24.8798C11.9123 26.3139 13.5555 27.2923 15.3791 27.6471C17.2027 28.0019 19.0929 27.711 20.7254 26.8243C22.3579 25.9376 23.6309 24.5103 24.326 22.7874H25.657C26.5189 22.7874 27.3456 22.445 27.9551 21.8355C28.5646 21.226 28.907 20.3994 28.907 19.5374C28.907 18.6755 28.5646 17.8488 27.9551 17.2393C27.3456 16.6299 26.5189 16.2874 25.657 16.2874H24.907V15.6084C24.907 15.1255 24.7151 14.6623 24.3736 14.3208C24.0321 13.9793 23.5689 13.7874 23.086 13.7874H10.728ZM25.657 21.2874H24.767C24.8605 20.7929 24.9074 20.2907 24.907 19.7874V17.7874H25.657C25.8868 17.7874 26.1144 17.8327 26.3267 17.9207C26.539 18.0086 26.7319 18.1375 26.8944 18.3C27.0569 18.4625 27.1858 18.6554 27.2738 18.8677C27.3617 19.0801 27.407 19.3076 27.407 19.5374C27.407 19.7673 27.3617 19.9948 27.2738 20.2071C27.1858 20.4195 27.0569 20.6124 26.8944 20.7749C26.7319 20.9374 26.539 21.0663 26.3267 21.1542C26.1144 21.2422 25.8868 21.2874 25.657 21.2874ZM14.657 7.78745C14.8559 7.78745 15.0467 7.86646 15.1873 8.00711C15.328 8.14777 15.407 8.33853 15.407 8.53745C15.407 8.96845 15.657 9.19744 16.337 9.67344L16.401 9.71745C16.979 10.1204 17.907 10.7674 17.907 12.0374C17.907 12.2364 17.828 12.4271 17.6873 12.5678C17.5467 12.7084 17.3559 12.7874 17.157 12.7874C16.9581 12.7874 16.7673 12.7084 16.6267 12.5678C16.486 12.4271 16.407 12.2364 16.407 12.0374C16.407 11.6064 16.157 11.3774 15.477 10.9014L15.413 10.8574C14.835 10.4544 13.907 9.80745 13.907 8.53745C13.907 8.33853 13.986 8.14777 14.1267 8.00711C14.2673 7.86646 14.4581 7.78745 14.657 7.78745ZM19.407 8.53745C19.407 8.33853 19.328 8.14777 19.1873 8.00711C19.0467 7.86646 18.8559 7.78745 18.657 7.78745C18.4581 7.78745 18.2673 7.86646 18.1267 8.00711C17.986 8.14777 17.907 8.33853 17.907 8.53745C17.907 9.80745 18.835 10.4544 19.413 10.8574L19.477 10.9014C20.157 11.3774 20.407 11.6064 20.407 12.0374C20.407 12.2364 20.486 12.4271 20.6267 12.5678C20.7673 12.7084 20.9581 12.7874 21.157 12.7874C21.3559 12.7874 21.5467 12.7084 21.6873 12.5678C21.828 12.4271 21.907 12.2364 21.907 12.0374C21.907 10.7674 20.979 10.1204 20.401 9.71745L20.337 9.67344C19.657 9.19744 19.407 8.96845 19.407 8.53745Z" fill="#FBFAF8"/>
</svg>
