<svg width="49" height="71" viewBox="0 0 49 71" fill="none" xmlns="http://www.w3.org/2000/svg">
<path d="M22.6152 30.2751C19.0666 30.2751 15.8465 30.9791 13.4443 32.1703C11.042 33.3613 9.34082 35.1182 9.34082 37.2707C9.34082 37.4966 9.35954 37.7184 9.39584 37.9354L9.39303 38.4518C9.34425 45.7377 10.8213 52.9196 10.7088 59.9602C10.6761 62.0076 11.9651 63.8193 14.0486 65.0221C16.1321 66.225 19.0405 66.9118 22.585 66.9118C26.132 66.9118 28.8549 66.2066 30.7505 64.9756C32.6463 63.7444 33.6868 61.9247 33.6868 59.9739C33.6868 59.6953 33.6915 59.4162 33.6978 59.1363C37.4017 59.0384 40.3173 57.0752 42.2341 54.5165C44.1884 51.9075 45.2248 48.6888 45.2828 45.7603C45.3408 42.8318 44.4054 39.8795 41.8414 38.6768C40.5592 38.0755 39.1525 38.0991 37.5128 38.578C36.9713 38.736 36.4099 38.9515 35.8318 39.2262C35.8379 38.9686 35.8427 38.7111 35.8427 38.4571V37.8665C35.8717 37.6719 35.8867 37.4724 35.8867 37.2706C35.8867 35.1181 34.1854 33.3614 31.7831 32.1703C29.381 30.979 26.1636 30.2751 22.6152 30.2751ZM22.6152 31.9176C25.9436 31.9176 28.951 32.5989 31.0553 33.6425C33.1597 34.6857 34.244 36.0132 34.244 37.2706C34.244 38.528 33.1597 39.8581 31.0553 40.9016C28.951 41.9449 25.9436 42.6237 22.6152 42.6237C19.2868 42.6237 16.2792 41.945 14.1749 40.9015C12.0705 39.8583 10.9833 38.528 10.9833 37.2706C10.9833 36.0132 12.0705 34.6857 14.1749 33.6425C16.2792 32.5989 19.2866 31.9175 22.615 31.9175L22.6152 31.9176ZM16.493 35.348C14.4548 35.9375 13.1613 36.8144 13.1613 37.7926C13.1613 39.5673 17.4151 41.006 22.6618 41.006C27.9085 41.006 32.1595 39.5673 32.1595 37.7925C32.1595 36.8904 31.0591 36.0746 29.2893 35.4909C29.7521 35.8517 30.0117 36.2548 30.0117 36.683C30.0117 38.1934 26.7804 39.4185 22.7936 39.4185C18.8069 39.4185 15.5756 38.1934 15.5756 36.6829C15.5756 36.1979 15.9085 35.743 16.493 35.348ZM39.6357 41.3493C40.0171 41.3473 40.3234 41.419 40.5612 41.5306C41.5127 41.9768 42.1789 43.5354 42.1351 45.7603C42.0911 47.9851 41.2813 50.6391 39.7758 52.6487C38.3435 54.5603 36.4266 55.8437 33.876 55.9802C34.2585 51.5995 35.1267 47.1481 35.5705 42.9861C37.392 41.7695 38.7253 41.3543 39.6355 41.3492L39.6357 41.3493Z" fill="#9B5D4E"/>
<path d="M3.45965 21.3579C7.77538 22.6957 9.3183 24.3152 10.6937 28.5919M10.0738 9.58608C18.6603 14.9802 18.6602 21.3579 18.6602 25.8782M24.6046 6.94423C33.1911 12.3383 25.4853 20.5872 25.4853 25.1075" stroke="#9B5D4E"/>
</svg>
