<svg width="49" height="49" viewBox="0 0 49 49" fill="none" xmlns="http://www.w3.org/2000/svg">
<g clip-path="url(#clip0_326_390)">
<path d="M19.0756 14.7306C19.0756 14.8322 19.1159 14.9295 19.1877 15.0013C19.2595 15.0731 19.3569 15.1135 19.4584 15.1135C19.5599 15.1135 19.6573 15.0731 19.7291 15.0013C19.8009 14.9295 19.8412 14.8322 19.8412 14.7306C19.8644 12.2626 19.106 9.85061 17.6745 7.84002C17.6166 7.75763 17.5285 7.70138 17.4294 7.68347C17.3303 7.66556 17.2281 7.68743 17.145 7.74434C17.0619 7.80125 17.0046 7.88861 16.9855 7.98749C16.9664 8.08638 16.987 8.18882 17.0429 8.2726C18.3874 10.1556 19.0992 12.417 19.0756 14.7306Z" fill="#9B5D4E"/>
<path d="M4.41761 11.9553C4.39318 11.8568 4.33067 11.7721 4.24383 11.7197C4.15698 11.6673 4.05289 11.6515 3.95441 11.6758C3.85597 11.7002 3.77125 11.7627 3.71885 11.8496C3.66646 11.9364 3.65067 12.0405 3.67496 12.139C4.0428 13.5982 4.67042 14.9792 5.52777 16.216C5.56331 16.2672 5.61084 16.309 5.66622 16.3377C5.72159 16.3664 5.78314 16.3811 5.8455 16.3806C5.92185 16.3807 5.99651 16.3581 6.05988 16.3155C6.10188 16.2871 6.13782 16.2506 6.1656 16.2082C6.19339 16.1657 6.21246 16.1182 6.22172 16.0683C6.23098 16.0185 6.23024 15.9673 6.21955 15.9177C6.20885 15.8681 6.18841 15.8212 6.15941 15.7796C5.35369 14.6198 4.76366 13.3243 4.41761 11.9553Z" fill="#9B5D4E"/>
<path d="M3.73239 17.4486C5.64645 20.247 8.27255 22.3295 11.1015 23.3095C12.1811 23.6929 13.317 23.8935 14.4626 23.9028C16.0227 23.9218 17.5511 23.4622 18.842 22.586C20.9628 21.1313 22.1878 18.6583 22.2873 15.6188C22.3868 12.5792 21.3877 9.43636 19.466 6.638C17.5443 3.83964 14.9297 1.76097 12.1007 0.784794C9.27169 -0.191378 6.48098 0.0459655 4.3602 1.50065C0.0229365 4.47893 -0.260345 11.6337 3.73239 17.4486ZM11.3504 22.586C8.67067 21.6596 6.19387 19.6804 4.36403 17.016C0.765593 11.7524 0.796218 5.3594 4.37169 2.45386C4.7545 3.85878 5.84551 7.57972 7.95098 10.7226C9.12239 12.4682 10.8068 14.0033 12.1619 15.236C12.6328 15.6953 13.0998 16.0782 13.4482 16.461C15.2704 18.2946 17.0198 20.7217 17.7357 22.3792C15.925 23.3095 13.6893 23.3937 11.3504 22.586ZM11.8672 1.50831C14.5468 2.43089 17.0236 4.41003 18.8535 7.0744C20.6833 9.73878 21.6404 12.7668 21.5332 15.5996C21.4413 18.2793 20.423 20.4422 18.6621 21.7782C18.6621 20.4116 18.2793 17.4142 15.3086 13.3296C15.279 13.2883 15.2415 13.2534 15.1983 13.2266C15.1551 13.1999 15.1071 13.1819 15.057 13.1737C15.0069 13.1656 14.9556 13.1673 14.9062 13.179C14.8568 13.1906 14.8101 13.2119 14.7689 13.2415C14.7277 13.2712 14.6927 13.3087 14.6659 13.3518C14.6392 13.395 14.6212 13.443 14.6131 13.4932C14.6049 13.5433 14.6067 13.5945 14.6183 13.644C14.6299 13.6934 14.6512 13.7401 14.6808 13.7813C16.9432 16.9127 17.6323 19.3703 17.8199 20.8557C16.7492 19.0567 15.4637 17.3945 13.9918 15.9059C13.6281 15.5422 13.1687 15.1403 12.6787 14.6732C11.3542 13.4712 9.70809 11.9706 8.58645 10.3015C7.33264 8.34451 6.34159 6.23113 5.6388 4.01573C6.89022 5.646 8.30082 7.14765 9.84973 8.49847C11.0714 9.59445 12.2221 10.7669 13.295 12.0089C13.3275 12.0473 13.3671 12.0791 13.4118 12.1022C13.4565 12.1253 13.5053 12.1394 13.5554 12.1437C13.6055 12.148 13.656 12.1423 13.704 12.1271C13.7519 12.1118 13.7964 12.0872 13.8348 12.0548C13.873 12.0221 13.9044 11.9822 13.9272 11.9374C13.95 11.8926 13.9638 11.8438 13.9677 11.7936C13.9716 11.7435 13.9656 11.6931 13.95 11.6453C13.9344 11.5975 13.9096 11.5532 13.8769 11.515C12.7805 10.248 11.6041 9.05249 10.355 7.93573C8.59411 6.30112 6.92887 4.75456 5.13348 1.91409C6.22582 1.2682 7.47449 0.934515 8.74341 0.949403C9.80867 0.958839 10.8647 1.14779 11.8672 1.50831Z" fill="#9B5D4E"/>
<path d="M36.237 11.404C36.2924 11.4043 36.3473 11.3925 36.3978 11.3695C36.6772 11.2393 36.9643 11.1245 37.2476 11.025C37.2983 11.0115 37.3457 10.9878 37.3869 10.9553C37.4281 10.9228 37.4621 10.8822 37.4869 10.836C37.5117 10.7898 37.5268 10.739 37.5311 10.6867C37.5355 10.6344 37.529 10.5818 37.5122 10.5321C37.4954 10.4824 37.4685 10.4367 37.4333 10.3979C37.3981 10.359 37.3553 10.3278 37.3075 10.3062C37.2597 10.2845 37.208 10.2729 37.1555 10.2721C37.1031 10.2713 37.051 10.2813 37.0026 10.3015C36.6873 10.4127 36.3781 10.5405 36.0762 10.6843C36.0304 10.7053 35.9892 10.7352 35.9549 10.7722C35.9207 10.8092 35.8941 10.8526 35.8766 10.8999C35.8592 10.9472 35.8513 10.9975 35.8533 11.0478C35.8554 11.0982 35.8674 11.1477 35.8886 11.1934C35.921 11.2577 35.9709 11.3116 36.0325 11.3488C36.0941 11.3861 36.165 11.4052 36.237 11.404Z" fill="#9B5D4E"/>
<path d="M31.6471 15.3623C31.7088 15.3622 31.7696 15.3472 31.8242 15.3185C31.8789 15.2898 31.9258 15.2484 31.961 15.1977C32.6808 14.1527 33.5635 13.2298 34.5756 12.4644C34.6158 12.4342 34.6497 12.3964 34.6753 12.3532C34.7009 12.3099 34.7178 12.262 34.7249 12.2123C34.732 12.1625 34.7292 12.1118 34.7167 12.0631C34.7043 12.0144 34.6823 11.9687 34.6522 11.9285C34.622 11.8882 34.5842 11.8544 34.5409 11.8287C34.4977 11.8031 34.4498 11.7863 34.4 11.7792C34.3503 11.7721 34.2996 11.7748 34.2509 11.7873C34.2022 11.7998 34.1564 11.8217 34.1162 11.8519C33.0385 12.6662 32.0988 13.6485 31.3332 14.7613C31.2934 14.8186 31.27 14.8858 31.2656 14.9555C31.2613 15.0252 31.2761 15.0948 31.3084 15.1567C31.3407 15.2186 31.3894 15.2705 31.4491 15.3067C31.5088 15.343 31.5772 15.3622 31.6471 15.3623Z" fill="#9B5D4E"/>
<path d="M30.0775 29.4766C31.3783 30.3595 32.9194 30.8206 34.4914 30.7973C38.2238 30.7973 42.4003 28.4698 45.2101 24.4158C49.245 18.6238 49 11.4844 44.6818 8.46398C40.3637 5.44359 33.5803 7.72515 29.5416 13.5171C25.5029 19.3091 25.7556 26.4638 30.0775 29.4766ZM44.59 23.987C40.9609 29.2239 34.9507 31.4366 30.9618 29.1205C32.1485 28.2822 35.2378 25.9279 37.4314 22.8501C38.6525 21.1351 39.4909 19.0219 40.1646 17.3146C40.4058 16.7059 40.6317 16.1317 40.8384 15.68C41.9103 13.3295 43.5602 10.8374 44.8579 9.58179C48.2343 12.583 48.1693 18.8305 44.59 23.9794V23.987ZM31.9571 27.3941C33.0407 25.6507 33.9486 23.8042 34.6675 21.8816C35.5108 19.6355 36.5941 17.487 37.8984 15.4733C40.0383 12.25 42.1093 10.7187 43.4147 10.0335C42.1139 11.6721 41.015 13.4612 40.1417 15.3623C39.9273 15.8331 39.6976 16.415 39.4526 17.0313C38.7942 18.6966 37.975 20.7676 36.8074 22.3907C35.4229 24.2617 33.7972 25.9415 31.9725 27.3864L31.9571 27.3941ZM30.1694 13.9535C33.875 8.62476 40.0039 6.42742 43.9889 8.92718C42.7065 9.4057 40.046 10.8412 37.2706 15.0522C35.9384 17.1045 34.8332 19.2956 33.9746 21.5868C33.0711 23.8109 32.2098 25.9164 30.1924 28.5999C26.5365 25.7059 26.4906 19.2478 30.1694 13.9535Z" fill="#9B5D4E"/>
<path d="M15.9633 48.0315C17.5736 48.538 19.2517 48.7962 20.9398 48.7971C22.4531 48.805 23.9574 48.5632 25.3919 48.0813C28.263 47.0898 30.269 45.191 31.0384 42.7219C31.8079 40.2527 31.2451 37.5654 29.4536 35.1116C27.662 32.6577 24.9211 30.8317 21.6786 29.8173C14.9488 27.7041 8.19216 30.0738 6.6188 35.0924C5.04544 40.1111 9.23341 45.9375 15.9633 48.0315ZM16.7289 29.8058C18.3266 29.8141 19.914 30.0632 21.4375 30.5446C24.5344 31.5131 27.1567 33.3047 28.8258 35.6016C30.3953 37.7568 30.9427 40.0996 30.38 42.2357C29.5378 41.1562 27.3711 39.0507 22.5247 37.642C20.1702 36.9886 17.7522 36.5908 15.3125 36.4552C12.9199 36.26 10.6536 36.0724 7.49544 34.947C8.72044 31.7275 12.3993 29.8058 16.725 29.8058H16.7289ZM7.21216 35.8351C8.36059 36.7155 11.5341 38.9627 15.1325 40.1341C17.1308 40.7887 19.4047 40.9533 21.2307 41.0873C21.8815 41.137 22.4979 41.183 22.9917 41.2442C23.0932 41.2564 23.1954 41.2278 23.2758 41.1646C23.3562 41.1014 23.4083 41.0089 23.4204 40.9073C23.4326 40.8058 23.404 40.7036 23.3408 40.6232C23.2776 40.5428 23.1851 40.4908 23.0836 40.4786C22.5744 40.4173 21.9351 40.3714 21.2882 40.3216C19.5004 40.1915 17.2801 40.0269 15.3699 39.4029C13.1819 38.6369 11.1034 37.5881 9.18747 36.283C11.1743 36.7941 13.2066 37.1083 15.255 37.2209C17.6477 37.3472 20.0197 37.7323 22.3294 38.3693C26.035 39.4373 28.0946 40.938 29.1588 41.9945C28.2495 41.6344 27.3172 41.3351 26.3681 41.0988C26.3182 41.0815 26.2652 41.0748 26.2125 41.079C26.1599 41.0832 26.1087 41.0982 26.0621 41.1232C26.0156 41.1482 25.9747 41.1825 25.942 41.224C25.9094 41.2656 25.8857 41.3134 25.8725 41.3646C25.8592 41.4157 25.8567 41.469 25.8651 41.5212C25.8734 41.5733 25.8925 41.6232 25.9211 41.6676C25.9496 41.7121 25.9871 41.7501 26.0311 41.7794C26.0751 41.8086 26.1247 41.8284 26.1767 41.8376C27.5068 42.162 28.7952 42.6385 30.0163 43.2578C29.1741 45.1183 27.4668 46.5653 25.1278 47.3692C22.4481 48.2956 19.2784 48.2688 16.1929 47.3003C10.0986 45.3901 6.1977 40.3331 7.21216 35.8351Z" fill="#9B5D4E"/>
</g>
<defs>
<clipPath id="clip0_326_390">
<rect width="49" height="49" fill="white"/>
</clipPath>
</defs>
</svg>
