<svg width="21" height="21" viewBox="0 0 21 21" fill="none" xmlns="http://www.w3.org/2000/svg">
<path d="M19.0671 15.4823V6.4823C19.0671 5.6523 18.3971 4.9823 17.5671 4.9823H3.55713C2.72713 4.9823 2.05713 5.6523 2.05713 6.4823V15.4823C2.05713 16.3123 2.72713 16.9823 3.55713 16.9823H17.5671C18.3971 16.9823 19.0671 16.3123 19.0671 15.4823ZM17.7571 6.3723C18.0871 6.7023 17.9071 7.0423 17.7271 7.2123L13.6671 10.9323L17.5671 14.9923C17.6871 15.1323 17.7671 15.3523 17.6271 15.5023C17.4971 15.6623 17.1971 15.6523 17.0671 15.5523L12.6971 11.8223L10.5571 13.7723L8.42713 11.8223L4.05713 15.5523C3.92713 15.6523 3.62713 15.6623 3.49713 15.5023C3.35713 15.3523 3.43713 15.1323 3.55713 14.9923L7.45713 10.9323L3.39713 7.2123C3.21713 7.0423 3.03713 6.7023 3.36713 6.3723C3.69713 6.0423 4.03713 6.2023 4.31713 6.4423L10.5571 11.4823L16.8071 6.4423C17.0871 6.2023 17.4271 6.0423 17.7571 6.3723Z" fill="#191919"/>
</svg>
