<svg width="65" height="65" viewBox="0 0 65 65" fill="none" xmlns="http://www.w3.org/2000/svg">
<rect x="0.707275" y="0.842285" width="64" height="64" fill="#9B5D4E"/>
<path fill-rule="evenodd" clip-rule="evenodd" d="M48.9866 23.0504C48.9866 23.0504 35.4837 30.1254 32.7066 30.1254C30.057 30.1254 16.4062 22.9126 16.4062 22.9126V21.7863C16.4062 20.3907 17.6218 19.2581 19.1222 19.2581H46.2909C47.7928 19.2581 49.0083 20.3907 49.0083 21.7863L48.9866 23.0504ZM16.4279 27.4084C16.4265 27.4084 30.057 34.6717 32.7066 34.6717C35.6112 34.6717 48.9866 27.4084 48.9866 27.4084L49.0084 43.7094C49.0084 45.2091 47.7928 46.4263 46.2909 46.4263H19.1223C17.6231 46.4263 16.4062 45.2091 16.4062 43.7094L16.4279 27.4084Z" fill="white"/>
</svg>
