<svg width="585" height="102" viewBox="0 0 585 102" fill="none" xmlns="http://www.w3.org/2000/svg">
<g clip-path="url(#clip0_2029_23)">
<rect opacity="0.15" x="0.389648" y="66.2599" width="583.293" height="34.8164" rx="17.4082" transform="rotate(-0.771543 0.389648 66.2599)" fill="#8B5D4C"/>
<mask id="path-2-outside-1_2029_23" maskUnits="userSpaceOnUse" x="13.3079" y="11.8888" width="555" height="63" fill="black">
<rect fill="white" x="13.3079" y="11.8888" width="555" height="63"/>
<path d="M71.2119 16.1388V70.8888H68.8029V19.6428L42.9609 71.9108L17.2649 18.9858V70.8888H14.8559V16.1388H18.2869L42.9609 66.9468L67.8539 16.1388H71.2119ZM108.862 72.3488C103.752 72.3488 99.0072 71.0105 94.6272 68.3338C90.2472 65.6571 86.7675 62.1045 84.1882 57.6758C81.6575 53.1985 80.3922 48.4048 80.3922 43.2948C80.3922 38.2335 81.6818 33.5128 84.2612 29.1328C86.8405 24.7041 90.3202 21.2001 94.7002 18.6208C99.0802 15.9928 103.825 14.6788 108.935 14.6788C114.094 14.6788 118.839 15.9685 123.17 18.5478C127.502 21.1271 130.933 24.6311 133.463 29.0598C136.043 33.4398 137.332 38.1848 137.332 43.2948C137.332 48.5508 136.043 53.4175 133.463 57.8948C130.933 62.3235 127.477 65.8518 123.097 68.4798C118.766 71.0591 114.021 72.3488 108.862 72.3488ZM108.862 70.2318C113.534 70.2318 117.866 69.0395 121.856 66.6548C125.847 64.2215 129.01 60.9608 131.346 56.8728C133.731 52.7361 134.923 48.2588 134.923 43.4408C134.923 38.6715 133.755 34.2428 131.419 30.1548C129.083 26.0668 125.92 22.8305 121.929 20.4458C117.939 18.0125 113.607 16.7958 108.935 16.7958C104.215 16.7958 99.8588 18.0125 95.8682 20.4458C91.8775 22.8305 88.6898 26.0668 86.3052 30.1548C83.9692 34.2428 82.8012 38.6715 82.8012 43.4408C82.8012 48.2588 83.9692 52.7361 86.3052 56.8728C88.6898 60.9608 91.8775 64.2215 95.8682 66.6548C99.8588 69.0395 104.19 70.2318 108.862 70.2318ZM172.666 72.3488C167.556 72.3488 162.811 71.0105 158.431 68.3338C154.051 65.6571 150.571 62.1045 147.992 57.6758C145.461 53.1985 144.196 48.4048 144.196 43.2948C144.196 38.2335 145.486 33.5128 148.065 29.1328C150.644 24.7041 154.124 21.2001 158.504 18.6208C162.884 15.9928 167.629 14.6788 172.739 14.6788C177.898 14.6788 182.643 15.9685 186.974 18.5478C191.305 21.1271 194.736 24.6311 197.267 29.0598C199.846 33.4398 201.136 38.1848 201.136 43.2948C201.136 48.5508 199.846 53.4175 197.267 57.8948C194.736 62.3235 191.281 65.8518 186.901 68.4798C182.57 71.0591 177.825 72.3488 172.666 72.3488ZM172.666 70.2318C177.338 70.2318 181.669 69.0395 185.66 66.6548C189.651 64.2215 192.814 60.9608 195.15 56.8728C197.535 52.7361 198.727 48.2588 198.727 43.4408C198.727 38.6715 197.559 34.2428 195.223 30.1548C192.887 26.0668 189.724 22.8305 185.733 20.4458C181.742 18.0125 177.411 16.7958 172.739 16.7958C168.018 16.7958 163.663 18.0125 159.672 20.4458C155.681 22.8305 152.494 26.0668 150.109 30.1548C147.773 34.2428 146.605 38.6715 146.605 43.4408C146.605 48.2588 147.773 52.7361 150.109 56.8728C152.494 60.9608 155.681 64.2215 159.672 66.6548C163.663 69.0395 167.994 70.2318 172.666 70.2318ZM213.165 21.6138V70.8888H211.048V15.3358L251.344 65.3408V16.1388H253.461V71.6918L213.165 21.6138ZM265.014 16.1388H268.153C273.847 16.1388 278.227 17.6475 281.293 20.6648C284.408 23.6821 285.965 27.9891 285.965 33.5858C285.965 36.7978 285.187 39.7421 283.629 42.4188C282.121 45.0955 280.052 47.2125 277.424 48.7698C274.796 50.2785 271.901 51.0328 268.737 51.0328H268.226L287.06 70.8888H283.921L267.35 53.5148V70.8888H265.014V16.1388ZM268.664 48.9158C271.438 48.9158 273.969 48.2345 276.256 46.8718C278.544 45.5091 280.344 43.6841 281.658 41.3968C282.972 39.0608 283.629 36.4815 283.629 33.6588C283.629 28.7435 282.291 24.9475 279.614 22.2708C276.986 19.5941 273.215 18.2558 268.299 18.2558H267.35V48.9158H268.664ZM295.535 16.1388H297.944V70.8888H295.535V16.1388ZM321.316 71.9108C315.233 71.9108 310.512 69.4045 307.154 64.3918V60.4498C308.468 63.3698 310.366 65.6571 312.848 67.3118C315.379 68.9665 318.396 69.7938 321.9 69.7938C324.333 69.7938 326.572 69.2585 328.616 68.1878C330.709 67.1171 332.363 65.6085 333.58 63.6618C334.797 61.7151 335.405 59.4765 335.405 56.9458C335.405 54.6585 335.016 52.6875 334.237 51.0328C333.458 49.3781 332.169 47.7965 330.368 46.2878C328.567 44.7305 325.964 42.9055 322.557 40.8128L320.221 39.3528C318.08 38.0388 316.352 36.8708 315.038 35.8488C313.724 34.8268 312.58 33.6345 311.607 32.2718C310.342 30.3738 309.709 28.1838 309.709 25.7018C309.709 22.3925 310.78 19.8131 312.921 17.9638C315.062 16.1145 317.788 15.1898 321.097 15.1898C325.574 15.1898 329.127 16.8445 331.755 20.1538V23.8768C330.636 21.8328 329.103 20.2268 327.156 19.0588C325.209 17.8908 323.068 17.3068 320.732 17.3068C318.299 17.3068 316.255 18.0611 314.6 19.5698C312.945 21.0785 312.118 23.0981 312.118 25.6288C312.118 28.1108 312.872 30.2521 314.381 32.0528C315.938 33.8048 318.542 35.7271 322.192 37.8198C326.669 40.4478 330.149 42.8325 332.631 44.9738C334.383 46.5798 335.648 48.3561 336.427 50.3028C337.254 52.2495 337.668 54.4151 337.668 56.7998C337.668 59.8171 336.962 62.4695 335.551 64.7568C334.14 67.0441 332.193 68.8205 329.711 70.0858C327.229 71.3025 324.431 71.9108 321.316 71.9108ZM346.498 16.1388H366.135V18.2558H348.907V48.0398H363.288V50.1568H348.907V68.7718H366.135V70.8888H346.498V16.1388ZM404.149 71.8378C400.986 71.8378 398.066 71.0835 395.389 69.5748C392.761 68.0661 390.669 65.9978 389.111 63.3698C387.554 60.7418 386.775 57.7731 386.775 54.4638C386.775 51.3978 387.554 48.5751 389.111 45.9958C390.669 43.3678 392.786 41.2751 395.462 39.7178C398.188 38.1605 401.181 37.3818 404.441 37.3818C407.167 37.3818 409.503 37.8198 411.449 38.6958C413.396 39.5718 415.294 40.9345 417.143 42.7838V46.7258C415.537 44.3411 413.737 42.5405 411.741 41.3238C409.795 40.0585 407.361 39.4258 404.441 39.4258C401.765 39.4258 399.234 40.1315 396.849 41.5428C394.513 42.9055 392.64 44.7548 391.228 47.0908C389.817 49.4268 389.111 51.9331 389.111 54.6098C389.111 57.5298 389.793 60.1578 391.155 62.4938C392.518 64.7811 394.343 66.5818 396.63 67.8958C398.966 69.1611 401.473 69.7938 404.149 69.7938C409.6 69.7938 413.931 67.3361 417.143 62.4208V66.3628C415.391 68.2121 413.445 69.5991 411.303 70.5238C409.211 71.3998 406.826 71.8378 404.149 71.8378ZM439.94 72.0568C436.631 72.0568 433.638 71.2538 430.961 69.6478C428.284 67.9931 426.192 65.8275 424.683 63.1508C423.174 60.4255 422.42 57.4811 422.42 54.3178C422.42 51.2031 423.174 48.3075 424.683 45.6308C426.24 42.9541 428.333 40.8371 430.961 39.2798C433.638 37.6738 436.606 36.8708 439.867 36.8708C443.079 36.8708 445.999 37.6738 448.627 39.2798C451.304 40.8371 453.396 42.9541 454.905 45.6308C456.414 48.3075 457.168 51.2031 457.168 54.3178C457.168 57.5785 456.438 60.5715 454.978 63.2968C453.518 65.9735 451.474 68.1148 448.846 69.7208C446.267 71.2781 443.298 72.0568 439.94 72.0568ZM439.94 70.0128C442.714 70.0128 445.245 69.3071 447.532 67.8958C449.819 66.4845 451.596 64.6108 452.861 62.2748C454.175 59.8901 454.832 57.2865 454.832 54.4638C454.832 51.6898 454.175 49.1105 452.861 46.7258C451.547 44.3411 449.746 42.4431 447.459 41.0318C445.172 39.6205 442.641 38.9148 439.867 38.9148C437.093 38.9148 434.538 39.6448 432.202 41.1048C429.915 42.5161 428.09 44.4141 426.727 46.7988C425.413 49.1835 424.756 51.7628 424.756 54.5368C424.756 57.3108 425.413 59.8901 426.727 62.2748C428.09 64.6108 429.915 66.4845 432.202 67.8958C434.538 69.3071 437.117 70.0128 439.94 70.0128ZM494.165 26.3588C492.315 26.3588 490.612 26.8211 489.055 27.7458C487.497 28.6218 486.256 29.8628 485.332 31.4688C484.456 33.0261 484.018 34.7538 484.018 36.6518V38.0388H494.165V40.0828H484.018V70.8888H481.682V40.0828H466.79V70.8888H464.454V36.6518C464.454 34.3645 464.989 32.2961 466.06 30.4468C467.179 28.5488 468.688 27.0645 470.586 25.9938C472.532 24.8745 474.649 24.3148 476.937 24.3148V26.3588C475.087 26.3588 473.384 26.8211 471.827 27.7458C470.269 28.6218 469.028 29.8628 468.104 31.4688C467.228 33.0261 466.79 34.7538 466.79 36.6518V38.0388H481.682V36.6518C481.682 34.3645 482.217 32.2961 483.288 30.4468C484.407 28.5488 485.916 27.0645 487.814 25.9938C489.76 24.8745 491.877 24.3148 494.165 24.3148V26.3588ZM516.37 69.7208C518.901 69.7208 521.31 69.0638 523.597 67.7498C525.885 66.4358 527.783 64.6351 529.291 62.3478V66.0708C527.491 68.0661 525.52 69.5261 523.378 70.4508C521.237 71.3268 518.804 71.7648 516.078 71.7648C513.061 71.7648 510.214 70.9618 507.537 69.3558C504.909 67.7498 502.792 65.6085 501.186 62.9318C499.629 60.2551 498.85 57.4081 498.85 54.3908C498.85 51.1301 499.629 48.2101 501.186 45.6308C502.744 43.0028 504.861 40.9588 507.537 39.4988C510.263 38.0388 513.28 37.3088 516.589 37.3088C521.651 37.3088 525.958 39.3041 529.51 43.2948L506.588 65.9248C508.194 67.2388 509.752 68.2121 511.26 68.8448C512.769 69.4288 514.472 69.7208 516.37 69.7208ZM501.186 54.1718C501.186 58.2111 502.525 61.6665 505.201 64.5378L526.59 43.2948C524.984 41.8835 523.427 40.8858 521.918 40.3018C520.41 39.6691 518.609 39.3528 516.516 39.3528C513.548 39.3528 510.895 40.0098 508.559 41.3238C506.272 42.5891 504.471 44.3411 503.157 46.5798C501.843 48.8185 501.186 51.3491 501.186 54.1718ZM552.799 69.7208C555.33 69.7208 557.739 69.0638 560.026 67.7498C562.313 66.4358 564.211 64.6351 565.72 62.3478V66.0708C563.919 68.0661 561.948 69.5261 559.807 70.4508C557.666 71.3268 555.232 71.7648 552.507 71.7648C549.49 71.7648 546.643 70.9618 543.966 69.3558C541.338 67.7498 539.221 65.6085 537.615 62.9318C536.058 60.2551 535.279 57.4081 535.279 54.3908C535.279 51.1301 536.058 48.2101 537.615 45.6308C539.172 43.0028 541.289 40.9588 543.966 39.4988C546.691 38.0388 549.709 37.3088 553.018 37.3088C558.079 37.3088 562.386 39.3041 565.939 43.2948L543.017 65.9248C544.623 67.2388 546.18 68.2121 547.689 68.8448C549.198 69.4288 550.901 69.7208 552.799 69.7208ZM537.615 54.1718C537.615 58.2111 538.953 61.6665 541.63 64.5378L563.019 43.2948C561.413 41.8835 559.856 40.8858 558.347 40.3018C556.838 39.6691 555.038 39.3528 552.945 39.3528C549.976 39.3528 547.324 40.0098 544.988 41.3238C542.701 42.5891 540.9 44.3411 539.586 46.5798C538.272 48.8185 537.615 51.3491 537.615 54.1718Z"/>
</mask>
<path d="M71.2119 16.1388V70.8888H68.8029V19.6428L42.9609 71.9108L17.2649 18.9858V70.8888H14.8559V16.1388H18.2869L42.9609 66.9468L67.8539 16.1388H71.2119ZM108.862 72.3488C103.752 72.3488 99.0072 71.0105 94.6272 68.3338C90.2472 65.6571 86.7675 62.1045 84.1882 57.6758C81.6575 53.1985 80.3922 48.4048 80.3922 43.2948C80.3922 38.2335 81.6818 33.5128 84.2612 29.1328C86.8405 24.7041 90.3202 21.2001 94.7002 18.6208C99.0802 15.9928 103.825 14.6788 108.935 14.6788C114.094 14.6788 118.839 15.9685 123.17 18.5478C127.502 21.1271 130.933 24.6311 133.463 29.0598C136.043 33.4398 137.332 38.1848 137.332 43.2948C137.332 48.5508 136.043 53.4175 133.463 57.8948C130.933 62.3235 127.477 65.8518 123.097 68.4798C118.766 71.0591 114.021 72.3488 108.862 72.3488ZM108.862 70.2318C113.534 70.2318 117.866 69.0395 121.856 66.6548C125.847 64.2215 129.01 60.9608 131.346 56.8728C133.731 52.7361 134.923 48.2588 134.923 43.4408C134.923 38.6715 133.755 34.2428 131.419 30.1548C129.083 26.0668 125.92 22.8305 121.929 20.4458C117.939 18.0125 113.607 16.7958 108.935 16.7958C104.215 16.7958 99.8588 18.0125 95.8682 20.4458C91.8775 22.8305 88.6898 26.0668 86.3052 30.1548C83.9692 34.2428 82.8012 38.6715 82.8012 43.4408C82.8012 48.2588 83.9692 52.7361 86.3052 56.8728C88.6898 60.9608 91.8775 64.2215 95.8682 66.6548C99.8588 69.0395 104.19 70.2318 108.862 70.2318ZM172.666 72.3488C167.556 72.3488 162.811 71.0105 158.431 68.3338C154.051 65.6571 150.571 62.1045 147.992 57.6758C145.461 53.1985 144.196 48.4048 144.196 43.2948C144.196 38.2335 145.486 33.5128 148.065 29.1328C150.644 24.7041 154.124 21.2001 158.504 18.6208C162.884 15.9928 167.629 14.6788 172.739 14.6788C177.898 14.6788 182.643 15.9685 186.974 18.5478C191.305 21.1271 194.736 24.6311 197.267 29.0598C199.846 33.4398 201.136 38.1848 201.136 43.2948C201.136 48.5508 199.846 53.4175 197.267 57.8948C194.736 62.3235 191.281 65.8518 186.901 68.4798C182.57 71.0591 177.825 72.3488 172.666 72.3488ZM172.666 70.2318C177.338 70.2318 181.669 69.0395 185.66 66.6548C189.651 64.2215 192.814 60.9608 195.15 56.8728C197.535 52.7361 198.727 48.2588 198.727 43.4408C198.727 38.6715 197.559 34.2428 195.223 30.1548C192.887 26.0668 189.724 22.8305 185.733 20.4458C181.742 18.0125 177.411 16.7958 172.739 16.7958C168.018 16.7958 163.663 18.0125 159.672 20.4458C155.681 22.8305 152.494 26.0668 150.109 30.1548C147.773 34.2428 146.605 38.6715 146.605 43.4408C146.605 48.2588 147.773 52.7361 150.109 56.8728C152.494 60.9608 155.681 64.2215 159.672 66.6548C163.663 69.0395 167.994 70.2318 172.666 70.2318ZM213.165 21.6138V70.8888H211.048V15.3358L251.344 65.3408V16.1388H253.461V71.6918L213.165 21.6138ZM265.014 16.1388H268.153C273.847 16.1388 278.227 17.6475 281.293 20.6648C284.408 23.6821 285.965 27.9891 285.965 33.5858C285.965 36.7978 285.187 39.7421 283.629 42.4188C282.121 45.0955 280.052 47.2125 277.424 48.7698C274.796 50.2785 271.901 51.0328 268.737 51.0328H268.226L287.06 70.8888H283.921L267.35 53.5148V70.8888H265.014V16.1388ZM268.664 48.9158C271.438 48.9158 273.969 48.2345 276.256 46.8718C278.544 45.5091 280.344 43.6841 281.658 41.3968C282.972 39.0608 283.629 36.4815 283.629 33.6588C283.629 28.7435 282.291 24.9475 279.614 22.2708C276.986 19.5941 273.215 18.2558 268.299 18.2558H267.35V48.9158H268.664ZM295.535 16.1388H297.944V70.8888H295.535V16.1388ZM321.316 71.9108C315.233 71.9108 310.512 69.4045 307.154 64.3918V60.4498C308.468 63.3698 310.366 65.6571 312.848 67.3118C315.379 68.9665 318.396 69.7938 321.9 69.7938C324.333 69.7938 326.572 69.2585 328.616 68.1878C330.709 67.1171 332.363 65.6085 333.58 63.6618C334.797 61.7151 335.405 59.4765 335.405 56.9458C335.405 54.6585 335.016 52.6875 334.237 51.0328C333.458 49.3781 332.169 47.7965 330.368 46.2878C328.567 44.7305 325.964 42.9055 322.557 40.8128L320.221 39.3528C318.08 38.0388 316.352 36.8708 315.038 35.8488C313.724 34.8268 312.58 33.6345 311.607 32.2718C310.342 30.3738 309.709 28.1838 309.709 25.7018C309.709 22.3925 310.78 19.8131 312.921 17.9638C315.062 16.1145 317.788 15.1898 321.097 15.1898C325.574 15.1898 329.127 16.8445 331.755 20.1538V23.8768C330.636 21.8328 329.103 20.2268 327.156 19.0588C325.209 17.8908 323.068 17.3068 320.732 17.3068C318.299 17.3068 316.255 18.0611 314.6 19.5698C312.945 21.0785 312.118 23.0981 312.118 25.6288C312.118 28.1108 312.872 30.2521 314.381 32.0528C315.938 33.8048 318.542 35.7271 322.192 37.8198C326.669 40.4478 330.149 42.8325 332.631 44.9738C334.383 46.5798 335.648 48.3561 336.427 50.3028C337.254 52.2495 337.668 54.4151 337.668 56.7998C337.668 59.8171 336.962 62.4695 335.551 64.7568C334.14 67.0441 332.193 68.8205 329.711 70.0858C327.229 71.3025 324.431 71.9108 321.316 71.9108ZM346.498 16.1388H366.135V18.2558H348.907V48.0398H363.288V50.1568H348.907V68.7718H366.135V70.8888H346.498V16.1388ZM404.149 71.8378C400.986 71.8378 398.066 71.0835 395.389 69.5748C392.761 68.0661 390.669 65.9978 389.111 63.3698C387.554 60.7418 386.775 57.7731 386.775 54.4638C386.775 51.3978 387.554 48.5751 389.111 45.9958C390.669 43.3678 392.786 41.2751 395.462 39.7178C398.188 38.1605 401.181 37.3818 404.441 37.3818C407.167 37.3818 409.503 37.8198 411.449 38.6958C413.396 39.5718 415.294 40.9345 417.143 42.7838V46.7258C415.537 44.3411 413.737 42.5405 411.741 41.3238C409.795 40.0585 407.361 39.4258 404.441 39.4258C401.765 39.4258 399.234 40.1315 396.849 41.5428C394.513 42.9055 392.64 44.7548 391.228 47.0908C389.817 49.4268 389.111 51.9331 389.111 54.6098C389.111 57.5298 389.793 60.1578 391.155 62.4938C392.518 64.7811 394.343 66.5818 396.63 67.8958C398.966 69.1611 401.473 69.7938 404.149 69.7938C409.6 69.7938 413.931 67.3361 417.143 62.4208V66.3628C415.391 68.2121 413.445 69.5991 411.303 70.5238C409.211 71.3998 406.826 71.8378 404.149 71.8378ZM439.94 72.0568C436.631 72.0568 433.638 71.2538 430.961 69.6478C428.284 67.9931 426.192 65.8275 424.683 63.1508C423.174 60.4255 422.42 57.4811 422.42 54.3178C422.42 51.2031 423.174 48.3075 424.683 45.6308C426.24 42.9541 428.333 40.8371 430.961 39.2798C433.638 37.6738 436.606 36.8708 439.867 36.8708C443.079 36.8708 445.999 37.6738 448.627 39.2798C451.304 40.8371 453.396 42.9541 454.905 45.6308C456.414 48.3075 457.168 51.2031 457.168 54.3178C457.168 57.5785 456.438 60.5715 454.978 63.2968C453.518 65.9735 451.474 68.1148 448.846 69.7208C446.267 71.2781 443.298 72.0568 439.94 72.0568ZM439.94 70.0128C442.714 70.0128 445.245 69.3071 447.532 67.8958C449.819 66.4845 451.596 64.6108 452.861 62.2748C454.175 59.8901 454.832 57.2865 454.832 54.4638C454.832 51.6898 454.175 49.1105 452.861 46.7258C451.547 44.3411 449.746 42.4431 447.459 41.0318C445.172 39.6205 442.641 38.9148 439.867 38.9148C437.093 38.9148 434.538 39.6448 432.202 41.1048C429.915 42.5161 428.09 44.4141 426.727 46.7988C425.413 49.1835 424.756 51.7628 424.756 54.5368C424.756 57.3108 425.413 59.8901 426.727 62.2748C428.09 64.6108 429.915 66.4845 432.202 67.8958C434.538 69.3071 437.117 70.0128 439.94 70.0128ZM494.165 26.3588C492.315 26.3588 490.612 26.8211 489.055 27.7458C487.497 28.6218 486.256 29.8628 485.332 31.4688C484.456 33.0261 484.018 34.7538 484.018 36.6518V38.0388H494.165V40.0828H484.018V70.8888H481.682V40.0828H466.79V70.8888H464.454V36.6518C464.454 34.3645 464.989 32.2961 466.06 30.4468C467.179 28.5488 468.688 27.0645 470.586 25.9938C472.532 24.8745 474.649 24.3148 476.937 24.3148V26.3588C475.087 26.3588 473.384 26.8211 471.827 27.7458C470.269 28.6218 469.028 29.8628 468.104 31.4688C467.228 33.0261 466.79 34.7538 466.79 36.6518V38.0388H481.682V36.6518C481.682 34.3645 482.217 32.2961 483.288 30.4468C484.407 28.5488 485.916 27.0645 487.814 25.9938C489.76 24.8745 491.877 24.3148 494.165 24.3148V26.3588ZM516.37 69.7208C518.901 69.7208 521.31 69.0638 523.597 67.7498C525.885 66.4358 527.783 64.6351 529.291 62.3478V66.0708C527.491 68.0661 525.52 69.5261 523.378 70.4508C521.237 71.3268 518.804 71.7648 516.078 71.7648C513.061 71.7648 510.214 70.9618 507.537 69.3558C504.909 67.7498 502.792 65.6085 501.186 62.9318C499.629 60.2551 498.85 57.4081 498.85 54.3908C498.85 51.1301 499.629 48.2101 501.186 45.6308C502.744 43.0028 504.861 40.9588 507.537 39.4988C510.263 38.0388 513.28 37.3088 516.589 37.3088C521.651 37.3088 525.958 39.3041 529.51 43.2948L506.588 65.9248C508.194 67.2388 509.752 68.2121 511.26 68.8448C512.769 69.4288 514.472 69.7208 516.37 69.7208ZM501.186 54.1718C501.186 58.2111 502.525 61.6665 505.201 64.5378L526.59 43.2948C524.984 41.8835 523.427 40.8858 521.918 40.3018C520.41 39.6691 518.609 39.3528 516.516 39.3528C513.548 39.3528 510.895 40.0098 508.559 41.3238C506.272 42.5891 504.471 44.3411 503.157 46.5798C501.843 48.8185 501.186 51.3491 501.186 54.1718ZM552.799 69.7208C555.33 69.7208 557.739 69.0638 560.026 67.7498C562.313 66.4358 564.211 64.6351 565.72 62.3478V66.0708C563.919 68.0661 561.948 69.5261 559.807 70.4508C557.666 71.3268 555.232 71.7648 552.507 71.7648C549.49 71.7648 546.643 70.9618 543.966 69.3558C541.338 67.7498 539.221 65.6085 537.615 62.9318C536.058 60.2551 535.279 57.4081 535.279 54.3908C535.279 51.1301 536.058 48.2101 537.615 45.6308C539.172 43.0028 541.289 40.9588 543.966 39.4988C546.691 38.0388 549.709 37.3088 553.018 37.3088C558.079 37.3088 562.386 39.3041 565.939 43.2948L543.017 65.9248C544.623 67.2388 546.18 68.2121 547.689 68.8448C549.198 69.4288 550.901 69.7208 552.799 69.7208ZM537.615 54.1718C537.615 58.2111 538.953 61.6665 541.63 64.5378L563.019 43.2948C561.413 41.8835 559.856 40.8858 558.347 40.3018C556.838 39.6691 555.038 39.3528 552.945 39.3528C549.976 39.3528 547.324 40.0098 544.988 41.3238C542.701 42.5891 540.9 44.3411 539.586 46.5798C538.272 48.8185 537.615 51.3491 537.615 54.1718Z" fill="url(#paint0_linear_2029_23)"/>
<path d="M71.2119 16.1388H72.2119V15.1388H71.2119V16.1388ZM71.2119 70.8888V71.8888H72.2119V70.8888H71.2119ZM68.8029 70.8888H67.8029V71.8888H68.8029V70.8888ZM68.8029 19.6428H69.8029L67.9064 19.1996L68.8029 19.6428ZM42.9609 71.9108L42.0613 72.3476L42.9527 74.1836L43.8573 72.354L42.9609 71.9108ZM17.2649 18.9858L18.1644 18.549L16.2649 18.9858H17.2649ZM17.2649 70.8888V71.8888H18.2649V70.8888H17.2649ZM14.8559 70.8888H13.8559V71.8888H14.8559V70.8888ZM14.8559 16.1388V15.1388H13.8559V16.1388H14.8559ZM18.2869 16.1388L19.1864 15.7019L18.9129 15.1388H18.2869V16.1388ZM42.9609 66.9468L42.0613 67.3836L42.9569 69.2278L43.8589 67.3868L42.9609 66.9468ZM67.8539 16.1388V15.1388H67.2302L66.9559 15.6988L67.8539 16.1388ZM70.2119 16.1388V70.8888H72.2119V16.1388H70.2119ZM71.2119 69.8888H68.8029V71.8888H71.2119V69.8888ZM69.8029 70.8888V19.6428H67.8029V70.8888H69.8029ZM67.9064 19.1996L42.0644 71.4676L43.8573 72.354L69.6993 20.086L67.9064 19.1996ZM43.8604 71.474L18.1644 18.549L16.3653 19.4226L42.0613 72.3476L43.8604 71.474ZM16.2649 18.9858V70.8888H18.2649V18.9858H16.2649ZM17.2649 69.8888H14.8559V71.8888H17.2649V69.8888ZM15.8559 70.8888V16.1388H13.8559V70.8888H15.8559ZM14.8559 17.1388H18.2869V15.1388H14.8559V17.1388ZM17.3873 16.5756L42.0613 67.3836L43.8604 66.5099L19.1864 15.7019L17.3873 16.5756ZM43.8589 67.3868L68.7519 16.5788L66.9559 15.6988L42.0629 66.5068L43.8589 67.3868ZM67.8539 17.1388H71.2119V15.1388H67.8539V17.1388ZM94.6272 68.3338L94.1057 69.1871L94.6272 68.3338ZM84.1882 57.6758L83.3175 58.1679L83.3241 58.1791L84.1882 57.6758ZM84.2612 29.1328L85.1229 29.6402L85.1253 29.6361L84.2612 29.1328ZM94.7002 18.6208L95.2076 19.4825L95.2147 19.4783L94.7002 18.6208ZM123.17 18.5478L122.659 19.407V19.407L123.17 18.5478ZM133.463 29.0598L132.595 29.556L132.601 29.5672L133.463 29.0598ZM133.463 57.8948L132.597 57.3956L132.595 57.3987L133.463 57.8948ZM123.097 68.4798L123.609 69.339L123.612 69.3373L123.097 68.4798ZM121.856 66.6548L122.369 67.5132L122.377 67.5086L121.856 66.6548ZM131.346 56.8728L130.48 56.3734L130.478 56.3767L131.346 56.8728ZM131.419 30.1548L132.287 29.6587L131.419 30.1548ZM121.929 20.4458L121.409 21.2996L121.416 21.3042L121.929 20.4458ZM95.8682 20.4458L96.3812 21.3042L96.3888 21.2996L95.8682 20.4458ZM86.3052 30.1548L85.4414 29.6509L85.4369 29.6587L86.3052 30.1548ZM86.3052 56.8728L85.4343 57.3646L85.4414 57.3767L86.3052 56.8728ZM95.8682 66.6548L95.3476 67.5086L95.3552 67.5132L95.8682 66.6548ZM108.862 71.3488C103.937 71.3488 99.3724 70.0617 95.1486 67.4805L94.1057 69.1871C98.642 71.9592 103.567 73.3488 108.862 73.3488V71.3488ZM95.1486 67.4805C90.9099 64.8902 87.5481 61.4577 85.0523 57.1725L83.3241 58.1791C85.987 62.7512 89.5845 66.4241 94.1057 69.1871L95.1486 67.4805ZM85.0587 57.1837C82.6124 52.8555 81.3922 48.2312 81.3922 43.2948H79.3922C79.3922 48.5784 80.7027 53.5414 83.3176 58.1679L85.0587 57.1837ZM81.3922 43.2948C81.3922 38.4127 82.6337 33.8672 85.1229 29.6402L83.3995 28.6254C80.73 33.1584 79.3922 38.0542 79.3922 43.2948H81.3922ZM85.1253 29.6361C87.6192 25.3542 90.9765 21.9741 95.2076 19.4825L94.1927 17.7591C89.6638 20.4261 86.0619 24.0541 83.3971 28.6295L85.1253 29.6361ZM95.2147 19.4783C99.4392 16.9436 104.006 15.6788 108.935 15.6788V13.6788C103.644 13.6788 98.7212 15.042 94.1857 17.7633L95.2147 19.4783ZM108.935 15.6788C113.918 15.6788 118.486 16.922 122.659 19.407L123.682 17.6886C119.192 15.0149 114.27 13.6788 108.935 13.6788V15.6788ZM122.659 19.407C126.84 21.897 130.149 25.2752 132.595 29.5559L134.331 28.5637C131.716 23.9871 128.163 20.3573 123.682 17.6886L122.659 19.407ZM132.601 29.5672C135.09 33.7926 136.332 38.3623 136.332 43.2948H138.332C138.332 38.0073 136.995 33.087 134.325 28.5524L132.601 29.5672ZM136.332 43.2948C136.332 48.3787 135.087 53.0728 132.597 57.3956L134.33 58.394C136.998 53.7621 138.332 48.7228 138.332 43.2948H136.332ZM132.595 57.3987C130.149 61.6783 126.816 65.0823 122.583 67.6223L123.612 69.3373C128.138 66.6213 131.716 62.9686 134.331 58.3909L132.595 57.3987ZM122.586 67.6206C118.413 70.1055 113.845 71.3488 108.862 71.3488V73.3488C114.197 73.3488 119.119 72.0127 123.609 69.339L122.586 67.6206ZM108.862 71.2318C113.714 71.2318 118.223 69.991 122.369 67.5132L121.343 65.7964C117.508 68.0879 113.354 69.2318 108.862 69.2318V71.2318ZM122.377 67.5086C126.513 64.9866 129.795 61.6025 132.214 57.3689L130.478 56.3767C128.225 60.3191 125.181 63.4563 121.336 65.801L122.377 67.5086ZM132.213 57.3722C134.686 53.0822 135.923 48.4324 135.923 43.4408H133.923C133.923 48.0851 132.776 52.39 130.48 56.3734L132.213 57.3722ZM135.923 43.4408C135.923 38.4998 134.711 33.8998 132.287 29.6587L130.551 30.6509C132.799 34.5858 133.923 38.8431 133.923 43.4408H135.923ZM132.287 29.6587C129.867 25.4234 126.582 22.0614 122.442 19.5874L121.416 21.3042C125.257 23.5995 128.299 26.7102 130.551 30.6509L132.287 29.6587ZM122.45 19.592C118.302 17.0631 113.791 15.7958 108.935 15.7958V17.7958C113.423 17.7958 117.575 18.9618 121.409 21.2996L122.45 19.592ZM108.935 15.7958C104.033 15.7958 99.4967 17.062 95.3476 19.592L96.3888 21.2996C100.221 18.9629 104.396 17.7958 108.935 17.7958V15.7958ZM95.3552 19.5874C91.2168 22.0603 87.9096 25.4198 85.4414 29.6509L87.169 30.6587C89.4701 26.7138 92.5382 23.6006 96.3811 21.3042L95.3552 19.5874ZM85.4369 29.6587C83.0134 33.8998 81.8012 38.4998 81.8012 43.4408H83.8012C83.8012 38.8431 84.9249 34.5858 87.1734 30.6509L85.4369 29.6587ZM81.8012 43.4408C81.8012 48.4285 83.0125 53.0756 85.4344 57.3645L87.1759 56.3811C84.9259 52.3967 83.8012 48.089 83.8012 43.4408H81.8012ZM85.4414 57.3767C87.9086 61.6061 91.2134 64.9878 95.3476 67.5086L96.3888 65.801C92.5416 63.4552 89.4711 60.3155 87.169 56.3689L85.4414 57.3767ZM95.3552 67.5132C99.5018 69.991 104.01 71.2318 108.862 71.2318V69.2318C104.37 69.2318 100.216 68.0879 96.3811 65.7964L95.3552 67.5132ZM158.431 68.3338L157.909 69.1871L158.431 68.3338ZM147.992 57.6758L147.121 58.1679L147.128 58.1791L147.992 57.6758ZM148.065 29.1328L148.927 29.6402L148.929 29.6361L148.065 29.1328ZM158.504 18.6208L159.011 19.4825L159.018 19.4783L158.504 18.6208ZM186.974 18.5478L186.462 19.407V19.407L186.974 18.5478ZM197.267 29.0598L196.399 29.556L196.405 29.5672L197.267 29.0598ZM197.267 57.8948L196.4 57.3956L196.399 57.3987L197.267 57.8948ZM186.901 68.4798L187.413 69.339L187.415 69.3373L186.901 68.4798ZM185.66 66.6548L186.173 67.5132L186.18 67.5086L185.66 66.6548ZM195.15 56.8728L194.284 56.3734L194.282 56.3767L195.15 56.8728ZM195.223 30.1548L196.091 29.6587L195.223 30.1548ZM185.733 20.4458L185.212 21.2996L185.22 21.3042L185.733 20.4458ZM159.672 20.4458L160.185 21.3042L160.193 21.2996L159.672 20.4458ZM150.109 30.1548L149.245 29.6509L149.241 29.6587L150.109 30.1548ZM150.109 56.8728L149.238 57.3646L149.245 57.3767L150.109 56.8728ZM159.672 66.6548L159.151 67.5086L159.159 67.5132L159.672 66.6548ZM172.666 71.3488C167.741 71.3488 163.176 70.0617 158.952 67.4805L157.909 69.1871C162.446 71.9592 167.371 73.3488 172.666 73.3488V71.3488ZM158.952 67.4805C154.714 64.8902 151.352 61.4577 148.856 57.1725L147.128 58.1791C149.791 62.7512 153.388 66.4241 157.909 69.1871L158.952 67.4805ZM148.862 57.1837C146.416 52.8555 145.196 48.2312 145.196 43.2948H143.196C143.196 48.5784 144.506 53.5414 147.121 58.1679L148.862 57.1837ZM145.196 43.2948C145.196 38.4127 146.437 33.8672 148.927 29.6402L147.203 28.6254C144.534 33.1584 143.196 38.0542 143.196 43.2948H145.196ZM148.929 29.6361C151.423 25.3542 154.78 21.9741 159.011 19.4825L157.996 17.7591C153.468 20.4261 149.866 24.0541 147.201 28.6295L148.929 29.6361ZM159.018 19.4783C163.243 16.9436 167.81 15.6788 172.739 15.6788V13.6788C167.448 13.6788 162.525 15.042 157.989 17.7633L159.018 19.4783ZM172.739 15.6788C177.722 15.6788 182.289 16.922 186.462 19.407L187.486 17.6886C182.996 15.0149 178.073 13.6788 172.739 13.6788V15.6788ZM186.462 19.407C190.644 21.897 193.952 25.2752 196.399 29.5559L198.135 28.5637C195.52 23.9871 191.967 20.3573 187.486 17.6886L186.462 19.407ZM196.405 29.5672C198.893 33.7926 200.136 38.3623 200.136 43.2948H202.136C202.136 38.0073 200.799 33.087 198.129 28.5524L196.405 29.5672ZM200.136 43.2948C200.136 48.3787 198.891 53.0728 196.4 57.3956L198.133 58.394C200.802 53.7621 202.136 48.7228 202.136 43.2948H200.136ZM196.399 57.3987C193.953 61.6783 190.62 65.0823 186.386 67.6223L187.415 69.3373C191.942 66.6213 195.519 62.9686 198.135 58.3909L196.399 57.3987ZM186.389 67.6206C182.216 70.1055 177.649 71.3488 172.666 71.3488V73.3488C178 73.3488 182.923 72.0127 187.413 69.339L186.389 67.6206ZM172.666 71.2318C177.518 71.2318 182.026 69.991 186.173 67.5132L185.147 65.7964C181.312 68.0879 177.158 69.2318 172.666 69.2318V71.2318ZM186.18 67.5086C190.316 64.9866 193.599 61.6025 196.018 57.3689L194.282 56.3767C192.029 60.3191 188.985 63.4563 185.139 65.801L186.18 67.5086ZM196.016 57.3722C198.489 53.0822 199.727 48.4324 199.727 43.4408H197.727C197.727 48.0851 196.58 52.39 194.284 56.3734L196.016 57.3722ZM199.727 43.4408C199.727 38.4998 198.515 33.8998 196.091 29.6587L194.355 30.6509C196.603 34.5858 197.727 38.8431 197.727 43.4408H199.727ZM196.091 29.6587C193.671 25.4234 190.386 22.0614 186.246 19.5874L185.22 21.3042C189.061 23.5995 192.103 26.7102 194.355 30.6509L196.091 29.6587ZM186.254 19.592C182.106 17.0631 177.595 15.7958 172.739 15.7958V17.7958C177.227 17.7958 181.378 18.9618 185.212 21.2996L186.254 19.592ZM172.739 15.7958C167.836 15.7958 163.3 17.062 159.151 19.592L160.193 21.2996C164.025 18.9629 168.2 17.7958 172.739 17.7958V15.7958ZM159.159 19.5874C155.021 22.0603 151.713 25.4198 149.245 29.6509L150.973 30.6587C153.274 26.7138 156.342 23.6006 160.185 21.3042L159.159 19.5874ZM149.241 29.6587C146.817 33.8998 145.605 38.4998 145.605 43.4408H147.605C147.605 38.8431 148.729 34.5858 150.977 30.6509L149.241 29.6587ZM145.605 43.4408C145.605 48.4285 146.816 53.0756 149.238 57.3645L150.98 56.3811C148.73 52.3967 147.605 48.089 147.605 43.4408H145.605ZM149.245 57.3767C151.712 61.6061 155.017 64.9878 159.151 67.5086L160.193 65.801C156.345 63.4552 153.275 60.3155 150.973 56.3689L149.245 57.3767ZM159.159 67.5132C163.305 69.991 167.814 71.2318 172.666 71.2318V69.2318C168.174 69.2318 164.02 68.0879 160.185 65.7964L159.159 67.5132ZM213.165 21.6138L213.945 20.9869L212.165 18.7759V21.6138H213.165ZM213.165 70.8888V71.8888H214.165V70.8888H213.165ZM211.048 70.8888H210.048V71.8888H211.048V70.8888ZM211.048 15.3358L211.827 14.7083L210.048 12.5011V15.3358H211.048ZM251.344 65.3408L250.566 65.9683L252.344 68.1755V65.3408H251.344ZM251.344 16.1388V15.1388H250.344V16.1388H251.344ZM253.462 16.1388H254.462V15.1388H253.462V16.1388ZM253.462 71.6918L252.682 72.3187L254.462 74.5297V71.6918H253.462ZM212.165 21.6138V70.8888H214.165V21.6138H212.165ZM213.165 69.8888H211.048V71.8888H213.165V69.8888ZM212.048 70.8888V15.3358H210.048V70.8888H212.048ZM210.27 15.9633L250.566 65.9683L252.123 64.7133L211.827 14.7083L210.27 15.9633ZM252.344 65.3408V16.1388H250.344V65.3408H252.344ZM251.344 17.1388H253.462V15.1388H251.344V17.1388ZM252.462 16.1388V71.6918H254.462V16.1388H252.462ZM254.241 71.0649L213.945 20.9869L212.386 22.2407L252.682 72.3187L254.241 71.0649ZM265.014 16.1388V15.1388H264.014V16.1388H265.014ZM281.293 20.6648L280.592 21.3776L280.598 21.383L281.293 20.6648ZM283.629 42.4188L282.765 41.9159L282.758 41.9278L283.629 42.4188ZM277.424 48.7698L277.922 49.6371L277.934 49.6301L277.424 48.7698ZM268.226 51.0328V50.0328H265.899L267.501 51.721L268.226 51.0328ZM287.06 70.8888V71.8888H289.387L287.786 70.2006L287.06 70.8888ZM283.921 70.8888L283.198 71.579L283.493 71.8888H283.921V70.8888ZM267.35 53.5148L268.074 52.8246L266.35 51.0175V53.5148H267.35ZM267.35 70.8888V71.8888H268.35V70.8888H267.35ZM265.014 70.8888H264.014V71.8888H265.014V70.8888ZM276.256 46.8718L276.768 47.7309L276.256 46.8718ZM281.658 41.3968L282.525 41.8949L282.53 41.8871L281.658 41.3968ZM279.614 22.2708L278.901 22.9714L278.907 22.9779L279.614 22.2708ZM267.35 18.2558V17.2558H266.35V18.2558H267.35ZM267.35 48.9158H266.35V49.9158H267.35V48.9158ZM265.014 17.1388H268.153V15.1388H265.014V17.1388ZM268.153 17.1388C273.673 17.1388 277.767 18.5978 280.592 21.3775L281.995 19.9521C278.687 16.6971 274.022 15.1388 268.153 15.1388V17.1388ZM280.598 21.383C283.465 24.1614 284.965 28.1772 284.965 33.5858H286.965C286.965 27.801 285.35 23.2029 281.989 19.9466L280.598 21.383ZM284.965 33.5858C284.965 36.628 284.23 39.3978 282.765 41.9159L284.494 42.9217C286.143 40.0865 286.965 36.9676 286.965 33.5858H284.965ZM282.758 41.9278C281.335 44.4528 279.391 46.442 276.915 47.9095L277.934 49.6301C280.714 47.9829 282.906 45.7382 284.5 42.9098L282.758 41.9278ZM276.926 47.9025C274.457 49.3203 271.734 50.0328 268.737 50.0328V52.0328C272.067 52.0328 275.136 51.2366 277.922 49.637L276.926 47.9025ZM268.737 50.0328H268.226V52.0328H268.737V50.0328ZM267.501 51.721L286.335 71.577L287.786 70.2006L268.952 50.3446L267.501 51.721ZM287.06 69.8888H283.921V71.8888H287.06V69.8888ZM284.645 70.1986L268.074 52.8246L266.627 54.205L283.198 71.579L284.645 70.1986ZM266.35 53.5148V70.8888H268.35V53.5148H266.35ZM267.35 69.8888H265.014V71.8888H267.35V69.8888ZM266.014 70.8888V16.1388H264.014V70.8888H266.014ZM268.664 49.9158C271.611 49.9158 274.319 49.1897 276.768 47.7309L275.745 46.0127C273.619 47.2792 271.266 47.9158 268.664 47.9158V49.9158ZM276.768 47.7309C279.201 46.2812 281.125 44.3325 282.525 41.8949L280.791 40.8987C279.564 43.0357 277.886 44.737 275.745 46.0127L276.768 47.7309ZM282.53 41.8871C283.933 39.3933 284.629 36.6437 284.629 33.6588H282.629C282.629 36.3192 282.012 38.7283 280.787 40.9065L282.53 41.8871ZM284.629 33.6588C284.629 28.5608 283.237 24.4791 280.321 21.5637L278.907 22.9779C281.345 25.4158 282.629 28.9261 282.629 33.6588H284.629ZM280.328 21.5702C277.459 18.6478 273.396 17.2558 268.299 17.2558V19.2558C273.033 19.2558 276.514 20.5404 278.901 22.9714L280.328 21.5702ZM268.299 17.2558H267.35V19.2558H268.299V17.2558ZM266.35 18.2558V48.9158H268.35V18.2558H266.35ZM267.35 49.9158H268.664V47.9158H267.35V49.9158ZM295.535 16.1388V15.1388H294.535V16.1388H295.535ZM297.944 16.1388H298.944V15.1388H297.944V16.1388ZM297.944 70.8888V71.8888H298.944V70.8888H297.944ZM295.535 70.8888H294.535V71.8888H295.535V70.8888ZM295.535 17.1388H297.944V15.1388H295.535V17.1388ZM296.944 16.1388V70.8888H298.944V16.1388H296.944ZM297.944 69.8888H295.535V71.8888H297.944V69.8888ZM296.535 70.8888V16.1388H294.535V70.8888H296.535ZM307.154 64.3918H306.154V64.6958L306.323 64.9484L307.154 64.3918ZM307.154 60.4498L308.066 60.0394L306.154 60.4498H307.154ZM312.848 67.3118L312.293 68.1439L312.301 68.1488L312.848 67.3118ZM328.616 68.1878L328.161 67.2975L328.152 67.302L328.616 68.1878ZM333.58 63.6618L334.428 64.1918L333.58 63.6618ZM334.237 51.0328L333.332 51.4586L334.237 51.0328ZM330.368 46.2878L329.714 47.0442L329.72 47.0493L329.726 47.0543L330.368 46.2878ZM322.557 40.8128L322.027 41.6608L322.034 41.6649L322.557 40.8128ZM320.221 39.3528L320.751 38.5048L320.744 38.5005L320.221 39.3528ZM315.038 35.8488L314.424 36.6381L315.038 35.8488ZM311.607 32.2718L310.775 32.8265L310.784 32.8399L310.793 32.853L311.607 32.2718ZM331.755 20.1538H332.755V19.805L332.538 19.5319L331.755 20.1538ZM331.755 23.8768L330.878 24.3571L332.755 23.8768H331.755ZM314.6 19.5698L315.274 20.3088V20.3087L314.6 19.5698ZM314.381 32.0528L313.615 32.695L313.624 32.7062L313.634 32.7172L314.381 32.0528ZM322.192 37.8198L322.698 36.9573L322.69 36.9523L322.192 37.8198ZM332.631 44.9738L333.307 44.2366L333.296 44.2265L333.284 44.2166L332.631 44.9738ZM336.427 50.3028L335.499 50.6742L335.503 50.6841L335.507 50.6939L336.427 50.3028ZM335.551 64.7568L336.402 65.2819L335.551 64.7568ZM329.711 70.0858L330.151 70.9837L330.158 70.9803L330.165 70.9767L329.711 70.0858ZM321.316 70.9108C315.563 70.9108 311.155 68.568 307.985 63.8352L306.323 64.9484C309.869 70.2409 314.903 72.9108 321.316 72.9108V70.9108ZM308.154 64.3918V60.4498H306.154V64.3918H308.154ZM306.242 60.8602C307.627 63.9384 309.644 66.3773 312.293 68.1438L313.403 66.4797C311.089 64.937 309.309 62.8012 308.066 60.0394L306.242 60.8602ZM312.301 68.1488C315.019 69.9259 318.233 70.7938 321.9 70.7938V68.7938C318.559 68.7938 315.739 68.007 313.395 66.4748L312.301 68.1488ZM321.9 70.7938C324.486 70.7938 326.885 70.2234 329.08 69.0736L328.152 67.302C326.259 68.2935 324.181 68.7938 321.9 68.7938V70.7938ZM329.072 69.078C331.321 67.9271 333.113 66.2956 334.428 64.1918L332.732 63.1318C331.614 64.9213 330.096 66.3072 328.161 67.2975L329.072 69.078ZM334.428 64.1918C335.754 62.0702 336.405 59.644 336.405 56.9458H334.405C334.405 59.3089 333.839 61.3601 332.732 63.1318L334.428 64.1918ZM336.405 56.9458C336.405 54.5472 335.997 52.4239 335.142 50.607L333.332 51.4586C334.035 52.951 334.405 54.7698 334.405 56.9458H336.405ZM335.142 50.607C334.287 48.7893 332.892 47.0976 331.01 45.5213L329.726 47.0543C331.446 48.4953 332.63 49.967 333.332 51.4586L335.142 50.607ZM331.022 45.5314C329.163 43.923 326.507 42.0654 323.081 39.9607L322.034 41.6649C325.421 43.7455 327.972 45.538 329.714 47.0442L331.022 45.5314ZM323.087 39.9648L320.751 38.5048L319.691 40.2008L322.027 41.6608L323.087 39.9648ZM320.744 38.5005C318.62 37.1971 316.926 36.0505 315.652 35.0594L314.424 36.6381C315.778 37.6911 317.539 38.8805 319.698 40.2051L320.744 38.5005ZM315.652 35.0594C314.415 34.0971 313.338 32.975 312.421 31.6906L310.793 32.853C311.823 34.2939 313.033 35.5564 314.424 36.6381L315.652 35.0594ZM312.439 31.7171C311.293 29.9978 310.709 28.0045 310.709 25.7018H308.709C308.709 28.3631 309.391 30.7497 310.775 32.8265L312.439 31.7171ZM310.709 25.7018C310.709 22.6286 311.691 20.3471 313.575 18.7206L312.268 17.207C309.868 19.2792 308.709 22.1563 308.709 25.7018H310.709ZM313.575 18.7206C315.504 17.0541 317.985 16.1898 321.097 16.1898V14.1898C317.591 14.1898 314.621 15.1748 312.268 17.207L313.575 18.7206ZM321.097 16.1898C325.29 16.1898 328.546 17.7212 330.972 20.7757L332.538 19.5319C329.708 15.9678 325.859 14.1898 321.097 14.1898V16.1898ZM330.755 20.1538V23.8768H332.755V20.1538H330.755ZM332.632 23.3965C331.43 21.2011 329.774 19.4631 327.671 18.2013L326.642 19.9163C328.432 20.9905 329.842 22.4645 330.878 24.3571L332.632 23.3965ZM327.671 18.2013C325.564 16.9373 323.244 16.3068 320.732 16.3068V18.3068C322.892 18.3068 324.855 18.8443 326.642 19.9163L327.671 18.2013ZM320.732 16.3068C318.073 16.3068 315.782 17.139 313.926 18.8308L315.274 20.3087C316.728 18.9832 318.525 18.3068 320.732 18.3068V16.3068ZM313.926 18.8308C312.036 20.5547 311.118 22.8574 311.118 25.6288H313.118C313.118 23.3389 313.855 21.6023 315.274 20.3088L313.926 18.8308ZM311.118 25.6288C311.118 28.3313 311.946 30.7036 313.615 32.695L315.148 31.4106C313.799 29.8006 313.118 27.8903 313.118 25.6288H311.118ZM313.634 32.7172C315.299 34.5901 318.013 36.5765 321.695 38.6873L322.69 36.9523C319.071 34.8778 316.578 33.0195 315.129 31.3884L313.634 32.7172ZM321.686 38.6822C326.138 41.2951 329.56 43.645 331.978 45.7309L333.284 44.2166C330.738 42.0199 327.201 39.6005 322.698 36.9574L321.686 38.6822ZM331.955 45.7109C333.612 47.2291 334.783 48.8844 335.499 50.6742L337.356 49.9314C336.514 47.8278 335.155 45.9304 333.307 44.2366L331.955 45.7109ZM335.507 50.6939C336.275 52.5021 336.668 54.5324 336.668 56.7998H338.668C338.668 54.2978 338.234 51.9968 337.347 49.9117L335.507 50.6939ZM336.668 56.7998C336.668 59.655 336.002 62.121 334.7 64.2317L336.402 65.2819C337.922 62.818 338.668 59.9792 338.668 56.7998H336.668ZM334.7 64.2317C333.389 66.3571 331.582 68.0096 329.257 69.1949L330.165 70.9767C332.804 69.6313 334.891 67.7311 336.402 65.2819L334.7 64.2317ZM329.271 69.1879C326.942 70.3293 324.298 70.9108 321.316 70.9108V72.9108C324.564 72.9108 327.516 72.2756 330.151 70.9837L329.271 69.1879ZM346.498 16.1388V15.1388H345.498V16.1388H346.498ZM366.135 16.1388H367.135V15.1388H366.135V16.1388ZM366.135 18.2558V19.2558H367.135V18.2558H366.135ZM348.907 18.2558V17.2558H347.907V18.2558H348.907ZM348.907 48.0398H347.907V49.0398H348.907V48.0398ZM363.288 48.0398H364.288V47.0398H363.288V48.0398ZM363.288 50.1568V51.1568H364.288V50.1568H363.288ZM348.907 50.1568V49.1568H347.907V50.1568H348.907ZM348.907 68.7718H347.907V69.7718H348.907V68.7718ZM366.135 68.7718H367.135V67.7718H366.135V68.7718ZM366.135 70.8888V71.8888H367.135V70.8888H366.135ZM346.498 70.8888H345.498V71.8888H346.498V70.8888ZM346.498 17.1388H366.135V15.1388H346.498V17.1388ZM365.135 16.1388V18.2558H367.135V16.1388H365.135ZM366.135 17.2558H348.907V19.2558H366.135V17.2558ZM347.907 18.2558V48.0398H349.907V18.2558H347.907ZM348.907 49.0398H363.288V47.0398H348.907V49.0398ZM362.288 48.0398V50.1568H364.288V48.0398H362.288ZM363.288 49.1568H348.907V51.1568H363.288V49.1568ZM347.907 50.1568V68.7718H349.907V50.1568H347.907ZM348.907 69.7718H366.135V67.7718H348.907V69.7718ZM365.135 68.7718V70.8888H367.135V68.7718H365.135ZM366.135 69.8888H346.498V71.8888H366.135V69.8888ZM347.498 70.8888V16.1388H345.498V70.8888H347.498ZM395.389 69.5748L394.892 70.4421L394.898 70.4459L395.389 69.5748ZM389.111 63.3698L389.972 62.86L389.111 63.3698ZM389.111 45.9958L389.968 46.5127L389.972 46.5056L389.111 45.9958ZM395.462 39.7178L394.966 38.8495L394.96 38.8534L395.462 39.7178ZM411.449 38.6958L411.86 37.7839L411.449 38.6958ZM417.143 42.7838H418.143V42.3696L417.851 42.0767L417.143 42.7838ZM417.143 46.7258L416.314 47.2844L418.143 50.0008V46.7258H417.143ZM411.741 41.3238L411.196 42.1622L411.209 42.1701L411.221 42.1776L411.741 41.3238ZM396.849 41.5428L397.353 42.4066L397.359 42.4034L396.849 41.5428ZM391.228 47.0908L392.084 47.6079L391.228 47.0908ZM391.155 62.4938L390.292 62.9977L390.296 63.0056L391.155 62.4938ZM396.63 67.8958L396.132 68.7629L396.143 68.7691L396.154 68.7751L396.63 67.8958ZM417.143 62.4208H418.143V59.0624L416.306 61.8738L417.143 62.4208ZM417.143 66.3628L417.869 67.0505L418.143 66.7613V66.3628H417.143ZM411.303 70.5238L411.69 71.4463L411.7 71.4419L411.303 70.5238ZM404.149 70.8378C401.153 70.8378 398.403 70.1253 395.88 68.7036L394.898 70.4459C397.73 72.0416 400.819 72.8378 404.149 72.8378V70.8378ZM395.887 68.7075C393.41 67.2855 391.442 65.3408 389.972 62.86L388.251 63.8796C389.896 66.6548 392.113 68.8468 394.892 70.442L395.887 68.7075ZM389.972 62.86C388.513 60.3991 387.775 57.6092 387.775 54.4638H385.775C385.775 57.9371 386.595 61.0845 388.251 63.8796L389.972 62.86ZM387.775 54.4638C387.775 51.5766 388.506 48.9332 389.968 46.5127L388.255 45.4789C386.602 48.2171 385.775 51.219 385.775 54.4638H387.775ZM389.972 46.5056C391.441 44.0264 393.434 42.0549 395.965 40.5821L394.96 38.8534C392.138 40.4953 389.897 42.7092 388.251 45.486L389.972 46.5056ZM395.959 40.586C398.527 39.1185 401.348 38.3818 404.441 38.3818V36.3818C401.014 36.3818 397.849 37.2024 394.966 38.8495L395.959 40.586ZM404.441 38.3818C407.063 38.3818 409.252 38.8035 411.039 39.6077L411.86 37.7839C409.754 36.8361 407.271 36.3818 404.441 36.3818V38.3818ZM411.039 39.6077C412.853 40.4242 414.654 41.7086 416.436 43.4909L417.851 42.0767C415.934 40.1603 413.939 38.7194 411.86 37.7839L411.039 39.6077ZM416.143 42.7838V46.7258H418.143V42.7838H416.143ZM417.973 46.1672C416.305 43.6899 414.405 41.7769 412.262 40.47L411.221 42.1776C413.068 43.304 414.77 44.9924 416.314 47.2844L417.973 46.1672ZM412.286 40.4853C410.14 39.0904 407.505 38.4258 404.441 38.4258V40.4258C407.218 40.4258 409.449 41.0265 411.196 42.1622L412.286 40.4853ZM404.441 38.4258C401.579 38.4258 398.873 39.183 396.34 40.6822L397.359 42.4034C399.595 41.0799 401.951 40.4258 404.441 40.4258V38.4258ZM396.346 40.679C393.864 42.1268 391.87 44.0959 390.373 46.5737L392.084 47.6079C393.41 45.4137 395.163 43.6841 397.353 42.4066L396.346 40.679ZM390.373 46.5737C388.869 49.0625 388.111 51.7471 388.111 54.6098H390.111C390.111 52.1191 390.765 49.7911 392.084 47.6079L390.373 46.5737ZM388.111 54.6098C388.111 57.6923 388.833 60.4966 390.292 62.9977L392.019 61.9899C390.753 59.819 390.111 57.3673 390.111 54.6098H388.111ZM390.296 63.0056C391.746 65.4389 393.695 67.3626 396.132 68.7629L397.129 67.0287C394.992 65.801 393.29 64.1233 392.015 61.982L390.296 63.0056ZM396.154 68.7751C398.638 70.1203 401.308 70.7938 404.149 70.7938V68.7938C401.638 68.7938 399.295 68.202 397.107 67.0165L396.154 68.7751ZM404.149 70.7938C409.968 70.7938 414.601 68.1398 417.981 62.9678L416.306 61.8738C413.262 66.5325 409.233 68.7938 404.149 68.7938V70.7938ZM416.143 62.4208V66.3628H418.143V62.4208H416.143ZM416.418 65.675C414.75 67.4352 412.913 68.7395 410.907 69.6057L411.7 71.4419C413.977 70.4587 416.033 68.989 417.869 67.0505L416.418 65.675ZM410.917 69.6014C408.967 70.4178 406.717 70.8378 404.149 70.8378V72.8378C406.935 72.8378 409.455 72.3818 411.69 71.4462L410.917 69.6014ZM430.961 69.6478L430.435 70.4985L430.447 70.5053L430.961 69.6478ZM424.683 63.1508L423.808 63.6351L423.812 63.6418L424.683 63.1508ZM424.683 45.6308L423.819 45.1279L423.812 45.1398L424.683 45.6308ZM430.961 39.2798L431.471 40.1401L431.475 40.1373L430.961 39.2798ZM448.627 39.2798L448.106 40.1331L448.115 40.1387L448.124 40.1441L448.627 39.2798ZM454.978 63.2968L455.856 63.7757L455.859 63.769L454.978 63.2968ZM448.846 69.7208L449.363 70.5769L449.367 70.5741L448.846 69.7208ZM447.532 67.8958L447.007 67.0448V67.0448L447.532 67.8958ZM452.861 62.2748L451.985 61.7922L451.982 61.7985L452.861 62.2748ZM452.861 46.7258L453.737 46.2432L452.861 46.7258ZM447.459 41.0318L446.934 41.8828L447.459 41.0318ZM432.202 41.1048L432.727 41.9558L432.732 41.9528L432.202 41.1048ZM426.727 46.7988L425.859 46.3027L425.855 46.3094L425.851 46.3162L426.727 46.7988ZM426.727 62.2748L425.851 62.7574L425.857 62.7681L425.863 62.7787L426.727 62.2748ZM432.202 67.8958L431.677 68.7469L431.685 68.7517L432.202 67.8958ZM439.94 71.0568C436.801 71.0568 433.987 70.2974 431.475 68.7903L430.447 70.5053C433.288 72.2102 436.461 73.0568 439.94 73.0568V71.0568ZM431.487 68.7972C428.95 67.2291 426.978 65.1857 425.554 62.6598L423.812 63.6418C425.405 66.4692 427.618 68.7572 430.435 70.4984L431.487 68.7972ZM425.558 62.6665C424.133 60.0918 423.42 57.3144 423.42 54.3178H421.42C421.42 57.6478 422.216 60.7592 423.808 63.6351L425.558 62.6665ZM423.42 54.3178C423.42 51.3727 424.131 48.6465 425.554 46.1218L423.812 45.1398C422.217 47.9684 421.42 51.0336 421.42 54.3178H423.42ZM425.547 46.1337C427.02 43.6023 428.992 41.6092 431.471 40.1401L430.451 38.4195C427.674 40.065 425.461 42.3059 423.819 45.1279L425.547 46.1337ZM431.475 40.1373C433.99 38.6288 436.779 37.8708 439.867 37.8708V35.8708C436.434 35.8708 433.286 36.7188 430.447 38.4223L431.475 40.1373ZM439.867 37.8708C442.903 37.8708 445.641 38.6272 448.106 40.1331L449.148 38.4265C446.357 36.7203 443.255 35.8708 439.867 35.8708V37.8708ZM448.124 40.1441C450.648 41.6127 452.613 43.6014 454.034 46.1218L455.776 45.1398C454.179 42.3068 451.959 40.0615 449.13 38.4154L448.124 40.1441ZM454.034 46.1218C455.457 48.6465 456.168 51.3727 456.168 54.3178H458.168C458.168 51.0336 457.37 47.9684 455.776 45.1398L454.034 46.1218ZM456.168 54.3178C456.168 57.423 455.474 60.2525 454.097 62.8246L455.859 63.769C457.402 60.8905 458.168 57.7339 458.168 54.3178H456.168ZM454.1 62.8179C452.725 65.3391 450.805 67.352 448.325 68.8675L449.367 70.5741C452.143 68.8776 454.311 66.6078 455.856 63.7756L454.1 62.8179ZM448.329 68.8647C445.923 70.3174 443.137 71.0568 439.94 71.0568V73.0568C443.459 73.0568 446.61 72.2389 449.363 70.5769L448.329 68.8647ZM439.94 71.0128C442.893 71.0128 445.607 70.2588 448.057 68.7468L447.007 67.0448C444.883 68.3555 442.535 69.0128 439.94 69.0128V71.0128ZM448.057 68.7468C450.491 67.2448 452.391 65.2427 453.74 62.7511L451.982 61.7985C450.801 63.9789 449.147 65.7241 447.007 67.0448L448.057 68.7468ZM453.737 62.7574C455.135 60.2194 455.832 57.4488 455.832 54.4638H453.832C453.832 57.1241 453.215 59.5609 451.985 61.7922L453.737 62.7574ZM455.832 54.4638C455.832 51.5243 455.134 48.7785 453.737 46.2432L451.985 47.2084C453.216 49.4424 453.832 51.8552 453.832 54.4638H455.832ZM453.737 46.2432C452.341 43.7096 450.42 41.6838 447.984 40.1808L446.934 41.8828C449.073 43.2024 450.753 44.9727 451.985 47.2084L453.737 46.2432ZM447.984 40.1808C445.534 38.6688 442.82 37.9148 439.867 37.9148V39.9148C442.462 39.9148 444.81 40.5721 446.934 41.8828L447.984 40.1808ZM439.867 37.9148C436.907 37.9148 434.168 38.6967 431.672 40.2568L432.732 41.9528C434.908 40.5929 437.279 39.9148 439.867 39.9148V37.9148ZM431.677 40.2538C429.244 41.7548 427.302 43.7762 425.859 46.3027L427.595 47.2949C428.877 45.0521 430.585 43.2774 432.727 41.9558L431.677 40.2538ZM425.851 46.3162C424.454 48.8515 423.756 51.5973 423.756 54.5368H425.756C425.756 51.9282 426.372 49.5154 427.603 47.2814L425.851 46.3162ZM423.756 54.5368C423.756 57.4762 424.454 60.222 425.851 62.7574L427.603 61.7922C426.372 59.5582 425.756 57.1453 425.756 54.5368H423.756ZM425.863 62.7787C427.308 65.2555 429.249 67.2488 431.677 68.7468L432.727 67.0448C430.58 65.7202 428.871 63.9661 427.591 61.7709L425.863 62.7787ZM431.685 68.7517C434.182 70.2606 436.942 71.0128 439.94 71.0128V69.0128C437.293 69.0128 434.894 68.3536 432.719 67.0399L431.685 68.7517ZM494.165 26.3588V27.3588H495.165V26.3588H494.165ZM489.055 27.7458L489.545 28.6174L489.555 28.6116L489.565 28.6056L489.055 27.7458ZM485.332 31.4688L484.465 30.9698L484.46 30.9785L485.332 31.4688ZM484.018 38.0388H483.018V39.0388H484.018V38.0388ZM494.165 38.0388H495.165V37.0388H494.165V38.0388ZM494.165 40.0828V41.0828H495.165V40.0828H494.165ZM484.018 40.0828V39.0828H483.018V40.0828H484.018ZM484.018 70.8888V71.8888H485.018V70.8888H484.018ZM481.682 70.8888H480.682V71.8888H481.682V70.8888ZM481.682 40.0828H482.682V39.0828H481.682V40.0828ZM466.79 40.0828V39.0828H465.79V40.0828H466.79ZM466.79 70.8888V71.8888H467.79V70.8888H466.79ZM464.454 70.8888H463.454V71.8888H464.454V70.8888ZM466.06 30.4468L465.198 29.9388L465.194 29.9458L466.06 30.4468ZM470.586 25.9938L471.077 26.8648L471.084 26.8607L470.586 25.9938ZM476.937 24.3148H477.937V23.3148H476.937V24.3148ZM476.937 26.3588V27.3588H477.937V26.3588H476.937ZM471.827 27.7458L472.317 28.6174L472.327 28.6116L472.337 28.6056L471.827 27.7458ZM468.104 31.4688L467.237 30.9698L467.232 30.9785L468.104 31.4688ZM466.79 38.0388H465.79V39.0388H466.79V38.0388ZM481.682 38.0388V39.0388H482.682V38.0388H481.682ZM483.288 30.4468L482.426 29.9388L482.422 29.9458L483.288 30.4468ZM487.814 25.9938L488.305 26.8648L488.312 26.8607L487.814 25.9938ZM494.165 24.3148H495.165V23.3148H494.165V24.3148ZM494.165 25.3588C492.14 25.3588 490.259 25.8675 488.544 26.8859L489.565 28.6056C490.965 27.7747 492.491 27.3588 494.165 27.3588V25.3588ZM488.564 26.8742C486.845 27.8417 485.476 29.2141 484.465 30.9698L486.198 31.9678C487.037 30.5115 488.15 29.4019 489.545 28.6174L488.564 26.8742ZM484.46 30.9785C483.495 32.6949 483.018 34.5931 483.018 36.6518H485.018C485.018 34.9145 485.417 33.3574 486.203 31.9591L484.46 30.9785ZM483.018 36.6518V38.0388H485.018V36.6518H483.018ZM484.018 39.0388H494.165V37.0388H484.018V39.0388ZM493.165 38.0388V40.0828H495.165V38.0388H493.165ZM494.165 39.0828H484.018V41.0828H494.165V39.0828ZM483.018 40.0828V70.8888H485.018V40.0828H483.018ZM484.018 69.8888H481.682V71.8888H484.018V69.8888ZM482.682 70.8888V40.0828H480.682V70.8888H482.682ZM481.682 39.0828H466.79V41.0828H481.682V39.0828ZM465.79 40.0828V70.8888H467.79V40.0828H465.79ZM466.79 69.8888H464.454V71.8888H466.79V69.8888ZM465.454 70.8888V36.6518H463.454V70.8888H465.454ZM465.454 36.6518C465.454 34.5276 465.949 32.6342 466.925 30.9478L465.194 29.9458C464.029 31.9581 463.454 34.2013 463.454 36.6518H465.454ZM466.921 30.9548C467.952 29.2064 469.334 27.8481 471.077 26.8648L470.094 25.1228C468.042 26.2809 466.406 27.8912 465.198 29.9388L466.921 30.9548ZM471.084 26.8607C472.876 25.8303 474.821 25.3148 476.937 25.3148V23.3148C474.478 23.3148 472.189 23.9187 470.087 25.1269L471.084 26.8607ZM475.937 24.3148V26.3588H477.937V24.3148H475.937ZM476.937 25.3588C474.912 25.3588 473.031 25.8675 471.316 26.8859L472.337 28.6056C473.737 27.7747 475.263 27.3588 476.937 27.3588V25.3588ZM471.336 26.8742C469.617 27.8417 468.248 29.2141 467.237 30.9698L468.97 31.9678C469.809 30.5115 470.922 29.4019 472.317 28.6174L471.336 26.8742ZM467.232 30.9785C466.267 32.6949 465.79 34.5931 465.79 36.6518H467.79C467.79 34.9145 468.189 33.3574 468.975 31.9591L467.232 30.9785ZM465.79 36.6518V38.0388H467.79V36.6518H465.79ZM466.79 39.0388H481.682V37.0388H466.79V39.0388ZM482.682 38.0388V36.6518H480.682V38.0388H482.682ZM482.682 36.6518C482.682 34.5276 483.177 32.6342 484.153 30.9478L482.422 29.9458C481.257 31.9581 480.682 34.2013 480.682 36.6518H482.682ZM484.149 30.9548C485.18 29.2064 486.562 27.8481 488.305 26.8648L487.322 25.1228C485.27 26.2809 483.634 27.8912 482.426 29.9388L484.149 30.9548ZM488.312 26.8607C490.104 25.8303 492.049 25.3148 494.165 25.3148V23.3148C491.706 23.3148 489.417 23.9187 487.315 25.1269L488.312 26.8607ZM493.165 24.3148V26.3588H495.165V24.3148H493.165ZM523.597 67.7498L523.099 66.8827L523.597 67.7498ZM529.291 62.3478H530.291V59.0154L528.457 61.7972L529.291 62.3478ZM529.291 66.0708L530.034 66.7408L530.291 66.4553V66.0708H529.291ZM523.378 70.4508L523.757 71.3763L523.766 71.3727L523.775 71.3689L523.378 70.4508ZM507.537 69.3558L507.016 70.2091L507.023 70.2133L507.537 69.3558ZM501.186 62.9318L500.322 63.4347L500.329 63.4463L501.186 62.9318ZM501.186 45.6308L502.043 46.1477L502.047 46.1406L501.186 45.6308ZM507.537 39.4988L507.065 38.6173L507.059 38.6209L507.537 39.4988ZM529.51 43.2948L530.213 44.0064L530.889 43.3392L530.257 42.6299L529.51 43.2948ZM506.588 65.9248L505.886 65.2132L505.094 65.9945L505.955 66.6988L506.588 65.9248ZM511.26 68.8448L510.874 69.767L510.887 69.7724L510.899 69.7774L511.26 68.8448ZM505.201 64.5378L504.47 65.2197L505.174 65.9747L505.906 65.2473L505.201 64.5378ZM526.59 43.2948L527.295 44.0043L528.055 43.2501L527.251 42.5436L526.59 43.2948ZM521.918 40.3018L521.532 41.224L521.544 41.2294L521.557 41.2344L521.918 40.3018ZM508.559 41.3238L509.043 42.1988L509.05 42.1954L508.559 41.3238ZM503.157 46.5798L502.295 46.0736L503.157 46.5798ZM516.37 70.7208C519.083 70.7208 521.663 70.0141 524.096 68.6169L523.099 66.8827C520.957 68.1135 518.719 68.7208 516.37 68.7208V70.7208ZM524.096 68.6169C526.524 67.2221 528.535 65.3109 530.126 62.8984L528.457 61.7972C527.031 63.9594 525.246 65.6495 523.099 66.8827L524.096 68.6169ZM528.291 62.3478V66.0708H530.291V62.3478H528.291ZM528.549 65.4008C526.83 67.3058 524.973 68.673 522.982 69.5327L523.775 71.3689C526.067 70.3792 528.152 68.8265 530.034 66.7408L528.549 65.4008ZM523 69.5252C520.998 70.3442 518.697 70.7648 516.078 70.7648V72.7648C518.911 72.7648 521.476 72.3094 523.757 71.3763L523 69.5252ZM516.078 70.7648C513.249 70.7648 510.579 70.0144 508.052 68.4983L507.023 70.2133C509.849 71.9092 512.873 72.7648 516.078 72.7648V70.7648ZM508.059 68.5025C505.571 66.9818 503.568 64.9575 502.044 62.4173L500.329 63.4463C502.017 66.2594 504.248 68.5177 507.016 70.2091L508.059 68.5025ZM502.051 62.4289C500.58 59.9007 499.85 57.2267 499.85 54.3908H497.85C497.85 57.5896 498.678 60.6095 500.322 63.4347L502.051 62.4289ZM499.85 54.3908C499.85 51.2968 500.587 48.5583 502.042 46.1477L500.33 45.1139C498.671 47.862 497.85 50.9635 497.85 54.3908H499.85ZM502.047 46.1406C503.513 43.6671 505.498 41.7504 508.016 40.3767L507.059 38.6209C504.224 40.1672 501.975 42.3385 500.326 45.121L502.047 46.1406ZM508.01 40.3803C510.58 39.0035 513.433 38.3088 516.589 38.3088V36.3088C513.127 36.3088 509.946 37.0741 507.065 38.6173L508.01 40.3803ZM516.589 38.3088C521.348 38.3088 525.389 40.1688 528.763 43.9597L530.257 42.6299C526.527 38.4395 521.954 36.3088 516.589 36.3088V38.3088ZM528.808 42.5832L505.886 65.2132L507.291 66.6364L530.213 44.0064L528.808 42.5832ZM505.955 66.6988C507.617 68.0583 509.256 69.0886 510.874 69.767L511.647 67.9226C510.247 67.3356 508.772 66.4193 507.222 65.1508L505.955 66.6988ZM510.899 69.7774C512.541 70.4129 514.37 70.7208 516.37 70.7208V68.7208C514.575 68.7208 512.997 68.4447 511.621 67.9122L510.899 69.7774ZM500.186 54.1718C500.186 58.4561 501.615 62.1574 504.47 65.2197L505.933 63.8559C503.434 61.1756 502.186 57.9662 502.186 54.1718H500.186ZM505.906 65.2473L527.295 44.0043L525.886 42.5853L504.497 63.8283L505.906 65.2473ZM527.251 42.5436C525.583 41.0782 523.927 40.0068 522.279 39.3692L521.557 41.2344C522.928 41.7647 524.386 42.6887 525.93 44.046L527.251 42.5436ZM522.305 39.3796C520.645 38.6834 518.706 38.3528 516.516 38.3528V40.3528C518.512 40.3528 520.174 40.6548 521.532 41.224L522.305 39.3796ZM516.516 38.3528C513.395 38.3528 510.57 39.0452 508.069 40.4522L509.05 42.1954C511.22 40.9744 513.701 40.3528 516.516 40.3528V38.3528ZM508.075 40.4488C505.632 41.8003 503.7 43.6791 502.295 46.0736L504.02 47.086C505.242 45.0031 506.912 43.378 509.043 42.1988L508.075 40.4488ZM502.295 46.0736C500.883 48.479 500.186 51.1872 500.186 54.1718H502.186C502.186 51.511 502.804 49.1579 504.02 47.086L502.295 46.0736ZM560.026 67.7498L559.528 66.8827L560.026 67.7498ZM565.72 62.3478H566.72V59.0154L564.885 61.7972L565.72 62.3478ZM565.72 66.0708L566.463 66.7408L566.72 66.4553V66.0708H565.72ZM559.807 70.4508L560.186 71.3763L560.195 71.3727L560.204 71.3689L559.807 70.4508ZM543.966 69.3558L543.445 70.2091L543.452 70.2133L543.966 69.3558ZM537.615 62.9318L536.751 63.4347L536.758 63.4463L537.615 62.9318ZM537.615 45.6308L538.471 46.1477L538.475 46.1406L537.615 45.6308ZM543.966 39.4988L543.494 38.6173L543.487 38.6209L543.966 39.4988ZM565.939 43.2948L566.642 44.0064L567.318 43.3392L566.686 42.6299L565.939 43.2948ZM543.017 65.9248L542.315 65.2132L541.523 65.9945L542.384 66.6988L543.017 65.9248ZM547.689 68.8448L547.302 69.767L547.315 69.7724L547.328 69.7774L547.689 68.8448ZM541.63 64.5378L540.899 65.2197L541.602 65.9747L542.335 65.2473L541.63 64.5378ZM563.019 43.2948L563.724 44.0043L564.483 43.2501L563.679 42.5436L563.019 43.2948ZM558.347 40.3018L557.96 41.224L557.973 41.2294L557.986 41.2344L558.347 40.3018ZM544.988 41.3238L545.472 42.1988L545.478 42.1954L544.988 41.3238ZM539.586 46.5798L538.724 46.0736L539.586 46.5798ZM552.799 70.7208C555.512 70.7208 558.092 70.0141 560.524 68.6169L559.528 66.8827C557.386 68.1135 555.147 68.7208 552.799 68.7208V70.7208ZM560.524 68.6169C562.952 67.2221 564.964 65.3109 566.555 62.8984L564.885 61.7972C563.459 63.9594 561.675 65.6495 559.528 66.8827L560.524 68.6169ZM564.72 62.3478V66.0708H566.72V62.3478H564.72ZM564.978 65.4008C563.259 67.3058 561.402 68.673 559.411 69.5327L560.204 71.3689C562.495 70.3792 564.58 68.8265 566.463 66.7408L564.978 65.4008ZM559.429 69.5252C557.427 70.3442 555.125 70.7648 552.507 70.7648V72.7648C555.34 72.7648 557.905 72.3094 560.186 71.3763L559.429 69.5252ZM552.507 70.7648C549.677 70.7648 547.008 70.0144 544.481 68.4983L543.452 70.2133C546.278 71.9092 549.302 72.7648 552.507 72.7648V70.7648ZM544.488 68.5025C541.999 66.9818 539.997 64.9575 538.473 62.4173L536.758 63.4463C538.445 66.2594 540.677 68.5177 543.445 70.2091L544.488 68.5025ZM538.479 62.4289C537.009 59.9007 536.279 57.2267 536.279 54.3908H534.279C534.279 57.5896 535.107 60.6095 536.751 63.4347L538.479 62.4289ZM536.279 54.3908C536.279 51.2968 537.016 48.5583 538.471 46.1477L536.759 45.1139C535.1 47.862 534.279 50.9635 534.279 54.3908H536.279ZM538.475 46.1406C539.941 43.6671 541.927 41.7504 544.445 40.3767L543.487 38.6209C540.652 40.1672 538.404 42.3385 536.755 45.121L538.475 46.1406ZM544.438 40.3803C547.008 39.0035 549.862 38.3088 553.018 38.3088V36.3088C549.556 36.3088 546.375 37.0741 543.494 38.6173L544.438 40.3803ZM553.018 38.3088C557.777 38.3088 561.817 40.1688 565.192 43.9597L566.686 42.6299C562.956 38.4395 558.382 36.3088 553.018 36.3088V38.3088ZM565.237 42.5832L542.315 65.2132L543.72 66.6364L566.642 44.0064L565.237 42.5832ZM542.384 66.6988C544.046 68.0583 545.685 69.0886 547.302 69.767L548.076 67.9226C546.676 67.3356 545.201 66.4193 543.65 65.1508L542.384 66.6988ZM547.328 69.7774C548.97 70.4129 550.799 70.7208 552.799 70.7208V68.7208C551.004 68.7208 549.426 68.4447 548.05 67.9122L547.328 69.7774ZM536.615 54.1718C536.615 58.4561 538.044 62.1574 540.899 65.2197L542.362 63.8559C539.863 61.1756 538.615 57.9662 538.615 54.1718H536.615ZM542.335 65.2473L563.724 44.0043L562.314 42.5853L540.925 63.8283L542.335 65.2473ZM563.679 42.5436C562.012 41.0782 560.355 40.0068 558.708 39.3692L557.986 41.2344C559.356 41.7647 560.815 42.6887 562.359 44.046L563.679 42.5436ZM558.734 39.3796C557.074 38.6834 555.135 38.3528 552.945 38.3528V40.3528C554.941 40.3528 556.603 40.6548 557.96 41.224L558.734 39.3796ZM552.945 38.3528C549.824 38.3528 546.999 39.0452 544.498 40.4522L545.478 42.1954C547.649 40.9744 550.129 40.3528 552.945 40.3528V38.3528ZM544.504 40.4488C542.061 41.8003 540.129 43.6791 538.724 46.0736L540.449 47.086C541.671 45.0031 543.341 43.378 545.472 42.1988L544.504 40.4488ZM538.724 46.0736C537.312 48.479 536.615 51.1872 536.615 54.1718H538.615C538.615 51.511 539.232 49.1579 540.449 47.086L538.724 46.0736Z" fill="#9B5D4E" mask="url(#path-2-outside-1_2029_23)"/>
</g>
<defs>
<linearGradient id="paint0_linear_2029_23" x1="36.276" y1="43.3888" x2="554.913" y2="57.5217" gradientUnits="userSpaceOnUse">
<stop stop-color="#9B5D4E"/>
<stop offset="1" stop-color="#4E352B"/>
</linearGradient>
<clipPath id="clip0_2029_23">
<rect width="583.709" height="100.184" fill="white" transform="translate(0.389648 0.888794)"/>
</clipPath>
</defs>
</svg>
