<svg width="31" height="30" viewBox="0 0 31 30" fill="none" xmlns="http://www.w3.org/2000/svg">
<path d="M16.5928 2.5C17.9991 2.50375 18.7129 2.51125 19.3291 2.52875L19.5716 2.5375C19.8516 2.5475 20.1278 2.56 20.4616 2.575C21.7916 2.6375 22.6991 2.8475 23.4953 3.15625C24.3204 3.47375 25.0154 3.90375 25.7104 4.5975C26.346 5.22237 26.8378 5.97824 27.1516 6.8125C27.4604 7.60875 27.6704 8.51625 27.7329 9.8475C27.7479 10.18 27.7604 10.4563 27.7704 10.7375L27.7779 10.98C27.7966 11.595 27.8041 12.3088 27.8066 13.715L27.8079 14.6475V16.285C27.8109 17.1968 27.8013 18.1085 27.7791 19.02L27.7716 19.2625C27.7616 19.5437 27.7491 19.82 27.7341 20.1525C27.6716 21.4837 27.4591 22.39 27.1516 23.1875C26.8387 24.0222 26.3468 24.7783 25.7104 25.4025C25.0853 26.0379 24.3295 26.5297 23.4953 26.8438C22.6991 27.1525 21.7916 27.3625 20.4616 27.425C20.165 27.439 19.8683 27.4515 19.5716 27.4625L19.3291 27.47C18.7129 27.4875 17.9991 27.4963 16.5928 27.4988L15.6603 27.5H14.0241C13.1119 27.5031 12.1998 27.4936 11.2879 27.4712L11.0454 27.4638C10.7486 27.4525 10.4519 27.4396 10.1553 27.425C8.82535 27.3625 7.91785 27.1525 7.12035 26.8438C6.28619 26.5305 5.53062 26.0386 4.9066 25.4025C4.27041 24.7779 3.77813 24.0219 3.4641 23.1875C3.15535 22.3912 2.94535 21.4837 2.88285 20.1525C2.86892 19.8559 2.85642 19.5592 2.84535 19.2625L2.8391 19.02C2.81607 18.1085 2.80565 17.1968 2.80785 16.285V13.715C2.80436 12.8033 2.81353 11.8915 2.83535 10.98L2.8441 10.7375C2.8541 10.4563 2.8666 10.18 2.8816 9.8475C2.9441 8.51625 3.1541 7.61 3.46285 6.8125C3.77674 5.97738 4.27 5.22128 4.90785 4.5975C5.53171 3.96184 6.28678 3.46998 7.12035 3.15625C7.91785 2.8475 8.8241 2.6375 10.1553 2.575C10.4878 2.56 10.7654 2.5475 11.0454 2.5375L11.2879 2.53C12.1993 2.50779 13.1111 2.49821 14.0229 2.50125L16.5928 2.5ZM15.3078 8.75C13.6502 8.75 12.0605 9.40848 10.8884 10.5806C9.71633 11.7527 9.05785 13.3424 9.05785 15C9.05785 16.6576 9.71633 18.2473 10.8884 19.4194C12.0605 20.5915 13.6502 21.25 15.3078 21.25C16.9655 21.25 18.5552 20.5915 19.7273 19.4194C20.8994 18.2473 21.5578 16.6576 21.5578 15C21.5578 13.3424 20.8994 11.7527 19.7273 10.5806C18.5552 9.40848 16.9655 8.75 15.3078 8.75ZM15.3078 11.25C15.8003 11.2499 16.288 11.3468 16.743 11.5352C17.198 11.7236 17.6114 11.9997 17.9597 12.3479C18.308 12.6961 18.5843 13.1094 18.7728 13.5644C18.9613 14.0193 19.0584 14.5069 19.0585 14.9994C19.0586 15.4918 18.9616 15.9795 18.7733 16.4345C18.5849 16.8895 18.3087 17.3029 17.9606 17.6512C17.6124 17.9995 17.1991 18.2758 16.7441 18.4643C16.2892 18.6528 15.8016 18.7499 15.3091 18.75C14.3145 18.75 13.3607 18.3549 12.6574 17.6517C11.9542 16.9484 11.5591 15.9946 11.5591 15C11.5591 14.0054 11.9542 13.0516 12.6574 12.3483C13.3607 11.6451 14.3145 11.25 15.3091 11.25M21.8716 6.875C21.4572 6.875 21.0598 7.03962 20.7667 7.33265C20.4737 7.62567 20.3091 8.0231 20.3091 8.4375C20.3091 8.8519 20.4737 9.24933 20.7667 9.54235C21.0598 9.83538 21.4572 10 21.8716 10C22.286 10 22.6834 9.83538 22.9765 9.54235C23.2695 9.24933 23.4341 8.8519 23.4341 8.4375C23.4341 8.0231 23.2695 7.62567 22.9765 7.33265C22.6834 7.03962 22.286 6.875 21.8716 6.875Z" fill="#FBFAF8"/>
</svg>
