<svg width="21" height="21" viewBox="0 0 21 21" fill="none" xmlns="http://www.w3.org/2000/svg">
<path d="M10.0671 2.2323C6.61675 2.2323 3.81714 4.75222 3.81714 7.8573C3.81714 12.8573 10.0671 19.7323 10.0671 19.7323C10.0671 19.7323 16.3171 12.8573 16.3171 7.8573C16.3171 4.75222 13.5175 2.2323 10.0671 2.2323ZM10.0671 10.9823C9.57269 10.9823 9.08934 10.8357 8.67821 10.561C8.26709 10.2863 7.94666 9.89582 7.75744 9.43901C7.56822 8.98219 7.51871 8.47953 7.61518 7.99457C7.71164 7.50962 7.94974 7.06416 8.29937 6.71453C8.649 6.3649 9.09446 6.1268 9.57941 6.03034C10.0644 5.93387 10.567 5.98338 11.0238 6.1726C11.4807 6.36182 11.8711 6.68225 12.1458 7.09337C12.4205 7.5045 12.5671 7.98785 12.5671 8.4823C12.5664 9.14512 12.3028 9.78058 11.8341 10.2493C11.3654 10.718 10.73 10.9816 10.0671 10.9823Z" fill="#fff"/>
</svg>
