<svg width="65" height="65" viewBox="0 0 65 65" fill="none" xmlns="http://www.w3.org/2000/svg">
<rect x="0.707275" y="0.842285" width="64" height="64" fill="#9B5D4E"/>
<path d="M32.7073 32.2084C31.6851 32.2084 30.7048 31.7914 29.982 31.049C29.2592 30.3067 28.8531 29.2999 28.8531 28.2501C28.8531 27.2003 29.2592 26.1934 29.982 25.4511C30.7048 24.7088 31.6851 24.2917 32.7073 24.2917C33.7295 24.2917 34.7098 24.7088 35.4326 25.4511C36.1554 26.1934 36.5614 27.2003 36.5614 28.2501C36.5614 28.7699 36.4617 29.2846 36.2681 29.7649C36.0744 30.2451 35.7905 30.6815 35.4326 31.049C35.0747 31.4166 34.6498 31.7082 34.1822 31.9071C33.7146 32.106 33.2134 32.2084 32.7073 32.2084ZM32.7073 17.1667C29.8451 17.1667 27.1002 18.3345 25.0764 20.413C23.0526 22.4915 21.9156 25.3106 21.9156 28.2501C21.9156 36.5626 32.7073 48.8334 32.7073 48.8334C32.7073 48.8334 43.4989 36.5626 43.4989 28.2501C43.4989 25.3106 42.362 22.4915 40.3381 20.413C38.3143 18.3345 35.5694 17.1667 32.7073 17.1667Z" fill="white"/>
</svg>
