<svg width="36" height="36" viewBox="0 0 36 36" fill="none" xmlns="http://www.w3.org/2000/svg">
<path d="M30.8706 25.399C30.276 23.703 28.8902 22.8435 27.5524 22.0125C26.3882 21.2888 25.2888 20.605 24.5699 19.3773C22.5882 15.9767 21.4997 13.9246 18.253 13.9246C15.0064 13.9246 13.9145 15.9773 11.928 19.3767C11.2084 20.6071 10.1037 21.2922 8.93817 22.0172C7.60033 22.8489 6.21722 23.7064 5.6206 25.399C5.38839 26.0093 5.27155 26.6574 5.276 27.3104C5.276 30.0631 7.46857 32.303 9.89762 32.303C12.3267 32.303 15.5267 31.078 18.2598 31.078C20.9929 31.078 24.1483 32.303 26.6078 32.303C29.0672 32.303 31.222 30.0631 31.222 27.3104C31.2239 26.657 31.1048 26.009 30.8706 25.399Z" fill="#FBFAF8"/>
<path d="M5.8165 20.4111C7.90623 20.4111 9.60029 18.233 9.60029 15.5462C9.60029 12.8594 7.90623 10.6814 5.8165 10.6814C3.72677 10.6814 2.03271 12.8594 2.03271 15.5462C2.03271 18.233 3.72677 20.4111 5.8165 20.4111Z" fill="#FBFAF8"/>
<path d="M13.3841 13.9246C15.4739 13.9246 17.1679 11.7465 17.1679 9.05975C17.1679 6.37296 15.4739 4.19489 13.3841 4.19489C11.2944 4.19489 9.60034 6.37296 9.60034 9.05975C9.60034 11.7465 11.2944 13.9246 13.3841 13.9246Z" fill="#FBFAF8"/>
<path d="M23.1139 13.9246C25.2036 13.9246 26.8976 11.7465 26.8976 9.05975C26.8976 6.37296 25.2036 4.19489 23.1139 4.19489C21.0241 4.19489 19.3301 6.37296 19.3301 9.05975C19.3301 11.7465 21.0241 13.9246 23.1139 13.9246Z" fill="#FBFAF8"/>
<path d="M30.6814 20.4111C32.7711 20.4111 34.4652 18.233 34.4652 15.5462C34.4652 12.8594 32.7711 10.6814 30.6814 10.6814C28.5916 10.6814 26.8976 12.8594 26.8976 15.5462C26.8976 18.233 28.5916 20.4111 30.6814 20.4111Z" fill="#FBFAF8"/>
</svg>
