<svg width="65" height="65" viewBox="0 0 65 65" fill="none" xmlns="http://www.w3.org/2000/svg">
<rect x="0.707275" y="0.842285" width="64" height="64" fill="#9B5D4E"/>
<path d="M48.124 32.9999C48.1231 28.5799 46.4986 24.3412 43.6076 21.2158C40.7166 18.0904 36.7958 16.3341 32.7073 16.3333V19.6666C35.1463 19.6672 37.5305 20.4493 39.5586 21.9141C41.5867 23.379 43.1676 25.4608 44.1017 27.8966C44.7217 29.5145 45.0407 31.2487 45.0406 32.9999H48.124ZM17.2906 29.6666V21.3333C17.2906 20.8912 17.453 20.4673 17.7422 20.1547C18.0313 19.8422 18.4234 19.6666 18.8323 19.6666H26.5406C26.9495 19.6666 27.3416 19.8422 27.6307 20.1547C27.9199 20.4673 28.0823 20.8912 28.0823 21.3333V27.9999C28.0823 28.4419 27.9199 28.8659 27.6307 29.1784C27.3416 29.491 26.9495 29.6666 26.5406 29.6666H23.4573C23.4573 33.2028 24.7567 36.5942 27.0696 39.0947C29.3826 41.5952 32.5196 42.9999 35.7906 42.9999V39.6666C35.7906 39.2246 35.953 38.8006 36.2422 38.4881C36.5313 38.1755 36.9234 37.9999 37.3323 37.9999H43.499C43.9078 37.9999 44.3 38.1755 44.5891 38.4881C44.8782 38.8006 45.0406 39.2246 45.0406 39.6666V47.9999C45.0406 48.4419 44.8782 48.8659 44.5891 49.1784C44.3 49.491 43.9078 49.6666 43.499 49.6666H35.7906C25.574 49.6666 17.2906 40.7116 17.2906 29.6666Z" fill="white"/>
<path d="M41.2527 29.1733C41.7181 30.3864 41.9575 31.6868 41.9573 33H39.1823C39.1825 32.0807 39.0152 31.1703 38.6898 30.321C38.3645 29.4716 37.8876 28.6998 37.2863 28.0498C36.685 27.3997 35.9711 26.8841 35.1854 26.5324C34.3997 26.1807 33.5577 25.9998 32.7073 26V23C34.5367 23.0001 36.325 23.5867 37.8461 24.6855C39.3672 25.7843 40.5527 27.3461 41.2527 29.1733Z" fill="white"/>
</svg>
