<svg width="38" height="43" viewBox="0 0 38 43" fill="none" xmlns="http://www.w3.org/2000/svg">
<g clip-path="url(#clip0_129_116)">
<path d="M15.479 36.4276C14.8725 37.0192 13.6594 37.6107 11.8397 37.0192C10.6266 36.4276 9.41345 35.2445 9.41345 34.0614C10.02 33.4699 11.2331 32.8783 13.0528 33.4699C14.8725 34.653 15.479 35.8361 15.479 36.4276Z" fill="#BFC0C1"/>
<path d="M22.1512 15.7234C22.1512 15.7234 20.9381 15.1319 19.7249 14.5403C18.5118 13.9488 17.2987 13.9488 17.2987 13.9488L10.02 34.653C10.02 35.2445 10.02 35.8361 11.8397 36.4276C13.0528 37.0192 14.8725 36.4276 14.8725 36.4276L22.1512 15.7234Z" fill="url(#paint0_linear_129_116)"/>
<path d="M36.7085 23.4135C34.2823 30.5121 24.5773 34.0614 14.2659 30.5121C4.56094 27.5544 -1.50464 19.2727 0.921595 12.1741C1.52815 10.991 2.13471 8.03324 3.34782 7.44169C7.59373 3.30084 14.8724 2.7093 23.3642 5.07549C31.2495 7.44169 36.7085 10.991 37.315 17.498C37.315 18.6811 37.315 22.2304 36.7085 23.4135Z" fill="url(#paint1_linear_129_116)"/>
<path d="M36.7085 19.8642C34.2822 26.9628 24.5773 29.9206 15.479 26.9628C5.77405 24.0051 0.315037 15.7234 2.13471 9.21635C4.56094 2.11776 14.2659 -0.839988 23.3642 2.11776C33.0691 5.07551 39.1347 13.3572 36.7085 19.8642Z" fill="url(#paint2_radial_129_116)"/>
<path d="M15.479 25.7797C6.38063 22.822 -0.2915 15.1319 2.74129 8.03326L2.74129 7.44171C2.74129 8.03326 2.74129 8.62481 2.13473 9.21636C-0.2915 15.7234 5.77407 24.0051 15.479 26.9628C24.5774 29.9206 33.6757 26.9628 36.7085 21.0473C33.6757 26.9628 23.9708 28.7375 15.479 25.7797Z" fill="url(#paint3_radial_129_116)"/>
<path opacity="0.047619" d="M3.9544 16.9065C3.34785 16.9065 3.34785 19.2727 6.38063 21.6389C8.2003 23.4135 10.6265 23.4135 9.41342 22.822C7.59375 21.6389 3.9544 16.9065 3.9544 16.9065Z" fill="url(#paint4_radial_129_116)"/>
<path opacity="0.095238" d="M3.95449 17.498C3.34793 17.498 3.95449 19.2727 6.38072 22.2304C8.20039 24.0051 10.6266 24.0051 9.41351 23.4135C6.98728 21.6389 3.95449 17.498 3.95449 17.498Z" fill="url(#paint5_radial_129_116)"/>
<path opacity="0.1429" d="M3.95449 17.498C3.34793 17.498 3.95449 19.2727 6.38072 22.2304C8.20039 24.0051 10.6266 24.0051 9.41351 23.4135C6.98728 21.6389 3.95449 17.498 3.95449 17.498Z" fill="url(#paint6_radial_129_116)"/>
<path opacity="0.1905" d="M3.95449 17.498C3.34793 17.498 3.95449 19.2727 6.38072 21.6389C8.20039 23.4135 10.6266 23.4135 9.41351 22.822C6.98728 21.0473 3.95449 17.498 3.95449 17.498Z" fill="url(#paint7_radial_129_116)"/>
<path opacity="0.2381" d="M3.95449 17.498C3.34793 17.498 3.95449 19.2727 6.38072 21.6389C8.20039 23.4135 10.0201 23.4135 9.41351 22.822C6.98728 21.0473 3.95449 17.498 3.95449 17.498Z" fill="url(#paint8_radial_129_116)"/>
<path opacity="0.2857" d="M3.95449 17.498C3.34793 17.498 3.95449 19.2727 6.38072 21.6389C8.20039 22.822 10.0201 23.4135 9.41351 22.822C6.98728 21.0473 3.95449 17.498 3.95449 17.498Z" fill="url(#paint9_radial_129_116)"/>
<path opacity="0.3333" d="M3.95449 17.498C3.34793 17.498 3.95449 19.2727 6.38072 21.6389C7.59383 22.822 10.0201 23.4135 9.41351 22.822C6.98728 21.0473 3.95449 17.498 3.95449 17.498Z" fill="url(#paint10_radial_129_116)"/>
<path opacity="0.381" d="M3.95449 17.498C3.34793 17.498 3.95449 19.2727 6.38072 21.0473C7.59383 22.2304 10.0201 22.822 9.41351 22.2304C6.98728 21.0473 3.95449 17.498 3.95449 17.498Z" fill="url(#paint11_radial_129_116)"/>
<path opacity="0.4286" d="M4.56094 18.0896C3.95438 18.0896 4.56094 19.8642 6.98717 21.6389C8.20028 22.822 10.6265 23.4135 9.41339 22.822C6.38061 21.0473 4.56094 18.0896 4.56094 18.0896Z" fill="url(#paint12_radial_129_116)"/>
<path opacity="0.4762" d="M4.56094 18.0896C3.95438 18.0896 4.56094 19.8642 6.98717 21.6389C8.20028 22.822 10.6265 23.4135 9.41339 22.822C6.38061 21.0473 4.56094 18.0896 4.56094 18.0896Z" fill="url(#paint13_radial_129_116)"/>
<path opacity="0.5238" d="M4.56096 18.0896C3.9544 18.0896 4.56096 19.8642 6.38063 21.6389C7.59374 22.822 9.41341 23.4135 8.80686 22.822C6.38063 21.0473 4.56096 18.0896 4.56096 18.0896Z" fill="url(#paint14_radial_129_116)"/>
<path opacity="0.5714" d="M4.56096 18.0896C3.9544 18.0896 4.56096 19.8642 6.38063 21.6389C7.59374 22.822 9.41341 23.4135 8.80686 22.822C6.38063 20.4558 4.56096 18.0896 4.56096 18.0896Z" fill="url(#paint15_radial_129_116)"/>
<path opacity="0.619" d="M4.56096 18.0896C3.9544 18.0896 4.56096 19.2727 6.38063 21.0473C7.59374 22.2304 9.41341 22.822 8.80686 22.2304C6.38063 20.4558 4.56096 18.0896 4.56096 18.0896Z" fill="url(#paint16_radial_129_116)"/>
<path opacity="0.6667" d="M4.56096 18.0896C3.9544 18.0896 4.56096 19.2727 6.38063 21.0473C7.59374 22.2304 9.41341 22.822 8.80686 22.2304C6.38063 20.4558 4.56096 18.0896 4.56096 18.0896Z" fill="url(#paint17_radial_129_116)"/>
<path opacity="0.7143" d="M4.56096 18.0896C3.9544 18.0896 4.56096 19.2727 6.38063 21.0473C7.59374 22.2304 9.41341 22.822 8.80686 22.2304C5.77407 20.4558 4.56096 18.0896 4.56096 18.0896Z" fill="url(#paint18_radial_129_116)"/>
<path opacity="0.7619" d="M4.56099 18.6812C3.95444 18.6812 5.16755 19.8643 6.38067 21.0474C7.59378 22.2304 9.41345 22.822 8.8069 22.2304C5.77411 20.4558 4.56099 18.6812 4.56099 18.6812Z" fill="url(#paint19_radial_129_116)"/>
<path opacity="0.8095" d="M4.56099 18.6812C3.95444 18.6812 5.16755 19.8643 6.38067 21.0474C7.59378 22.2304 9.41345 22.822 8.8069 22.2304C5.77411 20.4558 4.56099 18.6812 4.56099 18.6812Z" fill="url(#paint20_radial_129_116)"/>
<path opacity="0.8571" d="M4.56099 18.6812C3.95444 18.6812 5.16755 19.8643 6.38067 21.0474C7.59378 22.2304 8.8069 22.822 8.20034 22.2304C5.77411 20.4558 4.56099 18.6812 4.56099 18.6812Z" fill="url(#paint21_radial_129_116)"/>
<path opacity="0.9048" d="M4.56104 18.6812C4.56104 18.6812 5.16759 19.8643 6.38071 21.0474C7.59382 22.2304 8.80694 22.822 8.20038 22.2304C5.77415 19.8643 4.56104 18.6812 4.56104 18.6812Z" fill="url(#paint22_radial_129_116)"/>
<path opacity="0.9524" d="M4.56104 18.6812C4.56104 18.6812 5.16759 19.8643 6.38071 21.0474C7.59382 22.2304 8.80694 22.822 8.20038 22.2304C5.77415 19.8643 4.56104 18.6812 4.56104 18.6812Z" fill="url(#paint23_radial_129_116)"/>
<path d="M5.16752 18.6812C4.56096 18.6812 5.16752 19.8643 6.38064 21.0474C7.59375 22.2304 8.80686 22.822 8.20031 22.2304C5.77408 19.8643 5.16752 18.6812 5.16752 18.6812Z" fill="url(#paint24_radial_129_116)"/>
<g opacity="0.82">
<path opacity="0.047619" d="M24.5774 27.5544C23.9708 28.1459 26.3971 28.7375 30.0364 27.5544C33.0692 25.7797 33.0692 24.5966 32.4626 25.1882C28.8233 26.9628 24.5774 27.5544 24.5774 27.5544Z" fill="url(#paint25_radial_129_116)"/>
<path opacity="0.095238" d="M24.5774 27.5544C23.9708 28.1459 25.7905 28.7375 30.0364 27.5544C33.0692 25.7797 33.0692 24.5966 32.4626 25.1882C28.8233 26.9628 24.5774 27.5544 24.5774 27.5544Z" fill="url(#paint26_radial_129_116)"/>
<path opacity="0.1429" d="M24.5774 26.9628C24.5774 27.5544 26.3971 28.1459 29.4299 26.9628C32.4626 25.7797 33.0692 24.5966 31.8561 25.1882C28.8233 26.9628 24.5774 26.9628 24.5774 26.9628Z" fill="url(#paint27_radial_129_116)"/>
<path opacity="0.1905" d="M24.5774 26.9628C24.5774 27.5544 26.3971 28.1459 29.4299 26.9628C32.4626 25.7797 33.0692 24.5966 31.8561 25.1882C28.8233 26.9628 24.5774 26.9628 24.5774 26.9628Z" fill="url(#paint28_radial_129_116)"/>
<path opacity="0.2381" d="M25.184 26.9628C24.5774 27.5544 26.3971 28.1459 29.4299 26.9628C32.4627 25.7797 32.4627 24.5966 31.8561 25.1882C28.8233 26.9628 25.184 26.9628 25.184 26.9628Z" fill="url(#paint29_radial_129_116)"/>
<path opacity="0.2857" d="M25.184 26.9628C24.5774 27.5544 26.3971 28.1459 29.4299 26.9628C31.8561 26.3713 32.4627 24.5966 31.8561 25.1882C28.8233 26.9628 25.184 26.9628 25.184 26.9628Z" fill="url(#paint30_radial_129_116)"/>
<path opacity="0.3333" d="M25.184 26.9628C25.184 27.5544 26.3971 27.5544 29.4299 26.9628C31.8561 26.3713 32.4626 25.1882 31.8561 25.1882C28.8233 26.9628 25.184 26.9628 25.184 26.9628Z" fill="url(#paint31_radial_129_116)"/>
<path opacity="0.381" d="M25.184 26.9628C25.184 27.5544 26.3971 27.5544 29.4299 26.9628C31.8561 26.3713 32.4626 25.1882 31.2495 25.1882C28.8233 26.9628 25.184 26.9628 25.184 26.9628Z" fill="url(#paint32_radial_129_116)"/>
<path opacity="0.4286" d="M25.7905 26.9628C25.7905 27.5544 27.0036 27.5544 29.4299 26.9628C31.8561 26.3713 32.4627 25.1882 31.2495 25.7797C28.2168 26.9628 25.7905 26.9628 25.7905 26.9628Z" fill="url(#paint33_radial_129_116)"/>
<path opacity="0.4762" d="M25.7905 26.9628C25.7905 27.5544 27.0036 27.5544 29.4299 26.9628C31.8561 26.3713 31.8561 25.1882 31.2495 25.7797C28.2168 26.9628 25.7905 26.9628 25.7905 26.9628Z" fill="url(#paint34_radial_129_116)"/>
<path opacity="0.5238" d="M25.7905 26.9628C25.7905 27.5544 27.0036 27.5544 29.4299 26.9628C31.2495 26.3713 31.8561 25.1882 31.2495 25.7797C28.2168 26.9628 25.7905 26.9628 25.7905 26.9628Z" fill="url(#paint35_radial_129_116)"/>
<path opacity="0.5714" d="M25.7905 26.9628C25.7905 27.5544 27.0036 27.5544 28.8233 26.9628C30.643 26.3713 31.2495 25.1882 30.643 25.7797C28.2168 26.9628 25.7905 26.9628 25.7905 26.9628Z" fill="url(#paint36_radial_129_116)"/>
<path opacity="0.619" d="M26.3971 26.9628C26.3971 27.5544 27.6102 27.5544 29.4299 26.9628C30.643 26.3713 31.2496 25.7797 30.643 25.7797C28.2168 26.9628 26.3971 26.9628 26.3971 26.9628Z" fill="url(#paint37_radial_129_116)"/>
<path opacity="0.6667" d="M26.3971 26.9628C26.3971 26.9628 27.6102 27.5544 29.4299 26.9628C30.643 26.3713 31.2496 25.7797 30.643 25.7797C28.2168 26.9628 26.3971 26.9628 26.3971 26.9628Z" fill="url(#paint38_radial_129_116)"/>
<path opacity="0.7143" d="M26.3971 26.9628C26.3971 26.9628 27.0036 27.5544 28.8233 26.9628C30.643 26.3713 31.2496 25.7797 30.643 25.7797C28.2168 26.9628 26.3971 26.9628 26.3971 26.9628Z" fill="url(#paint39_radial_129_116)"/>
<path opacity="0.7619" d="M26.3971 26.9628C26.3971 26.9628 27.0036 26.9628 28.8233 26.9628C30.643 26.3713 31.2496 25.7797 30.643 25.7797C28.2168 26.9628 26.3971 26.9628 26.3971 26.9628Z" fill="url(#paint40_radial_129_116)"/>
<path opacity="0.8095" d="M27.0037 26.9628C27.0037 26.9628 27.6102 26.9628 29.4299 26.9628C30.0364 26.3713 30.643 25.7797 30.643 26.3713C28.2168 26.9628 27.0037 26.9628 27.0037 26.9628Z" fill="url(#paint41_radial_129_116)"/>
<path opacity="0.8571" d="M27.0037 26.9628C27.0037 26.9628 27.6102 26.9628 28.8233 26.9628C30.0364 26.3713 30.643 25.7797 30.0364 26.3713C28.2168 26.9628 27.0037 26.9628 27.0037 26.9628Z" fill="url(#paint42_radial_129_116)"/>
<path opacity="0.9048" d="M27.0037 26.9628C27.0037 26.9628 27.6102 26.9628 28.8233 26.9628C30.0364 26.3713 30.643 26.3713 30.0364 26.3713C28.2168 26.9628 27.0037 26.9628 27.0037 26.9628Z" fill="url(#paint43_radial_129_116)"/>
<path opacity="0.9524" d="M27.0037 26.9628C27.0037 26.9628 27.6102 26.9628 28.8233 26.9628C30.0364 26.9628 30.643 26.3713 30.0364 26.3713C28.2168 26.9628 27.0037 26.9628 27.0037 26.9628Z" fill="url(#paint44_radial_129_116)"/>
<path d="M27.6101 26.9628C27.6101 26.9628 28.2167 26.9628 28.8232 26.9628C29.4298 26.9628 30.0363 26.3713 30.0363 26.3713C28.2167 26.9628 27.6101 26.9628 27.6101 26.9628Z" fill="url(#paint45_radial_129_116)"/>
</g>
<path d="M34.2822 13.3572C33.0691 9.21637 28.8232 5.66707 22.7576 3.89242C14.8724 1.52622 6.38057 3.89242 4.5609 9.80791C3.95435 10.3995 3.95435 12.1741 3.95435 13.3572C7.59369 10.991 13.0527 9.80791 18.5117 9.80791C25.1839 9.80791 30.6429 10.991 34.2822 13.3572Z" fill="url(#paint46_linear_129_116)"/>
</g>
<defs>
<linearGradient id="paint0_linear_129_116" x1="11.6768" y1="24.1741" x2="18.3879" y2="26.293" gradientUnits="userSpaceOnUse">
<stop stop-color="#C7C7C7"/>
<stop offset="0.0274725" stop-color="#ABABAB"/>
<stop offset="0.2143" stop-color="#616161"/>
<stop offset="0.3571" stop-color="#BABABA"/>
<stop offset="0.4231" stop-color="#EDEDED"/>
<stop offset="0.6044" stop-color="#949AA1"/>
<stop offset="0.6076" stop-color="#91979D"/>
<stop offset="0.6557" stop-color="#63666A"/>
<stop offset="0.6976" stop-color="#424345"/>
<stop offset="0.7314" stop-color="#2D2E2E"/>
<stop offset="0.7527" stop-color="#262626"/>
<stop offset="0.8303" stop-color="#4D4D4D"/>
<stop offset="0.9341" stop-color="#858585"/>
<stop offset="0.9725" stop-color="#878787"/>
<stop offset="0.991" stop-color="#8F8F8F"/>
<stop offset="1" stop-color="#969696"/>
</linearGradient>
<linearGradient id="paint1_linear_129_116" x1="2.03493" y1="12.9122" x2="38.0893" y2="24.2598" gradientUnits="userSpaceOnUse">
<stop stop-color="#616161"/>
<stop offset="0.1636" stop-color="white"/>
<stop offset="0.5636" stop-color="#1C1C1C"/>
<stop offset="0.5927" stop-color="#272727"/>
<stop offset="0.6442" stop-color="#454545"/>
<stop offset="0.7119" stop-color="#757575"/>
<stop offset="0.7924" stop-color="#B8B8B8"/>
<stop offset="0.8242" stop-color="#D4D4D4"/>
<stop offset="0.9956" stop-color="#575757"/>
</linearGradient>
<radialGradient id="paint2_radial_129_116" cx="0" cy="0" r="1" gradientUnits="userSpaceOnUse" gradientTransform="translate(20.9879 -3.0296) rotate(-0.290564) scale(37.755 36.8209)">
<stop offset="0.2485" stop-color="#C2C2C2"/>
<stop offset="1" stop-color="#474747"/>
</radialGradient>
<radialGradient id="paint3_radial_129_116" cx="0" cy="0" r="1" gradientUnits="userSpaceOnUse" gradientTransform="translate(8.92561 22.1468) rotate(-0.293103) scale(12.2336 11.8081)">
<stop offset="0.2485" stop-color="white"/>
<stop offset="0.3193" stop-color="#F7F7F7"/>
<stop offset="0.4309" stop-color="#E0E0E0"/>
<stop offset="0.5694" stop-color="#BBBBBB"/>
<stop offset="0.7294" stop-color="#888888"/>
<stop offset="0.9052" stop-color="#474747"/>
<stop offset="1" stop-color="#212121"/>
</radialGradient>
<radialGradient id="paint4_radial_129_116" cx="0" cy="0" r="1" gradientUnits="userSpaceOnUse" gradientTransform="translate(4.88571 21.7606) rotate(-0.290564) scale(2.38683 2.32778)">
<stop offset="0.2485" stop-color="white"/>
<stop offset="1" stop-color="white"/>
</radialGradient>
<radialGradient id="paint5_radial_129_116" cx="0" cy="0" r="1" gradientUnits="userSpaceOnUse" gradientTransform="translate(4.92088 21.7415) rotate(-0.290564) scale(2.33164 2.27395)">
<stop offset="0.2485" stop-color="white"/>
<stop offset="1" stop-color="white"/>
</radialGradient>
<radialGradient id="paint6_radial_129_116" cx="0" cy="0" r="1" gradientUnits="userSpaceOnUse" gradientTransform="translate(4.95113 21.7271) rotate(-0.290564) scale(2.27765 2.2213)">
<stop offset="0.2485" stop-color="white"/>
<stop offset="1" stop-color="white"/>
</radialGradient>
<radialGradient id="paint7_radial_129_116" cx="0" cy="0" r="1" gradientUnits="userSpaceOnUse" gradientTransform="translate(4.9838 21.711) rotate(-0.290564) scale(2.22306 2.16806)">
<stop offset="0.2485" stop-color="white"/>
<stop offset="1" stop-color="white"/>
</radialGradient>
<radialGradient id="paint8_radial_129_116" cx="0" cy="0" r="1" gradientUnits="userSpaceOnUse" gradientTransform="translate(5.01647 21.696) rotate(-0.290564) scale(2.16786 2.11423)">
<stop offset="0.2485" stop-color="white"/>
<stop offset="1" stop-color="white"/>
</radialGradient>
<radialGradient id="paint9_radial_129_116" cx="0" cy="0" r="1" gradientUnits="userSpaceOnUse" gradientTransform="translate(5.05034 21.6769) rotate(-0.290564) scale(2.11327 2.06099)">
<stop offset="0.2485" stop-color="white"/>
<stop offset="1" stop-color="white"/>
</radialGradient>
<radialGradient id="paint10_radial_129_116" cx="0" cy="0" r="1" gradientUnits="userSpaceOnUse" gradientTransform="translate(5.08302 21.6625) rotate(-0.290564) scale(2.05929 2.00834)">
<stop offset="0.2485" stop-color="white"/>
<stop offset="1" stop-color="white"/>
</radialGradient>
<radialGradient id="paint11_radial_129_116" cx="0" cy="0" r="1" gradientUnits="userSpaceOnUse" gradientTransform="translate(5.11266 21.6464) rotate(-0.290564) scale(2.0047 1.9551)">
<stop offset="0.2485" stop-color="white"/>
<stop offset="1" stop-color="white"/>
</radialGradient>
<radialGradient id="paint12_radial_129_116" cx="0" cy="0" r="1" gradientUnits="userSpaceOnUse" gradientTransform="translate(5.14643 21.6303) rotate(-0.290564) scale(1.95011 1.90186)">
<stop offset="0.2485" stop-color="white"/>
<stop offset="1" stop-color="white"/>
</radialGradient>
<radialGradient id="paint13_radial_129_116" cx="0" cy="0" r="1" gradientUnits="userSpaceOnUse" gradientTransform="translate(5.17849 21.6142) rotate(-0.290564) scale(1.89612 1.84921)">
<stop offset="0.2485" stop-color="white"/>
<stop offset="1" stop-color="white"/>
</radialGradient>
<radialGradient id="paint14_radial_129_116" cx="0" cy="0" r="1" gradientUnits="userSpaceOnUse" gradientTransform="translate(5.21055 21.5951) rotate(-0.290564) scale(1.84335 1.79774)">
<stop offset="0.2485" stop-color="white"/>
<stop offset="1" stop-color="white"/>
</radialGradient>
<radialGradient id="paint15_radial_129_116" cx="0" cy="0" r="1" gradientUnits="userSpaceOnUse" gradientTransform="translate(5.24201 21.5795) rotate(-0.290564) scale(1.78937 1.7451)">
<stop offset="0.2485" stop-color="white"/>
<stop offset="1" stop-color="white"/>
</radialGradient>
<radialGradient id="paint16_radial_129_116" cx="0" cy="0" r="1" gradientUnits="userSpaceOnUse" gradientTransform="translate(5.27589 21.5628) rotate(-0.290564) scale(1.73478 1.69185)">
<stop offset="0.2485" stop-color="white"/>
<stop offset="1" stop-color="white"/>
</radialGradient>
<radialGradient id="paint17_radial_129_116" cx="0" cy="0" r="1" gradientUnits="userSpaceOnUse" gradientTransform="translate(5.30431 21.5467) rotate(-0.290564) scale(1.68079 1.63921)">
<stop offset="0.2485" stop-color="white"/>
<stop offset="1" stop-color="white"/>
</radialGradient>
<radialGradient id="paint18_radial_129_116" cx="0" cy="0" r="1" gradientUnits="userSpaceOnUse" gradientTransform="translate(5.33518 21.5329) rotate(-0.290564) scale(1.62741 1.58715)">
<stop offset="0.2485" stop-color="white"/>
<stop offset="1" stop-color="white"/>
</radialGradient>
<radialGradient id="paint19_radial_129_116" cx="0" cy="0" r="1" gradientUnits="userSpaceOnUse" gradientTransform="translate(5.36848 21.515) rotate(-0.290564) scale(1.57282 1.53391)">
<stop offset="0.2485" stop-color="white"/>
<stop offset="1" stop-color="white"/>
</radialGradient>
<radialGradient id="paint20_radial_129_116" cx="0" cy="0" r="1" gradientUnits="userSpaceOnUse" gradientTransform="translate(5.39873 21.5006) rotate(-0.290564) scale(1.51945 1.48185)">
<stop offset="0.2485" stop-color="white"/>
<stop offset="1" stop-color="white"/>
</radialGradient>
<radialGradient id="paint21_radial_129_116" cx="0" cy="0" r="1" gradientUnits="userSpaceOnUse" gradientTransform="translate(5.43018 21.4827) rotate(-0.290564) scale(1.46667 1.43039)">
<stop offset="0.2485" stop-color="white"/>
<stop offset="1" stop-color="white"/>
</radialGradient>
<radialGradient id="paint22_radial_129_116" cx="0" cy="0" r="1" gradientUnits="userSpaceOnUse" gradientTransform="translate(5.45804 21.4678) rotate(-0.290564) scale(1.4133 1.37833)">
<stop offset="0.2485" stop-color="white"/>
<stop offset="1" stop-color="white"/>
</radialGradient>
<radialGradient id="paint23_radial_129_116" cx="0" cy="0" r="1" gradientUnits="userSpaceOnUse" gradientTransform="translate(5.48949 21.4493) rotate(-0.290564) scale(1.35931 1.32568)">
<stop offset="0.2485" stop-color="white"/>
<stop offset="1" stop-color="white"/>
</radialGradient>
<radialGradient id="paint24_radial_129_116" cx="0" cy="0" r="1" gradientUnits="userSpaceOnUse" gradientTransform="translate(5.51907 21.4361) rotate(-0.290564) scale(1.30593 1.27362)">
<stop offset="0.2485" stop-color="white"/>
<stop offset="1" stop-color="white"/>
</radialGradient>
<radialGradient id="paint25_radial_129_116" cx="0" cy="0" r="1" gradientUnits="userSpaceOnUse" gradientTransform="translate(28.9378 28.4974) rotate(-61.7073) scale(2.31324 2.34588)">
<stop offset="0.2485" stop-color="white"/>
<stop offset="1" stop-color="white"/>
</radialGradient>
<radialGradient id="paint26_radial_129_116" cx="0" cy="0" r="1" gradientUnits="userSpaceOnUse" gradientTransform="translate(28.9283 28.4424) rotate(-61.7073) scale(2.23056 2.26204)">
<stop offset="0.2485" stop-color="white"/>
<stop offset="1" stop-color="white"/>
</radialGradient>
<radialGradient id="paint27_radial_129_116" cx="0" cy="0" r="1" gradientUnits="userSpaceOnUse" gradientTransform="translate(28.9175 28.3875) rotate(-61.7074) scale(2.14907 2.1794)">
<stop offset="0.2485" stop-color="white"/>
<stop offset="1" stop-color="white"/>
</radialGradient>
<radialGradient id="paint28_radial_129_116" cx="0" cy="0" r="1" gradientUnits="userSpaceOnUse" gradientTransform="translate(28.9056 28.3332) rotate(-61.7074) scale(2.06698 2.09615)">
<stop offset="0.2485" stop-color="white"/>
<stop offset="1" stop-color="white"/>
</radialGradient>
<radialGradient id="paint29_radial_129_116" cx="0" cy="0" r="1" gradientUnits="userSpaceOnUse" gradientTransform="translate(28.8948 28.2783) rotate(-61.7074) scale(1.9849 2.01291)">
<stop offset="0.2485" stop-color="white"/>
<stop offset="1" stop-color="white"/>
</radialGradient>
<radialGradient id="paint30_radial_129_116" cx="0" cy="0" r="1" gradientUnits="userSpaceOnUse" gradientTransform="translate(28.8853 28.2233) rotate(-61.7074) scale(1.90282 1.92967)">
<stop offset="0.2485" stop-color="white"/>
<stop offset="1" stop-color="white"/>
</radialGradient>
<radialGradient id="paint31_radial_129_116" cx="0" cy="0" r="1" gradientUnits="userSpaceOnUse" gradientTransform="translate(28.8731 28.1683) rotate(-61.7074) scale(1.82133 1.84703)">
<stop offset="0.2485" stop-color="white"/>
<stop offset="1" stop-color="white"/>
</radialGradient>
<radialGradient id="paint32_radial_129_116" cx="0" cy="0" r="1" gradientUnits="userSpaceOnUse" gradientTransform="translate(28.8647 28.1152) rotate(-61.7074) scale(1.74043 1.76499)">
<stop offset="0.2485" stop-color="white"/>
<stop offset="1" stop-color="white"/>
</radialGradient>
<radialGradient id="paint33_radial_129_116" cx="0" cy="0" r="1" gradientUnits="userSpaceOnUse" gradientTransform="translate(28.8545 28.0592) rotate(-61.7074) scale(1.65656 1.67994)">
<stop offset="0.2485" stop-color="white"/>
<stop offset="1" stop-color="white"/>
</radialGradient>
<radialGradient id="paint34_radial_129_116" cx="0" cy="0" r="1" gradientUnits="userSpaceOnUse" gradientTransform="translate(28.8431 28.0053) rotate(-61.7074) scale(1.57507 1.5973)">
<stop offset="0.2485" stop-color="white"/>
<stop offset="1" stop-color="white"/>
</radialGradient>
<radialGradient id="paint35_radial_129_116" cx="0" cy="0" r="1" gradientUnits="userSpaceOnUse" gradientTransform="translate(28.833 27.9514) rotate(-61.7074) scale(1.49299 1.51406)">
<stop offset="0.2485" stop-color="white"/>
<stop offset="1" stop-color="white"/>
</radialGradient>
<radialGradient id="paint36_radial_129_116" cx="0" cy="0" r="1" gradientUnits="userSpaceOnUse" gradientTransform="translate(28.8227 27.8993) rotate(-61.7074) scale(1.4115 1.43142)">
<stop offset="0.2485" stop-color="white"/>
<stop offset="1" stop-color="white"/>
</radialGradient>
<radialGradient id="paint37_radial_129_116" cx="0" cy="0" r="1" gradientUnits="userSpaceOnUse" gradientTransform="translate(28.8122 27.8425) rotate(-61.7074) scale(1.32882 1.34757)">
<stop offset="0.2485" stop-color="white"/>
<stop offset="1" stop-color="white"/>
</radialGradient>
<radialGradient id="paint38_radial_129_116" cx="0" cy="0" r="1" gradientUnits="userSpaceOnUse" gradientTransform="translate(28.8054 27.7915) rotate(-61.7074) scale(1.24852 1.26614)">
<stop offset="0.2485" stop-color="white"/>
<stop offset="1" stop-color="white"/>
</radialGradient>
<radialGradient id="paint39_radial_129_116" cx="0" cy="0" r="1" gradientUnits="userSpaceOnUse" gradientTransform="translate(28.795 27.7382) rotate(-61.7074) scale(1.16643 1.18289)">
<stop offset="0.2485" stop-color="white"/>
<stop offset="1" stop-color="white"/>
</radialGradient>
<radialGradient id="paint40_radial_129_116" cx="0" cy="0" r="1" gradientUnits="userSpaceOnUse" gradientTransform="translate(28.7855 27.6845) rotate(-61.7074) scale(1.08554 1.10086)">
<stop offset="0.2485" stop-color="white"/>
<stop offset="1" stop-color="white"/>
</radialGradient>
<radialGradient id="paint41_radial_129_116" cx="0" cy="0" r="1" gradientUnits="userSpaceOnUse" gradientTransform="translate(28.7771 27.6315) rotate(-61.7073) scale(1.00464 1.01882)">
<stop offset="0.2485" stop-color="white"/>
<stop offset="1" stop-color="white"/>
</radialGradient>
<radialGradient id="paint42_radial_129_116" cx="0" cy="0" r="1" gradientUnits="userSpaceOnUse" gradientTransform="translate(28.7668 27.5807) rotate(-61.7073) scale(0.923748 0.936785)">
<stop offset="0.2485" stop-color="white"/>
<stop offset="1" stop-color="white"/>
</radialGradient>
<radialGradient id="paint43_radial_129_116" cx="0" cy="0" r="1" gradientUnits="userSpaceOnUse" gradientTransform="translate(28.7591 27.5287) rotate(-61.7073) scale(0.842853 0.854748)">
<stop offset="0.2485" stop-color="white"/>
<stop offset="1" stop-color="white"/>
</radialGradient>
<radialGradient id="paint44_radial_129_116" cx="0" cy="0" r="1" gradientUnits="userSpaceOnUse" gradientTransform="translate(28.7528 27.4794) rotate(-61.7073) scale(0.761958 0.772712)">
<stop offset="0.2485" stop-color="white"/>
<stop offset="1" stop-color="white"/>
</radialGradient>
<radialGradient id="paint45_radial_129_116" cx="0" cy="0" r="1" gradientUnits="userSpaceOnUse" gradientTransform="translate(28.7445 27.4284) rotate(-61.7073) scale(0.681063 0.690675)">
<stop offset="0.2485" stop-color="white"/>
<stop offset="1" stop-color="white"/>
</radialGradient>
<linearGradient id="paint46_linear_129_116" x1="16.3325" y1="-3.68213" x2="20.3223" y2="21.4716" gradientUnits="userSpaceOnUse">
<stop offset="0.1258" stop-color="white"/>
<stop offset="0.1617" stop-color="#E1E1E1"/>
<stop offset="0.2479" stop-color="#9D9D9D"/>
<stop offset="0.3298" stop-color="#656565"/>
<stop offset="0.405" stop-color="#3A3A3A"/>
<stop offset="0.4721" stop-color="#1A1A1A"/>
<stop offset="0.5286" stop-color="#070707"/>
<stop offset="0.5677"/>
</linearGradient>
<clipPath id="clip0_129_116">
<rect width="37" height="42" fill="white" transform="translate(0.315063 0.934662)"/>
</clipPath>
</defs>
</svg>
