<svg width="24" height="23" viewBox="0 0 24 23" fill="none" xmlns="http://www.w3.org/2000/svg">
<path fill-rule="evenodd" clip-rule="evenodd" d="M12.0885 5.07232C11.7143 5.44657 11.7143 6.05335 12.0885 6.4276L16.2025 10.5416H5.09949C4.57021 10.5416 4.14115 10.9707 4.14115 11.5C4.14115 12.0292 4.57021 12.4583 5.09949 12.4583H16.2025L12.0885 16.5723C11.7143 16.9466 11.7143 17.5534 12.0885 17.9276C12.4628 18.3019 13.0695 18.3019 13.4438 17.9276L19.1938 12.1776C19.3735 11.9979 19.4745 11.7541 19.4745 11.5C19.4745 11.2458 19.3735 11.002 19.1938 10.8223L13.4438 5.07232C13.0695 4.69806 12.4628 4.69806 12.0885 5.07232Z" fill="#1A1A1A"/>
</svg>
