<svg width="31" height="30" viewBox="0 0 31 30" fill="none" xmlns="http://www.w3.org/2000/svg">
<path d="M15.3079 2.5C8.40786 2.5 2.80786 8.1 2.80786 15C2.80786 21.9 8.40786 27.5 15.3079 27.5C22.2079 27.5 27.8079 21.9 27.8079 15C27.8079 8.1 22.2079 2.5 15.3079 2.5ZM21.1079 11C20.9204 12.975 20.1079 17.775 19.6954 19.9875C19.5204 20.925 19.1704 21.2375 18.8454 21.275C18.1204 21.3375 17.5704 20.8 16.8704 20.3375C15.7704 19.6125 15.1454 19.1625 14.0829 18.4625C12.8454 17.65 13.6454 17.2 14.3579 16.475C14.5454 16.2875 17.7454 13.375 17.8079 13.1125C17.8165 13.0727 17.8154 13.0315 17.8045 12.9923C17.7936 12.953 17.7733 12.9171 17.7454 12.8875C17.6704 12.825 17.5704 12.85 17.4829 12.8625C17.3704 12.8875 15.6204 14.05 12.2079 16.35C11.7079 16.6875 11.2579 16.8625 10.8579 16.85C10.4079 16.8375 9.55786 16.6 8.92036 16.3875C8.13286 16.1375 7.52036 16 7.57036 15.5625C7.59536 15.3375 7.90786 15.1125 8.49536 14.875C12.1454 13.2875 14.5704 12.2375 15.7829 11.7375C19.2579 10.2875 19.9704 10.0375 20.4454 10.0375C20.5454 10.0375 20.7829 10.0625 20.9329 10.1875C21.0579 10.2875 21.0954 10.425 21.1079 10.525C21.0954 10.6 21.1204 10.825 21.1079 11Z" fill="#FBFAF8"/>
</svg>
