<svg width="26" height="26" viewBox="0 0 26 26" fill="none" xmlns="http://www.w3.org/2000/svg">
<g clip-path="url(#clip0_129_303)">
<path d="M16.6491 0.5H8.98036C1.97286 0.5 0.307861 2.16625 0.307861 9.15875V16.8288C0.307861 23.8337 1.96161 25.5 8.96661 25.5H16.6366C23.6416 25.5 25.3079 23.8463 25.3079 16.8412V9.1725C25.3079 2.165 23.6541 0.5 16.6491 0.5ZM20.4904 18.3375H18.6666C17.9766 18.3375 17.7691 17.7787 16.5316 16.5413C15.4516 15.5 14.9954 15.37 14.7216 15.37C14.3441 15.37 14.2404 15.4738 14.2404 15.995V17.635C14.2404 18.0788 14.0966 18.3387 12.9379 18.3387C11.8133 18.2632 10.7228 17.9215 9.75611 17.3419C8.78945 16.7623 7.97432 15.9613 7.37786 15.005C5.96182 13.2425 4.97654 11.1739 4.50036 8.96375C4.50036 8.69 4.60411 8.4425 5.12536 8.4425H6.94911C7.41786 8.4425 7.58661 8.65125 7.76911 9.1325C8.65411 11.7375 10.1641 14.0025 10.7766 14.0025C11.0116 14.0025 11.1141 13.8988 11.1141 13.3125V10.63C11.0366 9.40625 10.3866 9.3025 10.3866 8.86C10.395 8.74329 10.4484 8.63441 10.5357 8.55647C10.623 8.47853 10.7372 8.43765 10.8541 8.4425H13.7191C14.1104 8.4425 14.2404 8.6375 14.2404 9.10625V12.7262C14.2404 13.1175 14.4091 13.2475 14.5266 13.2475C14.7616 13.2475 14.9429 13.1175 15.3729 12.6875C16.2964 11.5612 17.051 10.3063 17.6129 8.9625C17.6703 8.80108 17.779 8.66288 17.9223 8.56899C18.0656 8.4751 18.2357 8.43068 18.4066 8.4425H20.2304C20.7766 8.4425 20.8929 8.71625 20.7766 9.10625C20.1135 10.5918 19.2929 12.0019 18.3291 13.3125C18.1329 13.6125 18.0541 13.7688 18.3291 14.12C18.5104 14.3938 19.1491 14.9275 19.5791 15.435C20.204 16.0583 20.7229 16.7795 21.1154 17.57C21.2716 18.0775 21.0104 18.3375 20.4904 18.3375Z" fill="#FBFAF8"/>
</g>
<defs>
<clipPath id="clip0_129_303">
<rect width="25" height="25" fill="white" transform="translate(0.307861 0.5)"/>
</clipPath>
</defs>
</svg>
