<svg width="363" height="35" viewBox="0 0 363 35" fill="none" xmlns="http://www.w3.org/2000/svg">
<g clip-path="url(#clip0_2029_22)">
<path d="M7.07812 21.4375C7.07812 21.7708 7.09896 21.9896 7.14062 22.0938C7.18229 22.1979 7.28125 22.25 7.4375 22.25C7.51042 22.25 7.65104 22.2344 7.85938 22.2031C8.06771 22.1719 8.28646 22.1354 8.51562 22.0938C8.75521 22.0417 8.97917 21.9948 9.1875 21.9531C9.40625 21.901 9.55208 21.8594 9.625 21.8281C10.7292 21.6198 11.7917 21.3333 12.8125 20.9688C13.8333 20.5938 14.7865 20.1615 15.6719 19.6719C16.5677 19.1719 17.3802 18.6198 18.1094 18.0156C18.8385 17.4115 19.4635 16.776 19.9844 16.1094C20.5052 15.4323 20.9062 14.7292 21.1875 14C21.4792 13.2708 21.625 12.5365 21.625 11.7969C21.625 11.0781 21.3958 10.4167 20.9375 9.8125C20.4896 9.19792 19.8281 8.67188 18.9531 8.23438C18.0885 7.78646 17.0208 7.4375 15.75 7.1875C14.4896 6.9375 13.0469 6.8125 11.4219 6.8125C10.974 6.8125 10.6042 6.83333 10.3125 6.875C10.0312 6.90625 9.80208 6.96354 9.625 7.04688C9.45833 7.11979 9.33333 7.21354 9.25 7.32812C9.17708 7.44271 9.125 7.57812 9.09375 7.73438C8.98958 8.16146 8.88542 8.64062 8.78125 9.17188C8.67708 9.69271 8.57292 10.2292 8.46875 10.7812C8.375 11.3229 8.28125 11.8646 8.1875 12.4062C8.10417 12.9375 8.02604 13.4323 7.95312 13.8906C7.88021 14.3385 7.81771 14.7344 7.76562 15.0781C7.71354 15.4115 7.67188 15.651 7.64062 15.7969C7.58854 16.1094 7.53125 16.526 7.46875 17.0469C7.40625 17.5573 7.34375 18.0885 7.28125 18.6406C7.22917 19.1823 7.18229 19.7083 7.14062 20.2188C7.09896 20.7292 7.07812 21.1354 7.07812 21.4375ZM3.0625 22.375C3.11458 22.1042 3.16667 21.7865 3.21875 21.4219C3.28125 21.0469 3.33333 20.6406 3.375 20.2031C3.39583 19.9115 3.4375 19.5208 3.5 19.0312C3.57292 18.5312 3.65104 17.974 3.73438 17.3594C3.81771 16.7448 3.91146 16.0885 4.01562 15.3906C4.11979 14.6927 4.22396 14 4.32812 13.3125C4.43229 12.6146 4.53646 11.9427 4.64062 11.2969C4.74479 10.651 4.83854 10.0729 4.92188 9.5625C5.00521 9.04167 5.07812 8.61458 5.14062 8.28125C5.20312 7.9375 5.24479 7.72396 5.26562 7.64062C5.17188 7.65104 5.03125 7.67188 4.84375 7.70312C4.65625 7.72396 4.45312 7.75 4.23438 7.78125C4.02604 7.8125 3.81771 7.84896 3.60938 7.89062C3.41146 7.93229 3.25521 7.97396 3.14062 8.01562C2.83854 8.10938 2.56771 8.17188 2.32812 8.20312C2.08854 8.22396 1.88021 8.23438 1.70312 8.23438C1.04688 8.23438 0.557292 8.11458 0.234375 7.875C-0.0885417 7.63542 -0.25 7.33854 -0.25 6.98438C-0.25 6.51562 -0.0989583 6.11458 0.203125 5.78125C0.505208 5.4375 0.890625 5.18229 1.35938 5.01562C1.91146 4.81771 2.57812 4.64062 3.35938 4.48438C4.15104 4.31771 4.99479 4.17708 5.89062 4.0625C6.79688 3.94792 7.72917 3.85938 8.6875 3.79688C9.65625 3.73438 10.5885 3.70312 11.4844 3.70312C12.724 3.70312 13.8229 3.75521 14.7812 3.85938C15.75 3.95312 16.625 4.08854 17.4062 4.26562C18.1979 4.44271 18.9115 4.65625 19.5469 4.90625C20.1927 5.15625 20.8073 5.43229 21.3906 5.73438C22.026 6.06771 22.5885 6.46875 23.0781 6.9375C23.5781 7.39583 23.9948 7.89583 24.3281 8.4375C24.6719 8.96875 24.9323 9.53646 25.1094 10.1406C25.2865 10.7344 25.375 11.3385 25.375 11.9531C25.375 12.6094 25.2708 13.2812 25.0625 13.9688C24.8646 14.6562 24.5729 15.349 24.1875 16.0469C23.8021 16.7344 23.3281 17.4167 22.7656 18.0938C22.2135 18.7604 21.5781 19.401 20.8594 20.0156C20.2344 20.5469 19.5885 21.026 18.9219 21.4531C18.2656 21.8698 17.5938 22.25 16.9062 22.5938C16.2188 22.9271 15.526 23.2292 14.8281 23.5C14.1406 23.7708 13.4531 24.0156 12.7656 24.2344C11.9844 24.4948 11.2031 24.724 10.4219 24.9219C9.65104 25.1198 8.90625 25.2865 8.1875 25.4219C7.47917 25.5573 6.80729 25.6615 6.17188 25.7344C5.54688 25.8073 4.98438 25.8438 4.48438 25.8438C4.22396 25.8438 3.97396 25.7917 3.73438 25.6875C3.49479 25.5729 3.28125 25.4219 3.09375 25.2344C2.91667 25.0365 2.77083 24.8125 2.65625 24.5625C2.55208 24.3021 2.5 24.0312 2.5 23.75C2.5 23.6354 2.52083 23.5208 2.5625 23.4062C2.61458 23.2917 2.67188 23.1771 2.73438 23.0625C2.79688 22.9375 2.85938 22.8177 2.92188 22.7031C2.98438 22.5885 3.03125 22.474 3.0625 22.3594V22.375ZM37.75 15.9375C37.75 15.6979 37.7396 15.5052 37.7188 15.3594C37.7083 15.2135 37.6875 15.0938 37.6562 15C37.625 14.9062 37.5833 14.8333 37.5312 14.7812C37.4896 14.7292 37.4375 14.6719 37.375 14.6094C37.2708 14.5052 37.1562 14.3698 37.0312 14.2031C36.9167 14.0365 36.8021 13.8802 36.6875 13.7344C36.5833 13.5781 36.4844 13.4479 36.3906 13.3438C36.3073 13.2292 36.2396 13.1719 36.1875 13.1719C35.9271 13.1719 35.651 13.25 35.3594 13.4062C35.0677 13.5625 34.7708 13.7865 34.4688 14.0781C34.1771 14.3594 33.8906 14.7031 33.6094 15.1094C33.3385 15.5156 33.0833 15.974 32.8438 16.4844C32.6458 16.9115 32.4531 17.3646 32.2656 17.8438C32.0781 18.3229 31.9115 18.8125 31.7656 19.3125C31.6198 19.8021 31.5 20.2917 31.4062 20.7812C31.3229 21.2604 31.2812 21.7188 31.2812 22.1562C31.2812 22.4271 31.3906 22.6667 31.6094 22.875C31.8385 23.0729 32.1667 23.1719 32.5938 23.1719C32.7812 23.1719 33.0208 23.1198 33.3125 23.0156C33.6146 22.9115 33.9219 22.7812 34.2344 22.625C34.5469 22.4688 34.8438 22.2969 35.125 22.1094C35.4167 21.9115 35.6406 21.7292 35.7969 21.5625C36.2656 21.0625 36.6302 20.625 36.8906 20.25C37.1615 19.8646 37.3594 19.474 37.4844 19.0781C37.6094 18.6719 37.6823 18.2292 37.7031 17.75C37.7344 17.2604 37.75 16.6562 37.75 15.9375ZM50.4375 15.0625C50.4375 15.4792 50.2812 15.9115 49.9688 16.3594C49.6667 16.8073 49.2448 17.2188 48.7031 17.5938C48.1719 17.9583 47.5365 18.2604 46.7969 18.5C46.0677 18.7396 45.2812 18.8594 44.4375 18.8594C44.0417 18.8594 43.6719 18.8281 43.3281 18.7656C42.9948 18.7031 42.6875 18.6302 42.4062 18.5469C42.1354 18.4531 41.8958 18.3542 41.6875 18.25C41.4792 18.1458 41.3021 18.0573 41.1562 17.9844C41.1771 18.0885 41.1875 18.1875 41.1875 18.2812C41.1979 18.375 41.2031 18.4323 41.2031 18.4531C41.1823 18.6823 41.151 18.9271 41.1094 19.1875C41.0781 19.4375 41.0104 19.7083 40.9062 20C40.8125 20.2917 40.6771 20.6042 40.5 20.9375C40.3229 21.2708 40.0833 21.6354 39.7812 22.0312L39.7969 22.0156C39.5573 22.3385 39.2552 22.6667 38.8906 23C38.526 23.3229 38.125 23.6406 37.6875 23.9531C37.25 24.2552 36.7865 24.5417 36.2969 24.8125C35.8073 25.0729 35.3125 25.3073 34.8125 25.5156C34.3229 25.7135 33.8333 25.8698 33.3438 25.9844C32.8646 26.099 32.4167 26.1562 32 26.1562C31.2083 26.1562 30.5521 26.0312 30.0312 25.7812C29.5208 25.5208 29.1146 25.1771 28.8125 24.75C28.5104 24.3125 28.2969 23.8073 28.1719 23.2344C28.0573 22.651 28 22.0365 28 21.3906C28 20.7656 28.0677 20.1458 28.2031 19.5312C28.349 18.9062 28.5365 18.2917 28.7656 17.6875C29.0052 17.0729 29.2708 16.474 29.5625 15.8906C29.8542 15.3073 30.151 14.7448 30.4531 14.2031V14.2188C31.2448 12.7604 32.1615 11.651 33.2031 10.8906C34.2448 10.1302 35.3594 9.75 36.5469 9.75C36.8594 9.75 37.1771 9.78646 37.5 9.85938C37.8229 9.93229 38.1302 10.0365 38.4219 10.1719C38.724 10.3073 39.0052 10.4688 39.2656 10.6562C39.5365 10.8438 39.7708 11.0573 39.9688 11.2969C40.0938 11.4531 40.224 11.6823 40.3594 11.9844C40.5052 12.2865 40.6354 12.5938 40.75 12.9062C40.8646 13.2083 40.9635 13.474 41.0469 13.7031C41.1302 13.9323 41.1823 14.0573 41.2031 14.0781C41.4115 14.3385 41.6458 14.5938 41.9062 14.8438C42.1771 15.0833 42.4688 15.3021 42.7812 15.5C43.1042 15.6875 43.4427 15.8385 43.7969 15.9531C44.1615 16.0677 44.5417 16.125 44.9375 16.125C45.1875 16.125 45.4635 16.1094 45.7656 16.0781C46.0677 16.0365 46.3698 15.974 46.6719 15.8906C46.9844 15.8073 47.2917 15.6979 47.5938 15.5625C47.8958 15.4167 48.1719 15.2344 48.4219 15.0156C48.6302 14.8385 48.8177 14.6875 48.9844 14.5625C49.1615 14.4271 49.3906 14.3594 49.6719 14.3594C49.8906 14.3594 50.0729 14.4427 50.2188 14.6094C50.3646 14.776 50.4375 14.9271 50.4375 15.0625ZM56.4688 16.1406C56.4688 15.7344 56.4531 15.3906 56.4219 15.1094C56.401 14.8177 56.3698 14.5729 56.3281 14.375C56.2865 14.1667 56.2344 13.9948 56.1719 13.8594C56.1198 13.7135 56.0677 13.5833 56.0156 13.4688C55.8177 13.4688 55.526 13.4948 55.1406 13.5469C54.7656 13.5885 54.3542 13.6979 53.9062 13.875C53.4167 14.0729 52.9427 14.3698 52.4844 14.7656C52.026 15.1615 51.6198 15.6198 51.2656 16.1406C50.9115 16.6615 50.625 17.2344 50.4062 17.8594C50.1979 18.474 50.0938 19.1146 50.0938 19.7812C50.0938 20.2396 50.1354 20.6667 50.2188 21.0625C50.3021 21.4583 50.4115 21.8073 50.5469 22.1094C50.6927 22.401 50.8594 22.6302 51.0469 22.7969C51.2344 22.9635 51.4271 23.0469 51.625 23.0469C51.8333 23.0469 52.0729 22.9792 52.3438 22.8438C52.625 22.6979 52.9062 22.5208 53.1875 22.3125C53.4688 22.0938 53.7396 21.8594 54 21.6094C54.2604 21.3594 54.4688 21.1198 54.625 20.8906C54.8229 20.6094 55.0312 20.276 55.25 19.8906C55.4688 19.5052 55.6667 19.099 55.8438 18.6719C56.0208 18.2448 56.1667 17.8125 56.2812 17.375C56.4062 16.9375 56.4688 16.526 56.4688 16.1406ZM52.25 8.1875C51.9167 7.91667 51.6354 7.68229 51.4062 7.48438C51.1875 7.27604 50.9896 7.0625 50.8125 6.84375C50.6771 6.6875 50.5677 6.47917 50.4844 6.21875C50.401 5.95833 50.3594 5.73438 50.3594 5.54688C50.3594 5.30729 50.4115 5.08854 50.5156 4.89062C50.6198 4.68229 50.7448 4.49479 50.8906 4.32812C51.0365 4.16146 51.1927 4.02604 51.3594 3.92188C51.526 3.80729 51.6719 3.73438 51.7969 3.70312C51.8802 3.68229 52 3.66146 52.1562 3.64062C52.3125 3.60938 52.4844 3.58333 52.6719 3.5625C52.8594 3.54167 53.0417 3.52604 53.2188 3.51562C53.4062 3.49479 53.5573 3.47917 53.6719 3.46875C54.1198 3.42708 54.5573 3.38542 54.9844 3.34375C55.4115 3.29167 55.8385 3.22917 56.2656 3.15625C56.7031 3.08333 57.1458 2.99479 57.5938 2.89062C58.0417 2.77604 58.5104 2.63021 59 2.45312C59.1875 2.38021 59.4219 2.30208 59.7031 2.21875C59.9948 2.13542 60.2604 2.09375 60.5 2.09375C60.7708 2.09375 60.9844 2.16146 61.1406 2.29688C61.2969 2.42188 61.375 2.63542 61.375 2.9375C61.375 3.10417 61.3229 3.28646 61.2188 3.48438C61.125 3.68229 61 3.875 60.8438 4.0625C60.6979 4.25 60.5312 4.42188 60.3438 4.57812C60.1562 4.73438 59.974 4.85938 59.7969 4.95312C59.3802 5.16146 58.9531 5.32292 58.5156 5.4375C58.0885 5.55208 57.5729 5.64583 56.9688 5.71875C56.6042 5.76042 56.2656 5.79167 55.9531 5.8125C55.651 5.83333 55.3802 5.85417 55.1406 5.875C54.901 5.89583 54.6979 5.92708 54.5312 5.96875C54.375 6 54.2656 6.05208 54.2031 6.125C54.6927 6.41667 55.1979 6.80208 55.7188 7.28125C56.2396 7.76042 56.724 8.27604 57.1719 8.82812C57.6302 9.38021 58.0312 9.94271 58.375 10.5156C58.7292 11.0885 58.9792 11.6094 59.125 12.0781C59.2396 12.4323 59.3333 12.7656 59.4062 13.0781C59.4792 13.3802 59.5365 13.6823 59.5781 13.9844C59.6198 14.276 59.6458 14.5729 59.6562 14.875C59.6771 15.1771 59.6875 15.5052 59.6875 15.8594C59.6875 16.6615 59.5677 17.474 59.3281 18.2969C59.0885 19.1198 58.7604 19.9115 58.3438 20.6719C57.9375 21.4219 57.4531 22.125 56.8906 22.7812C56.3385 23.4375 55.7396 24.0104 55.0938 24.5C54.4583 24.9896 53.7917 25.375 53.0938 25.6562C52.4062 25.9375 51.724 26.0781 51.0469 26.0781C50.6406 26.0781 50.224 26 49.7969 25.8438C49.3802 25.6875 48.9844 25.4531 48.6094 25.1406C48.2344 24.8281 47.901 24.4375 47.6094 23.9688C47.3177 23.5 47.0938 22.9531 46.9375 22.3281C46.8021 21.7656 46.7135 21.2656 46.6719 20.8281C46.6302 20.3906 46.6094 19.9375 46.6094 19.4688C46.6094 18.875 46.6927 18.2604 46.8594 17.625C47.0365 16.9896 47.2865 16.3698 47.6094 15.7656C47.9427 15.151 48.3438 14.5677 48.8125 14.0156C49.2917 13.4635 49.8281 12.9792 50.4219 12.5625C51.026 12.1354 51.6927 11.7865 52.4219 11.5156C53.151 11.2448 53.9271 11.0885 54.75 11.0469C54.375 10.401 53.974 9.85417 53.5469 9.40625C53.1198 8.95833 52.6875 8.55208 52.25 8.1875ZM86.6406 14.4062C86.6406 14.5833 86.5781 14.7865 86.4531 15.0156C86.3385 15.2344 86.1927 15.4635 86.0156 15.7031C85.8385 15.9323 85.6458 16.1562 85.4375 16.375C85.2396 16.5938 85.0521 16.7812 84.875 16.9375C84.3542 17.4062 83.724 17.9115 82.9844 18.4531C82.2552 18.9844 81.4323 19.5312 80.5156 20.0938C79.6094 20.6458 78.625 21.2031 77.5625 21.7656C76.5 22.3281 75.375 22.875 74.1875 23.4062C74.1562 23.4271 74.0365 23.5156 73.8281 23.6719C73.6302 23.8177 73.3802 23.9948 73.0781 24.2031C72.776 24.401 72.4427 24.6198 72.0781 24.8594C71.724 25.0885 71.375 25.3021 71.0312 25.5C70.6979 25.6979 70.3906 25.8646 70.1094 26C69.8385 26.125 69.6302 26.1875 69.4844 26.1875C69.2135 26.1875 68.9427 26.1458 68.6719 26.0625C68.401 25.9896 68.1562 25.8906 67.9375 25.7656C67.7188 25.6302 67.5365 25.4792 67.3906 25.3125C67.2552 25.1354 67.1875 24.9583 67.1875 24.7812C67.1875 24.4167 67.3021 24.0885 67.5312 23.7969C67.7708 23.4948 68.1094 23.2344 68.5469 23.0156C68.9323 22.8073 69.2448 22.6354 69.4844 22.5C69.724 22.3646 69.9375 22.2396 70.125 22.125C70.3125 22.0104 70.4948 21.8906 70.6719 21.7656C70.849 21.6406 71.0677 21.4896 71.3281 21.3125C71.6094 20.9167 71.9219 20.4323 72.2656 19.8594C72.6198 19.276 72.9479 18.6667 73.25 18.0312C73.5625 17.3854 73.8229 16.75 74.0312 16.125C74.2396 15.4896 74.3438 14.9271 74.3438 14.4375C74.3438 14.2917 74.3333 14.1406 74.3125 13.9844C74.2917 13.8281 74.2604 13.6875 74.2188 13.5625C74.1875 13.4375 74.1406 13.3333 74.0781 13.25C74.026 13.1667 73.9583 13.125 73.875 13.125C73.6667 13.125 73.4375 13.1927 73.1875 13.3281C72.9375 13.4635 72.6875 13.6354 72.4375 13.8438C72.1875 14.0417 71.9427 14.2552 71.7031 14.4844C71.474 14.7135 71.2656 14.9219 71.0781 15.1094C70.0365 16.1927 69.1146 17.2969 68.3125 18.4219C67.5208 19.5469 66.849 20.651 66.2969 21.7344C66.2031 22.5469 66.125 23.3854 66.0625 24.25C66.0104 25.1042 65.9583 25.9635 65.9062 26.8281C65.8646 27.7031 65.8125 28.5625 65.75 29.4062C65.6875 30.2604 65.5938 31.0781 65.4688 31.8594C65.375 32.1198 65.2865 32.3646 65.2031 32.5938C65.1302 32.8333 65.0365 33.0365 64.9219 33.2031C64.8073 33.3802 64.651 33.5208 64.4531 33.625C64.2656 33.7292 64.0052 33.7812 63.6719 33.7812C63.5052 33.7812 63.3177 33.7396 63.1094 33.6562C62.901 33.5729 62.7031 33.4583 62.5156 33.3125C62.3281 33.1667 62.1719 33 62.0469 32.8125C61.9219 32.625 61.8594 32.4271 61.8594 32.2188C61.8594 31.9062 61.8854 31.4948 61.9375 30.9844C61.9896 30.4844 62.0521 29.9792 62.125 29.4688C62.1979 28.9688 62.2656 28.5052 62.3281 28.0781C62.3906 27.6615 62.4323 27.375 62.4531 27.2188C62.4948 26.8854 62.5417 26.4115 62.5938 25.7969C62.6562 25.1719 62.7188 24.474 62.7812 23.7031C62.8438 22.9323 62.901 22.1198 62.9531 21.2656C63.0156 20.401 63.0729 19.5677 63.125 18.7656C63.1771 17.9531 63.2188 17.1979 63.25 16.5C63.2917 15.8021 63.3177 15.2344 63.3281 14.7969C63.349 14.2656 63.3802 13.7865 63.4219 13.3594C63.474 12.9219 63.5677 12.5521 63.7031 12.25C63.8385 11.9479 64.026 11.7188 64.2656 11.5625C64.5052 11.3958 64.8281 11.3125 65.2344 11.3125C65.5052 11.3125 65.75 11.3646 65.9688 11.4688C66.1875 11.5729 66.3802 11.7083 66.5469 11.875C66.7135 12.0417 66.8385 12.2292 66.9219 12.4375C67.0156 12.6458 67.0625 12.8594 67.0625 13.0781C67.0625 13.276 67.0417 13.5365 67 13.8594C66.9688 14.1719 66.9219 14.5052 66.8594 14.8594C66.8073 15.2135 66.75 15.5677 66.6875 15.9219C66.625 16.2656 66.5625 16.5625 66.5 16.8125C67.0417 15.6667 67.6042 14.7292 68.1875 14C68.7708 13.2708 69.3125 12.6771 69.8125 12.2188C70.1354 11.9167 70.4792 11.625 70.8438 11.3438C71.2188 11.0521 71.6042 10.7969 72 10.5781C72.4062 10.349 72.8177 10.1667 73.2344 10.0312C73.651 9.88542 74.0677 9.8125 74.4844 9.8125C74.9427 9.8125 75.375 9.91667 75.7812 10.125C76.1979 10.3229 76.5573 10.5833 76.8594 10.9062C77.1719 11.2188 77.4167 11.5729 77.5938 11.9688C77.7812 12.3646 77.875 12.7552 77.875 13.1406C77.875 13.5365 77.8229 14.0156 77.7188 14.5781C77.6146 15.1406 77.4583 15.724 77.25 16.3281C77.0521 16.9323 76.8021 17.5365 76.5 18.1406C76.2083 18.7344 75.8698 19.2708 75.4844 19.75C76.224 19.3958 76.9531 19.0156 77.6719 18.6094C78.401 18.1927 79.1042 17.7604 79.7812 17.3125C80.4688 16.8646 81.125 16.4115 81.75 15.9531C82.375 15.4844 82.9583 15.0208 83.5 14.5625C83.7812 14.3438 84.0208 14.1406 84.2188 13.9531C84.4167 13.7656 84.5938 13.6094 84.75 13.4844C84.9062 13.349 85.0573 13.2448 85.2031 13.1719C85.349 13.0885 85.5156 13.0469 85.7031 13.0469C85.8906 13.0469 86.0469 13.099 86.1719 13.2031C86.2969 13.2969 86.3906 13.4167 86.4531 13.5625C86.526 13.7083 86.5729 13.8594 86.5938 14.0156C86.625 14.1615 86.6406 14.2917 86.6406 14.4062ZM96.6562 15.7656C96.6562 16.099 96.6406 16.4062 96.6094 16.6875C96.5781 16.9583 96.526 17.224 96.4531 17.4844C96.3802 17.7448 96.2917 18.0052 96.1875 18.2656C96.0833 18.526 95.9583 18.8125 95.8125 19.125C95.6354 19.5104 95.3542 19.9427 94.9688 20.4219C94.5833 20.8906 94.1302 21.3646 93.6094 21.8438C93.0885 22.3229 92.5156 22.7917 91.8906 23.25C91.276 23.6979 90.6354 24.099 89.9688 24.4531C89.3125 24.8073 88.6562 25.0938 88 25.3125C87.3438 25.5208 86.7188 25.625 86.125 25.625C85.3542 25.625 84.6823 25.5 84.1094 25.25C83.5365 25 83.0573 24.6719 82.6719 24.2656C82.2865 23.8594 82 23.3958 81.8125 22.875C81.625 22.3542 81.5312 21.8229 81.5312 21.2812C81.5312 20.7812 81.6198 20.2031 81.7969 19.5469C81.974 18.8802 82.2031 18.2135 82.4844 17.5469C82.7656 16.8698 83.0729 16.2292 83.4062 15.625C83.7396 15.0104 84.0625 14.5052 84.375 14.1094C84.7396 13.6406 85.1823 13.1875 85.7031 12.75C86.224 12.3125 86.8021 11.9271 87.4375 11.5938C88.0729 11.25 88.75 10.974 89.4688 10.7656C90.1979 10.5573 90.9479 10.4531 91.7188 10.4531C92.3333 10.4531 92.9375 10.599 93.5312 10.8906C94.125 11.1823 94.651 11.5729 95.1094 12.0625C95.5781 12.5417 95.9531 13.1042 96.2344 13.75C96.5156 14.3854 96.6562 15.0573 96.6562 15.7656ZM93.3125 16.1094C93.3125 15.224 93.0677 14.526 92.5781 14.0156C92.099 13.5052 91.401 13.25 90.4844 13.25C90.1823 13.25 89.8646 13.3438 89.5312 13.5312C89.1979 13.7083 88.875 13.9375 88.5625 14.2188C88.25 14.4896 87.9531 14.7812 87.6719 15.0938C87.401 15.4062 87.1719 15.6875 86.9844 15.9375C86.7969 16.1979 86.5885 16.5417 86.3594 16.9688C86.1302 17.3854 85.9167 17.8333 85.7188 18.3125C85.5208 18.7812 85.3542 19.2552 85.2188 19.7344C85.0833 20.2135 85.0156 20.6406 85.0156 21.0156C85.0156 21.2031 85.0469 21.3906 85.1094 21.5781C85.1823 21.7656 85.276 21.9375 85.3906 22.0938C85.5156 22.2396 85.6562 22.3646 85.8125 22.4688C85.9792 22.5625 86.1615 22.6094 86.3594 22.6094C86.651 22.6094 87.026 22.526 87.4844 22.3594C87.9427 22.1927 88.4271 21.9635 88.9375 21.6719C89.4583 21.3802 89.974 21.0312 90.4844 20.625C91.0052 20.2188 91.474 19.776 91.8906 19.2969C92.3177 18.8073 92.6615 18.2969 92.9219 17.7656C93.1823 17.224 93.3125 16.6719 93.3125 16.1094ZM139.188 14.4375C139.188 14.5729 139.094 14.7917 138.906 15.0938C138.719 15.3854 138.474 15.724 138.172 16.1094C137.88 16.4844 137.552 16.8854 137.188 17.3125C136.833 17.7292 136.484 18.1302 136.141 18.5156C135.995 18.6823 135.76 18.9427 135.438 19.2969C135.115 19.6406 134.734 20.026 134.297 20.4531C133.859 20.8698 133.375 21.3021 132.844 21.75C132.323 22.1979 131.786 22.6094 131.234 22.9844C130.682 23.349 130.13 23.651 129.578 23.8906C129.026 24.1198 128.505 24.2344 128.016 24.2344C127.432 24.2344 126.906 24.1354 126.438 23.9375C125.979 23.7292 125.589 23.4479 125.266 23.0938C124.953 22.7396 124.708 22.3229 124.531 21.8438C124.365 21.3646 124.281 20.849 124.281 20.2969C124.281 20.0677 124.292 19.7969 124.312 19.4844C124.344 19.1615 124.375 18.8177 124.406 18.4531C124.448 18.0885 124.479 17.7135 124.5 17.3281C124.531 16.9427 124.547 16.5729 124.547 16.2188C124.547 15.9792 124.531 15.7917 124.5 15.6562C124.469 15.5104 124.396 15.4375 124.281 15.4375C124.188 15.4375 124.036 15.526 123.828 15.7031C123.63 15.8802 123.401 16.1094 123.141 16.3906C122.891 16.6719 122.615 16.9896 122.312 17.3438C122.021 17.6979 121.734 18.0521 121.453 18.4062C121.182 18.7604 120.922 19.099 120.672 19.4219C120.432 19.7344 120.234 19.9948 120.078 20.2031C119.557 20.8906 119.052 21.5573 118.562 22.2031C118.083 22.849 117.646 23.5052 117.25 24.1719C116.979 24.6094 116.693 24.9115 116.391 25.0781C116.089 25.2448 115.865 25.3281 115.719 25.3281C115.375 25.3281 115.062 25.3073 114.781 25.2656C114.5 25.224 114.255 25.1406 114.047 25.0156C113.839 24.8906 113.677 24.7135 113.562 24.4844C113.448 24.2552 113.391 23.9531 113.391 23.5781C113.391 23.2448 113.417 22.875 113.469 22.4688C113.521 22.0625 113.578 21.6354 113.641 21.1875C113.714 20.7292 113.786 20.2552 113.859 19.7656C113.943 19.276 114.016 18.776 114.078 18.2656C114.151 17.6719 114.219 17.1354 114.281 16.6562C114.344 16.1771 114.396 15.7292 114.438 15.3125C114.49 14.8958 114.531 14.5 114.562 14.125C114.594 13.7396 114.615 13.349 114.625 12.9531C114.625 12.6823 114.672 12.4271 114.766 12.1875C114.87 11.9479 115 11.7396 115.156 11.5625C115.323 11.3854 115.51 11.2448 115.719 11.1406C115.927 11.0365 116.141 10.9844 116.359 10.9844C116.797 10.9844 117.135 11.0417 117.375 11.1562C117.625 11.2708 117.807 11.4323 117.922 11.6406C118.047 11.849 118.12 12.1094 118.141 12.4219C118.172 12.724 118.188 13.0677 118.188 13.4531C118.188 13.724 118.141 14.1302 118.047 14.6719C117.964 15.2031 117.844 15.8229 117.688 16.5312C117.615 16.8542 117.521 17.2135 117.406 17.6094C117.292 17.9948 117.177 18.375 117.062 18.75C116.958 19.125 116.865 19.4792 116.781 19.8125C116.708 20.1458 116.672 20.4271 116.672 20.6562C116.922 20.2708 117.219 19.8177 117.562 19.2969C117.906 18.7656 118.26 18.2344 118.625 17.7031C118.99 17.1615 119.344 16.651 119.688 16.1719C120.031 15.6823 120.333 15.2865 120.594 14.9844C120.99 14.5156 121.359 14.1146 121.703 13.7812C122.047 13.4375 122.37 13.1354 122.672 12.875C122.974 12.6146 123.26 12.3906 123.531 12.2031C123.812 12.0052 124.083 11.8229 124.344 11.6562C124.469 11.5729 124.63 11.5 124.828 11.4375C125.036 11.3646 125.245 11.3021 125.453 11.25C125.672 11.1979 125.875 11.1562 126.062 11.125C126.26 11.0938 126.406 11.0781 126.5 11.0781C126.729 11.0781 126.948 11.125 127.156 11.2188C127.365 11.3021 127.547 11.4219 127.703 11.5781C127.87 11.7344 128 11.9167 128.094 12.125C128.188 12.3333 128.234 12.5573 128.234 12.7969C128.234 13.1094 128.219 13.474 128.188 13.8906C128.167 14.3073 128.135 14.75 128.094 15.2188C128.052 15.6771 128.01 16.1458 127.969 16.625C127.927 17.1042 127.885 17.5573 127.844 17.9844C127.802 18.4115 127.766 18.8021 127.734 19.1562C127.714 19.5 127.703 19.776 127.703 19.9844C127.703 20.2865 127.766 20.5521 127.891 20.7812C128.016 21.0104 128.177 21.125 128.375 21.125C128.708 21.125 129.094 21.0156 129.531 20.7969C129.979 20.5781 130.448 20.2917 130.938 19.9375C131.427 19.5729 131.922 19.1667 132.422 18.7188C132.932 18.2708 133.422 17.8125 133.891 17.3438C134.359 16.875 134.792 16.4219 135.188 15.9844C135.583 15.5365 135.917 15.1458 136.188 14.8125C136.438 14.5104 136.661 14.2656 136.859 14.0781C137.068 13.8802 137.255 13.7292 137.422 13.625C137.589 13.5104 137.74 13.4375 137.875 13.4062C138.01 13.3646 138.135 13.3438 138.25 13.3438C138.552 13.3438 138.781 13.4583 138.938 13.6875C139.104 13.9062 139.188 14.1562 139.188 14.4375ZM149.469 15.7656C149.469 16.099 149.453 16.4062 149.422 16.6875C149.391 16.9583 149.339 17.224 149.266 17.4844C149.193 17.7448 149.104 18.0052 149 18.2656C148.896 18.526 148.771 18.8125 148.625 19.125C148.448 19.5104 148.167 19.9427 147.781 20.4219C147.396 20.8906 146.943 21.3646 146.422 21.8438C145.901 22.3229 145.328 22.7917 144.703 23.25C144.089 23.6979 143.448 24.099 142.781 24.4531C142.125 24.8073 141.469 25.0938 140.812 25.3125C140.156 25.5208 139.531 25.625 138.938 25.625C138.167 25.625 137.495 25.5 136.922 25.25C136.349 25 135.87 24.6719 135.484 24.2656C135.099 23.8594 134.812 23.3958 134.625 22.875C134.438 22.3542 134.344 21.8229 134.344 21.2812C134.344 20.7812 134.432 20.2031 134.609 19.5469C134.786 18.8802 135.016 18.2135 135.297 17.5469C135.578 16.8698 135.885 16.2292 136.219 15.625C136.552 15.0104 136.875 14.5052 137.188 14.1094C137.552 13.6406 137.995 13.1875 138.516 12.75C139.036 12.3125 139.615 11.9271 140.25 11.5938C140.885 11.25 141.562 10.974 142.281 10.7656C143.01 10.5573 143.76 10.4531 144.531 10.4531C145.146 10.4531 145.75 10.599 146.344 10.8906C146.938 11.1823 147.464 11.5729 147.922 12.0625C148.391 12.5417 148.766 13.1042 149.047 13.75C149.328 14.3854 149.469 15.0573 149.469 15.7656ZM146.125 16.1094C146.125 15.224 145.88 14.526 145.391 14.0156C144.911 13.5052 144.214 13.25 143.297 13.25C142.995 13.25 142.677 13.3438 142.344 13.5312C142.01 13.7083 141.688 13.9375 141.375 14.2188C141.062 14.4896 140.766 14.7812 140.484 15.0938C140.214 15.4062 139.984 15.6875 139.797 15.9375C139.609 16.1979 139.401 16.5417 139.172 16.9688C138.943 17.3854 138.729 17.8333 138.531 18.3125C138.333 18.7812 138.167 19.2552 138.031 19.7344C137.896 20.2135 137.828 20.6406 137.828 21.0156C137.828 21.2031 137.859 21.3906 137.922 21.5781C137.995 21.7656 138.089 21.9375 138.203 22.0938C138.328 22.2396 138.469 22.3646 138.625 22.4688C138.792 22.5625 138.974 22.6094 139.172 22.6094C139.464 22.6094 139.839 22.526 140.297 22.3594C140.755 22.1927 141.24 21.9635 141.75 21.6719C142.271 21.3802 142.786 21.0312 143.297 20.625C143.818 20.2188 144.286 19.776 144.703 19.2969C145.13 18.8073 145.474 18.2969 145.734 17.7656C145.995 17.224 146.125 16.6719 146.125 16.1094ZM192.594 13.6875C192.594 13.9167 192.448 14.2396 192.156 14.6562C191.875 15.0625 191.505 15.5156 191.047 16.0156C190.589 16.5052 190.078 17.0208 189.516 17.5625C188.953 18.1042 188.391 18.6146 187.828 19.0938C187.276 19.5729 186.755 20 186.266 20.375C185.786 20.75 185.401 21.026 185.109 21.2031C184.589 21.5156 184.104 21.8021 183.656 22.0625C183.219 22.3229 182.792 22.5573 182.375 22.7656C181.958 22.974 181.542 23.1562 181.125 23.3125C180.719 23.4688 180.286 23.599 179.828 23.7031C179.37 23.7969 178.875 23.8698 178.344 23.9219C177.812 23.974 177.219 24 176.562 24C176 24 175.438 23.8958 174.875 23.6875C174.323 23.4792 173.818 23.1667 173.359 22.75C172.911 22.3333 172.547 21.8073 172.266 21.1719C171.984 20.526 171.844 19.776 171.844 18.9219C171.844 18.7969 171.844 18.6771 171.844 18.5625C171.844 18.4375 171.854 18.3073 171.875 18.1719C171.823 18.2031 171.74 18.2656 171.625 18.3594C171.521 18.4427 171.411 18.5312 171.297 18.625C171.182 18.7188 171.068 18.8125 170.953 18.9062C170.849 18.9896 170.771 19.0521 170.719 19.0938C170.365 19.3958 169.995 19.7448 169.609 20.1406C169.234 20.5365 168.885 20.9427 168.562 21.3594C168.25 21.776 167.984 22.1875 167.766 22.5938C167.547 23 167.422 23.3646 167.391 23.6875C167.349 24.0521 167.271 24.3542 167.156 24.5938C167.052 24.8333 166.927 25.026 166.781 25.1719C166.646 25.3073 166.5 25.401 166.344 25.4531C166.188 25.5052 166.047 25.5312 165.922 25.5312C165.536 25.5312 165.234 25.4792 165.016 25.375C164.797 25.2604 164.635 25.1094 164.531 24.9219C164.427 24.7344 164.359 24.5208 164.328 24.2812C164.307 24.0417 164.297 23.7917 164.297 23.5312C164.297 23.4167 164.318 23.1979 164.359 22.875C164.411 22.5521 164.479 22.2083 164.562 21.8438C164.74 21 164.901 20.2031 165.047 19.4531C165.193 18.7031 165.292 18 165.344 17.3438C164.49 18.0938 163.656 18.8646 162.844 19.6562C162.042 20.4479 161.266 21.2031 160.516 21.9219C159.995 22.4115 159.458 22.9531 158.906 23.5469C158.365 24.1406 157.786 24.75 157.172 25.375C157.078 25.4792 156.953 25.5885 156.797 25.7031C156.641 25.8177 156.479 25.9219 156.312 26.0156C156.156 26.1094 156.01 26.1875 155.875 26.25C155.75 26.3125 155.661 26.3438 155.609 26.3438C155.453 26.3438 155.286 26.2969 155.109 26.2031C154.932 26.1198 154.766 26.0052 154.609 25.8594C154.464 25.7135 154.339 25.5521 154.234 25.375C154.141 25.1875 154.094 25.0052 154.094 24.8281C154.094 24.7344 154.12 24.625 154.172 24.5C154.234 24.3646 154.307 24.224 154.391 24.0781C154.484 23.9219 154.589 23.7656 154.703 23.6094C154.828 23.4427 154.953 23.2865 155.078 23.1406C155.286 22.8698 155.5 22.6042 155.719 22.3438C155.938 22.0729 156.156 21.8021 156.375 21.5312C156.594 21.2604 156.802 20.9792 157 20.6875C157.198 20.3958 157.37 20.0833 157.516 19.75C157.63 19.5 157.734 19.2188 157.828 18.9062C157.932 18.5938 158.021 18.2812 158.094 17.9688C158.177 17.6458 158.24 17.3333 158.281 17.0312C158.333 16.7292 158.359 16.4635 158.359 16.2344C158.359 15.849 158.318 15.4635 158.234 15.0781C158.161 14.6823 158.031 14.3281 157.844 14.0156C157.656 13.6927 157.411 13.4323 157.109 13.2344C156.807 13.0365 156.438 12.9375 156 12.9375C155.646 12.9375 155.292 13.0312 154.938 13.2188C154.583 13.3958 154.297 13.6042 154.078 13.8438C153.849 14.0833 153.615 14.2396 153.375 14.3125C153.135 14.375 152.911 14.4062 152.703 14.4062C152.609 14.4062 152.49 14.3646 152.344 14.2812C152.198 14.1979 152.089 14.0625 152.016 13.875C151.922 13.6875 151.875 13.4635 151.875 13.2031C151.875 12.8802 151.99 12.526 152.219 12.1406C152.448 11.7552 152.771 11.401 153.188 11.0781C153.615 10.7448 154.12 10.4688 154.703 10.25C155.297 10.0208 155.953 9.90625 156.672 9.90625C157.557 9.90625 158.307 10.0833 158.922 10.4375C159.536 10.7812 160.036 11.2135 160.422 11.7344C160.818 12.2448 161.104 12.8021 161.281 13.4062C161.458 14.0104 161.547 14.5625 161.547 15.0625C161.547 15.6979 161.5 16.2135 161.406 16.6094C161.312 16.9948 161.255 17.276 161.234 17.4531C161.651 17.0885 162.099 16.6771 162.578 16.2188C163.057 15.7604 163.521 15.2969 163.969 14.8281C164.417 14.3594 164.833 13.9062 165.219 13.4688C165.604 13.0208 165.911 12.6302 166.141 12.2969C166.193 12.2031 166.25 12.1198 166.312 12.0469C166.375 11.974 166.432 11.875 166.484 11.75C166.526 11.5625 166.583 11.375 166.656 11.1875C166.729 11 166.828 10.8333 166.953 10.6875C167.078 10.5312 167.234 10.4062 167.422 10.3125C167.62 10.2083 167.865 10.1562 168.156 10.1562C168.542 10.1562 168.875 10.2552 169.156 10.4531C169.438 10.6406 169.578 10.9479 169.578 11.375C169.578 11.6667 169.526 12.0208 169.422 12.4375C169.318 12.8542 169.224 13.2656 169.141 13.6719C169.068 13.9844 168.974 14.3438 168.859 14.75C168.755 15.1562 168.646 15.5625 168.531 15.9688C168.427 16.375 168.333 16.7604 168.25 17.125C168.167 17.4792 168.115 17.7708 168.094 18C168.49 17.6875 168.906 17.3385 169.344 16.9531C169.781 16.5677 170.219 16.1719 170.656 15.7656C171.094 15.3594 171.521 14.9583 171.938 14.5625C172.365 14.1562 172.771 13.7812 173.156 13.4375C173.385 13.2292 173.583 13.0365 173.75 12.8594C173.927 12.6823 174.094 12.5208 174.25 12.375C174.448 12.1875 174.63 12.0156 174.797 11.8594C174.974 11.7031 175.151 11.5521 175.328 11.4062C175.516 11.2604 175.714 11.1198 175.922 10.9844C176.13 10.8385 176.37 10.6927 176.641 10.5469C176.807 10.4531 177.021 10.3698 177.281 10.2969C177.542 10.224 177.807 10.1615 178.078 10.1094C178.359 10.0573 178.63 10.0208 178.891 10C179.161 9.96875 179.38 9.95312 179.547 9.95312C179.891 9.95312 180.198 10.026 180.469 10.1719C180.74 10.3073 180.979 10.4844 181.188 10.7031C181.396 10.9115 181.573 11.151 181.719 11.4219C181.865 11.6823 181.979 11.9427 182.062 12.2031C182.156 12.4531 182.224 12.6875 182.266 12.9062C182.307 13.1146 182.328 13.276 182.328 13.3906C182.328 13.5677 182.292 13.7604 182.219 13.9688C182.156 14.1771 182.062 14.375 181.938 14.5625C181.812 14.7396 181.661 14.8906 181.484 15.0156C181.318 15.1406 181.125 15.2031 180.906 15.2031C180.604 15.2031 180.359 15.151 180.172 15.0469C179.995 14.9323 179.854 14.8021 179.75 14.6562C179.646 14.5104 179.573 14.3646 179.531 14.2188C179.49 14.0625 179.458 13.9375 179.438 13.8438C179.396 13.6146 179.271 13.4115 179.062 13.2344C178.865 13.0573 178.661 12.9688 178.453 12.9688C178.089 12.9688 177.688 13.1094 177.25 13.3906C176.812 13.6719 176.406 14.0312 176.031 14.4688C175.656 14.8958 175.339 15.3698 175.078 15.8906C174.828 16.4115 174.703 16.9167 174.703 17.4062C174.703 17.8333 174.76 18.2708 174.875 18.7188C174.99 19.1562 175.151 19.5573 175.359 19.9219C175.568 20.276 175.818 20.5677 176.109 20.7969C176.401 21.026 176.729 21.1406 177.094 21.1406C177.802 21.1406 178.469 21.0833 179.094 20.9688C179.719 20.8542 180.297 20.7083 180.828 20.5312C181.359 20.3542 181.833 20.1615 182.25 19.9531C182.677 19.7344 183.042 19.526 183.344 19.3281C184.188 18.7656 185.047 18.1615 185.922 17.5156C186.807 16.8698 187.615 16.2292 188.344 15.5938C188.677 15.3125 189.026 15.0104 189.391 14.6875C189.755 14.3542 190.099 14.0469 190.422 13.7656C190.755 13.4844 191.047 13.25 191.297 13.0625C191.547 12.875 191.714 12.7812 191.797 12.7812C192.036 12.7812 192.229 12.8698 192.375 13.0469C192.521 13.2135 192.594 13.4271 192.594 13.6875ZM196.797 14.3281C196.797 13.7031 196.75 13.2552 196.656 12.9844C196.573 12.7135 196.458 12.5781 196.312 12.5781C196.125 12.5781 195.922 12.6198 195.703 12.7031C195.495 12.7865 195.286 12.8906 195.078 13.0156C194.88 13.1406 194.693 13.2812 194.516 13.4375C194.349 13.5938 194.208 13.7448 194.094 13.8906C193.729 14.3802 193.323 14.9583 192.875 15.625C192.427 16.2812 192.01 16.9583 191.625 17.6562C191.24 18.3438 190.911 19.0104 190.641 19.6562C190.38 20.2917 190.25 20.8385 190.25 21.2969C190.25 21.6406 190.297 21.9167 190.391 22.125C190.484 22.3333 190.667 22.4427 190.938 22.4531C191.083 22.4531 191.302 22.3542 191.594 22.1562C191.896 21.9583 192.219 21.7083 192.562 21.4062C192.917 21.0938 193.266 20.7552 193.609 20.3906C193.953 20.0156 194.245 19.6615 194.484 19.3281C194.745 18.9635 195.01 18.5729 195.281 18.1562C195.562 17.7292 195.812 17.2969 196.031 16.8594C196.26 16.4115 196.443 15.974 196.578 15.5469C196.724 15.1094 196.797 14.7031 196.797 14.3281ZM206.984 19.9688C206.984 20.1771 206.911 20.4531 206.766 20.7969C206.62 21.1302 206.411 21.4896 206.141 21.875C205.88 22.2604 205.562 22.651 205.188 23.0469C204.823 23.4323 204.417 23.7812 203.969 24.0938C203.531 24.4062 203.062 24.6615 202.562 24.8594C202.062 25.0573 201.542 25.1562 201 25.1562C199.823 25.1562 198.88 24.7656 198.172 23.9844C197.474 23.1927 197.047 22.0677 196.891 20.6094C196.443 21.276 195.922 21.9062 195.328 22.5C194.734 23.0833 194.125 23.599 193.5 24.0469C192.875 24.4844 192.26 24.8333 191.656 25.0938C191.062 25.3438 190.536 25.4688 190.078 25.4688C189.672 25.4688 189.286 25.3802 188.922 25.2031C188.557 25.0156 188.234 24.7656 187.953 24.4531C187.682 24.1406 187.464 23.7812 187.297 23.375C187.13 22.9688 187.047 22.5417 187.047 22.0938C187.047 21.6979 187.083 21.2812 187.156 20.8438C187.229 20.3958 187.344 19.9167 187.5 19.4062C187.656 18.8958 187.859 18.3385 188.109 17.7344C188.37 17.1302 188.688 16.4688 189.062 15.75C189.479 14.9479 189.979 14.1875 190.562 13.4688C191.156 12.7396 191.76 12.1042 192.375 11.5625C193 11.0104 193.594 10.5729 194.156 10.25C194.729 9.92708 195.198 9.76562 195.562 9.76562C195.688 9.76562 195.818 9.78646 195.953 9.82812C196.089 9.85938 196.219 9.90104 196.344 9.95312C196.469 9.99479 196.578 10.0365 196.672 10.0781C196.766 10.1198 196.833 10.1406 196.875 10.1406C196.875 10.1406 196.906 10.1198 196.969 10.0781C197.031 10.0365 197.104 9.99479 197.188 9.95312C197.281 9.90104 197.385 9.85938 197.5 9.82812C197.615 9.78646 197.729 9.76562 197.844 9.76562C198.021 9.76562 198.208 9.81771 198.406 9.92188C198.615 10.0156 198.812 10.1458 199 10.3125C199.188 10.4688 199.349 10.6458 199.484 10.8438C199.63 11.0417 199.729 11.2396 199.781 11.4375C199.812 11.5625 199.839 11.651 199.859 11.7031C199.891 11.7448 199.922 11.7865 199.953 11.8281C200.068 11.9427 200.167 12.0781 200.25 12.2344C200.333 12.3802 200.375 12.5885 200.375 12.8594C200.375 12.9844 200.339 13.2135 200.266 13.5469C200.203 13.8698 200.125 14.2396 200.031 14.6562C199.948 15.0729 199.87 15.5104 199.797 15.9688C199.734 16.4167 199.703 16.8281 199.703 17.2031C199.703 18.1719 199.745 18.974 199.828 19.6094C199.911 20.2448 200.026 20.7448 200.172 21.1094C200.328 21.474 200.505 21.7292 200.703 21.875C200.911 22.0208 201.135 22.0938 201.375 22.0938C201.583 22.0938 201.812 22.0625 202.062 22C202.323 21.9375 202.583 21.849 202.844 21.7344C203.104 21.6094 203.365 21.4583 203.625 21.2812C203.885 21.0938 204.125 20.875 204.344 20.625C204.708 20.2188 205.042 19.8906 205.344 19.6406C205.646 19.3906 205.938 19.2656 206.219 19.2656C206.458 19.2656 206.646 19.3281 206.781 19.4531C206.917 19.5781 206.984 19.75 206.984 19.9688ZM234.875 16.0625C234.792 16.2708 234.62 16.5729 234.359 16.9688C234.109 17.3646 233.786 17.8177 233.391 18.3281C232.995 18.8281 232.536 19.3698 232.016 19.9531C231.505 20.526 230.953 21.099 230.359 21.6719C229.776 22.2448 229.161 22.7969 228.516 23.3281C227.87 23.8594 227.214 24.3281 226.547 24.7344C225.891 25.1406 225.234 25.4635 224.578 25.7031C223.922 25.9427 223.286 26.0625 222.672 26.0625C222.276 26.0625 221.885 26 221.5 25.875C221.125 25.7396 220.786 25.5312 220.484 25.25C220.193 24.9688 219.953 24.6094 219.766 24.1719C219.589 23.7344 219.5 23.2083 219.5 22.5938C219.5 22.2812 219.516 21.9167 219.547 21.5C219.589 21.0833 219.635 20.6406 219.688 20.1719C219.75 19.7031 219.818 19.2188 219.891 18.7188C219.974 18.2188 220.062 17.7292 220.156 17.25C220.219 16.9062 220.286 16.5417 220.359 16.1562C220.432 15.7604 220.495 15.3802 220.547 15.0156C220.609 14.651 220.661 14.3229 220.703 14.0312C220.745 13.7292 220.766 13.5104 220.766 13.375C220.766 13.3229 220.724 13.25 220.641 13.1562C220.568 13.0625 220.521 13.0156 220.5 13.0156C220.312 13.0156 220.135 13.099 219.969 13.2656C219.812 13.4219 219.63 13.7292 219.422 14.1875C219.057 15 218.672 15.8125 218.266 16.625C217.859 17.4375 217.443 18.2135 217.016 18.9531C216.599 19.6927 216.177 20.3802 215.75 21.0156C215.323 21.6406 214.906 22.1823 214.5 22.6406C214.094 23.099 213.661 23.4896 213.203 23.8125C212.755 24.1354 212.297 24.401 211.828 24.6094C211.37 24.8073 210.906 24.9531 210.438 25.0469C209.979 25.1406 209.531 25.1875 209.094 25.1875C208.5 25.1875 207.958 25.1094 207.469 24.9531C206.979 24.7969 206.557 24.5625 206.203 24.25C205.859 23.9271 205.594 23.526 205.406 23.0469C205.208 22.5573 205.109 21.9844 205.109 21.3281C205.109 20.974 205.172 20.6667 205.297 20.4062C205.411 20.1354 205.562 19.9115 205.75 19.7344C205.938 19.5573 206.146 19.4271 206.375 19.3438C206.604 19.25 206.828 19.2031 207.047 19.2031C207.182 19.2031 207.328 19.2292 207.484 19.2812C207.641 19.3333 207.786 19.4167 207.922 19.5312C208.057 19.6354 208.172 19.776 208.266 19.9531C208.359 20.1198 208.411 20.3281 208.422 20.5781C208.432 20.8802 208.479 21.125 208.562 21.3125C208.646 21.5 208.745 21.6458 208.859 21.75C208.974 21.8438 209.094 21.9115 209.219 21.9531C209.354 21.9844 209.474 22 209.578 22C209.964 22 210.365 21.9062 210.781 21.7188C211.208 21.5312 211.641 21.2448 212.078 20.8594C212.526 20.4635 212.969 19.974 213.406 19.3906C213.844 18.7969 214.271 18.099 214.688 17.2969C215.115 16.4635 215.51 15.7031 215.875 15.0156C216.24 14.3281 216.583 13.7083 216.906 13.1562C217.229 12.6042 217.536 12.125 217.828 11.7188C218.13 11.3021 218.432 10.9583 218.734 10.6875C218.88 10.5625 219.068 10.4531 219.297 10.3594C219.536 10.2656 219.786 10.1875 220.047 10.125C220.307 10.0625 220.562 10.0156 220.812 9.98438C221.073 9.95312 221.297 9.9375 221.484 9.9375C221.807 9.9375 222.125 10.0052 222.438 10.1406C222.76 10.276 223.047 10.474 223.297 10.7344C223.557 10.9844 223.771 11.2917 223.938 11.6562C224.115 12.0208 224.219 12.4375 224.25 12.9062C224.25 13 224.224 13.1979 224.172 13.5C224.12 13.7917 224.052 14.151 223.969 14.5781C223.885 15.0052 223.797 15.4844 223.703 16.0156C223.62 16.5365 223.536 17.0781 223.453 17.6406C223.37 18.1927 223.302 18.7448 223.25 19.2969C223.198 19.849 223.172 20.3594 223.172 20.8281C223.172 21.276 223.198 21.625 223.25 21.875C223.312 22.125 223.385 22.3125 223.469 22.4375C223.562 22.5521 223.656 22.625 223.75 22.6562C223.854 22.6771 223.943 22.6875 224.016 22.6875C224.391 22.6875 224.839 22.5573 225.359 22.2969C225.891 22.0365 226.469 21.6719 227.094 21.2031C227.719 20.7344 228.38 20.1719 229.078 19.5156C229.786 18.8594 230.5 18.1354 231.219 17.3438C231.5 17.0312 231.771 16.7396 232.031 16.4688C232.302 16.1979 232.552 15.9635 232.781 15.7656C233.021 15.5677 233.24 15.4115 233.438 15.2969C233.646 15.1823 233.828 15.125 233.984 15.125C234.193 15.125 234.391 15.224 234.578 15.4219C234.776 15.6094 234.875 15.8229 234.875 16.0625ZM241.281 15.9375C241.281 15.6979 241.271 15.5052 241.25 15.3594C241.24 15.2135 241.219 15.0938 241.188 15C241.156 14.9062 241.115 14.8333 241.062 14.7812C241.021 14.7292 240.969 14.6719 240.906 14.6094C240.802 14.5052 240.688 14.3698 240.562 14.2031C240.448 14.0365 240.333 13.8802 240.219 13.7344C240.115 13.5781 240.016 13.4479 239.922 13.3438C239.839 13.2292 239.771 13.1719 239.719 13.1719C239.458 13.1719 239.182 13.25 238.891 13.4062C238.599 13.5625 238.302 13.7865 238 14.0781C237.708 14.3594 237.422 14.7031 237.141 15.1094C236.87 15.5156 236.615 15.974 236.375 16.4844C236.177 16.9115 235.984 17.3646 235.797 17.8438C235.609 18.3229 235.443 18.8125 235.297 19.3125C235.151 19.8021 235.031 20.2917 234.938 20.7812C234.854 21.2604 234.812 21.7188 234.812 22.1562C234.812 22.4271 234.922 22.6667 235.141 22.875C235.37 23.0729 235.698 23.1719 236.125 23.1719C236.312 23.1719 236.552 23.1198 236.844 23.0156C237.146 22.9115 237.453 22.7812 237.766 22.625C238.078 22.4688 238.375 22.2969 238.656 22.1094C238.948 21.9115 239.172 21.7292 239.328 21.5625C239.797 21.0625 240.161 20.625 240.422 20.25C240.693 19.8646 240.891 19.474 241.016 19.0781C241.141 18.6719 241.214 18.2292 241.234 17.75C241.266 17.2604 241.281 16.6562 241.281 15.9375ZM253.969 15.0625C253.969 15.4792 253.812 15.9115 253.5 16.3594C253.198 16.8073 252.776 17.2188 252.234 17.5938C251.703 17.9583 251.068 18.2604 250.328 18.5C249.599 18.7396 248.812 18.8594 247.969 18.8594C247.573 18.8594 247.203 18.8281 246.859 18.7656C246.526 18.7031 246.219 18.6302 245.938 18.5469C245.667 18.4531 245.427 18.3542 245.219 18.25C245.01 18.1458 244.833 18.0573 244.688 17.9844C244.708 18.0885 244.719 18.1875 244.719 18.2812C244.729 18.375 244.734 18.4323 244.734 18.4531C244.714 18.6823 244.682 18.9271 244.641 19.1875C244.609 19.4375 244.542 19.7083 244.438 20C244.344 20.2917 244.208 20.6042 244.031 20.9375C243.854 21.2708 243.615 21.6354 243.312 22.0312L243.328 22.0156C243.089 22.3385 242.786 22.6667 242.422 23C242.057 23.3229 241.656 23.6406 241.219 23.9531C240.781 24.2552 240.318 24.5417 239.828 24.8125C239.339 25.0729 238.844 25.3073 238.344 25.5156C237.854 25.7135 237.365 25.8698 236.875 25.9844C236.396 26.099 235.948 26.1562 235.531 26.1562C234.74 26.1562 234.083 26.0312 233.562 25.7812C233.052 25.5208 232.646 25.1771 232.344 24.75C232.042 24.3125 231.828 23.8073 231.703 23.2344C231.589 22.651 231.531 22.0365 231.531 21.3906C231.531 20.7656 231.599 20.1458 231.734 19.5312C231.88 18.9062 232.068 18.2917 232.297 17.6875C232.536 17.0729 232.802 16.474 233.094 15.8906C233.385 15.3073 233.682 14.7448 233.984 14.2031V14.2188C234.776 12.7604 235.693 11.651 236.734 10.8906C237.776 10.1302 238.891 9.75 240.078 9.75C240.391 9.75 240.708 9.78646 241.031 9.85938C241.354 9.93229 241.661 10.0365 241.953 10.1719C242.255 10.3073 242.536 10.4688 242.797 10.6562C243.068 10.8438 243.302 11.0573 243.5 11.2969C243.625 11.4531 243.755 11.6823 243.891 11.9844C244.036 12.2865 244.167 12.5938 244.281 12.9062C244.396 13.2083 244.495 13.474 244.578 13.7031C244.661 13.9323 244.714 14.0573 244.734 14.0781C244.943 14.3385 245.177 14.5938 245.438 14.8438C245.708 15.0833 246 15.3021 246.312 15.5C246.635 15.6875 246.974 15.8385 247.328 15.9531C247.693 16.0677 248.073 16.125 248.469 16.125C248.719 16.125 248.995 16.1094 249.297 16.0781C249.599 16.0365 249.901 15.974 250.203 15.8906C250.516 15.8073 250.823 15.6979 251.125 15.5625C251.427 15.4167 251.703 15.2344 251.953 15.0156C252.161 14.8385 252.349 14.6875 252.516 14.5625C252.693 14.4271 252.922 14.3594 253.203 14.3594C253.422 14.3594 253.604 14.4427 253.75 14.6094C253.896 14.776 253.969 14.9271 253.969 15.0625ZM264.938 18.7031C264.604 18.7031 264.26 18.6823 263.906 18.6406C263.552 18.599 263.203 18.5365 262.859 18.4531C262.818 19.3385 262.682 20.1562 262.453 20.9062C262.224 21.6562 261.932 22.3385 261.578 22.9531C261.234 23.5573 260.839 24.0885 260.391 24.5469C259.943 25.0052 259.469 25.3906 258.969 25.7031C258.479 26.0156 257.974 26.25 257.453 26.4062C256.932 26.5729 256.427 26.6562 255.938 26.6562C255.771 26.6562 255.526 26.6354 255.203 26.5938C254.891 26.5625 254.547 26.474 254.172 26.3281C253.797 26.1823 253.411 25.9635 253.016 25.6719C252.63 25.3698 252.276 24.9583 251.953 24.4375C251.641 23.9062 251.38 23.2448 251.172 22.4531C250.974 21.6615 250.875 20.7031 250.875 19.5781C250.875 17.9844 251.016 16.4219 251.297 14.8906C251.589 13.3594 251.969 11.9375 252.438 10.625C252.917 9.30208 253.464 8.125 254.078 7.09375C254.693 6.0625 255.328 5.24479 255.984 4.64062C256.547 4.10938 257.161 3.67708 257.828 3.34375C258.505 3 259.219 2.82812 259.969 2.82812C260.438 2.82812 260.891 2.89062 261.328 3.01562C261.766 3.14062 262.146 3.33854 262.469 3.60938C262.802 3.88021 263.068 4.22396 263.266 4.64062C263.464 5.05729 263.562 5.5625 263.562 6.15625C263.562 6.9375 263.255 7.88021 262.641 8.98438C262.026 10.0885 261.062 11.3021 259.75 12.625C260.135 12.6979 260.469 12.8229 260.75 13C261.042 13.1771 261.286 13.3698 261.484 13.5781C261.693 13.776 261.854 13.974 261.969 14.1719C262.094 14.3698 262.177 14.526 262.219 14.6406C262.75 15.026 263.286 15.3021 263.828 15.4688C264.38 15.6354 264.927 15.7188 265.469 15.7188C266.333 15.7188 267.115 15.599 267.812 15.3594C268.51 15.1198 269.109 14.7917 269.609 14.375C269.839 14.1875 270.057 14.0208 270.266 13.875C270.484 13.7292 270.719 13.6562 270.969 13.6562C271.094 13.6562 271.229 13.7135 271.375 13.8281C271.531 13.9323 271.609 14.1094 271.609 14.3594C271.609 14.4635 271.599 14.5885 271.578 14.7344C271.568 14.8698 271.536 15.0208 271.484 15.1875C271.432 15.3438 271.359 15.5104 271.266 15.6875C271.172 15.8542 271.042 16.026 270.875 16.2031C270.438 16.6615 270.005 17.0521 269.578 17.375C269.151 17.6875 268.698 17.9427 268.219 18.1406C267.75 18.3385 267.245 18.4844 266.703 18.5781C266.172 18.6615 265.583 18.7031 264.938 18.7031ZM259.5 17.2812C259.302 17.1667 259.099 17.0208 258.891 16.8438C258.693 16.6562 258.505 16.4427 258.328 16.2031C258.161 15.9635 258.021 15.7031 257.906 15.4219C257.802 15.1406 257.75 14.8438 257.75 14.5312C257.583 14.6667 257.359 14.8385 257.078 15.0469C256.807 15.2552 256.51 15.4792 256.188 15.7188C255.865 15.9479 255.542 16.1875 255.219 16.4375C254.896 16.6771 254.604 16.901 254.344 17.1094C254.323 17.2031 254.302 17.3385 254.281 17.5156C254.26 17.6823 254.24 17.875 254.219 18.0938C254.198 18.3125 254.182 18.5469 254.172 18.7969C254.161 19.0469 254.156 19.3021 254.156 19.5625C254.156 20.4167 254.219 21.125 254.344 21.6875C254.479 22.2396 254.641 22.6771 254.828 23C255.026 23.3229 255.234 23.5469 255.453 23.6719C255.682 23.7969 255.896 23.8594 256.094 23.8594C256.594 23.8594 257.052 23.6667 257.469 23.2812C257.896 22.8958 258.26 22.4167 258.562 21.8438C258.875 21.2708 259.115 20.6562 259.281 20C259.448 19.3438 259.531 18.7448 259.531 18.2031V18.1875L259.5 17.2812ZM260.438 6.84375C260.438 6.44792 260.37 6.15625 260.234 5.96875C260.099 5.77083 259.911 5.67188 259.672 5.67188C259.339 5.67188 258.964 5.85938 258.547 6.23438C258.141 6.60938 257.724 7.14062 257.297 7.82812C256.88 8.51562 256.469 9.34375 256.062 10.3125C255.667 11.2708 255.312 12.3385 255 13.5156C255.24 13.3177 255.536 13.0677 255.891 12.7656C256.255 12.4635 256.641 12.125 257.047 11.75C257.453 11.375 257.854 10.9792 258.25 10.5625C258.656 10.1458 259.021 9.72396 259.344 9.29688C259.667 8.85938 259.927 8.43229 260.125 8.01562C260.333 7.59896 260.438 7.20833 260.438 6.84375ZM277.281 13.6094C277.281 13.5573 277.26 13.4896 277.219 13.4062C277.188 13.3229 277.141 13.2448 277.078 13.1719C277.026 13.099 276.964 13.0365 276.891 12.9844C276.828 12.9323 276.766 12.9062 276.703 12.9062C276.203 12.9062 275.719 13.0156 275.25 13.2344C274.781 13.4531 274.396 13.7396 274.094 14.0938C273.708 14.5417 273.318 15.0938 272.922 15.75C272.526 16.4062 272.161 17.0938 271.828 17.8125C271.505 18.5312 271.24 19.2448 271.031 19.9531C270.823 20.6615 270.719 21.2969 270.719 21.8594C270.719 21.9427 270.74 22.0417 270.781 22.1562C270.833 22.2604 270.896 22.3646 270.969 22.4688C271.052 22.5729 271.146 22.6615 271.25 22.7344C271.354 22.7969 271.469 22.8281 271.594 22.8281C271.781 22.8281 272.026 22.724 272.328 22.5156C272.63 22.3073 272.953 22.0365 273.297 21.7031C273.641 21.3594 273.984 20.974 274.328 20.5469C274.682 20.1198 275 19.6823 275.281 19.2344C275.833 18.3698 276.292 17.4635 276.656 16.5156C277.021 15.5677 277.229 14.599 277.281 13.6094ZM291.859 15.3125C291.859 15.3646 291.833 15.4792 291.781 15.6562C291.74 15.8333 291.682 15.9844 291.609 16.1094C291.568 16.1927 291.438 16.401 291.219 16.7344C291 17.0573 290.698 17.4583 290.312 17.9375C289.927 18.4062 289.464 18.9271 288.922 19.5C288.38 20.0729 287.76 20.651 287.062 21.2344C286.26 21.901 285.542 22.4531 284.906 22.8906C284.271 23.3281 283.693 23.6771 283.172 23.9375C282.661 24.1875 282.198 24.3646 281.781 24.4688C281.365 24.5625 280.969 24.6094 280.594 24.6094C280.135 24.6094 279.708 24.5417 279.312 24.4062C278.917 24.2708 278.562 24.0469 278.25 23.7344C277.938 23.4219 277.672 23.0104 277.453 22.5C277.245 21.9792 277.099 21.3333 277.016 20.5625C276.63 21.2292 276.198 21.8854 275.719 22.5312C275.25 23.1667 274.755 23.7292 274.234 24.2188C273.724 24.7083 273.193 25.1042 272.641 25.4062C272.099 25.7083 271.557 25.8594 271.016 25.8594C270.661 25.8594 270.281 25.7812 269.875 25.625C269.479 25.4583 269.109 25.224 268.766 24.9219C268.432 24.6198 268.151 24.2448 267.922 23.7969C267.703 23.3385 267.594 22.8229 267.594 22.25C267.594 21.7917 267.651 21.2812 267.766 20.7188C267.88 20.1458 268.036 19.5521 268.234 18.9375C268.432 18.3229 268.661 17.7083 268.922 17.0938C269.182 16.4792 269.453 15.8958 269.734 15.3438C270.026 14.7812 270.318 14.2708 270.609 13.8125C270.911 13.3542 271.198 12.9792 271.469 12.6875C271.781 12.3542 272.156 12.0156 272.594 11.6719C273.031 11.3281 273.516 11.0208 274.047 10.75C274.578 10.4688 275.151 10.2448 275.766 10.0781C276.38 9.90104 277.026 9.8125 277.703 9.8125C278.391 9.8125 278.906 10 279.25 10.375C279.594 10.7396 279.823 11.3021 279.938 12.0625C279.938 12.1354 279.969 12.224 280.031 12.3281C280.104 12.4323 280.177 12.5417 280.25 12.6562C280.333 12.7604 280.406 12.875 280.469 13C280.531 13.1146 280.562 13.2292 280.562 13.3438C280.562 13.5 280.526 13.6927 280.453 13.9219C280.391 14.151 280.312 14.4115 280.219 14.7031C280.135 14.9844 280.057 15.3021 279.984 15.6562C279.922 16 279.891 16.375 279.891 16.7812V17.3438C279.891 17.7917 279.896 18.2552 279.906 18.7344C279.927 19.2031 279.974 19.6302 280.047 20.0156C280.13 20.401 280.25 20.7188 280.406 20.9688C280.573 21.2188 280.797 21.3438 281.078 21.3438C281.276 21.3438 281.526 21.3021 281.828 21.2188C282.141 21.125 282.49 20.9844 282.875 20.7969C283.26 20.6094 283.672 20.375 284.109 20.0938C284.557 19.8125 285.021 19.4792 285.5 19.0938C286.156 18.5625 286.766 18.0365 287.328 17.5156C287.891 16.9844 288.401 16.5104 288.859 16.0938C289.328 15.6771 289.74 15.3385 290.094 15.0781C290.458 14.8177 290.766 14.6875 291.016 14.6875C291.578 14.6875 291.859 14.8958 291.859 15.3125ZM313.125 13.0781C313.104 13.3906 313.052 13.7344 312.969 14.1094C312.896 14.474 312.818 14.8385 312.734 15.2031C312.641 15.651 312.547 16.1615 312.453 16.7344C312.359 17.2969 312.312 17.8542 312.312 18.4062C312.312 18.7812 312.349 19.1458 312.422 19.5C312.495 19.8438 312.594 20.1562 312.719 20.4375C312.854 20.7188 313.021 20.9531 313.219 21.1406C313.417 21.3177 313.641 21.4271 313.891 21.4688C314.266 21.4688 314.688 21.3646 315.156 21.1562C315.635 20.9375 316.13 20.651 316.641 20.2969C317.161 19.9427 317.688 19.5417 318.219 19.0938C318.76 18.6354 319.276 18.1667 319.766 17.6875C320.266 17.1979 320.734 16.7135 321.172 16.2344C321.609 15.7448 321.99 15.3021 322.312 14.9062C322.396 14.7917 322.505 14.7031 322.641 14.6406C322.786 14.5677 322.922 14.5312 323.047 14.5312C323.161 14.5312 323.271 14.5833 323.375 14.6875C323.49 14.7917 323.547 14.9792 323.547 15.25C323.547 15.5104 323.469 15.8542 323.312 16.2812C323.156 16.7083 322.911 17.1875 322.578 17.7188C322.359 18.0833 322.047 18.5 321.641 18.9688C321.245 19.4375 320.786 19.9219 320.266 20.4219C319.745 20.9219 319.177 21.4115 318.562 21.8906C317.958 22.3698 317.339 22.8021 316.703 23.1875C316.068 23.5625 315.432 23.8646 314.797 24.0938C314.161 24.3229 313.557 24.4375 312.984 24.4375C312.109 24.4375 311.396 24.2604 310.844 23.9062C310.292 23.5521 309.859 23.099 309.547 22.5469C309.245 21.9844 309.036 21.3646 308.922 20.6875C308.807 20 308.75 19.3229 308.75 18.6562C308.75 18.5208 308.75 18.349 308.75 18.1406C308.76 17.9219 308.781 17.6875 308.812 17.4375C308.844 17.1875 308.885 16.9271 308.938 16.6562C309 16.375 309.078 16.1042 309.172 15.8438C308.901 16.1354 308.547 16.5417 308.109 17.0625C307.682 17.5833 307.229 18.1562 306.75 18.7812C306.281 19.4062 305.818 20.0521 305.359 20.7188C304.901 21.3854 304.505 22.0208 304.172 22.625C304.047 22.8958 303.922 23.151 303.797 23.3906C303.682 23.6198 303.547 23.8229 303.391 24C303.245 24.1771 303.083 24.3177 302.906 24.4219C302.729 24.526 302.526 24.5781 302.297 24.5781C302.224 24.5781 302.099 24.5417 301.922 24.4688C301.755 24.3958 301.578 24.3021 301.391 24.1875C301.214 24.0625 301.047 23.9271 300.891 23.7812C300.734 23.625 300.635 23.474 300.594 23.3281C300.552 23.1615 300.531 22.8542 300.531 22.4062C300.531 22.2292 300.536 21.9896 300.547 21.6875C300.568 21.3854 300.583 21.0469 300.594 20.6719C300.615 20.2865 300.63 19.8802 300.641 19.4531C300.661 19.0156 300.672 18.5781 300.672 18.1406C300.672 17.7552 300.656 17.3802 300.625 17.0156C300.604 16.651 300.568 16.349 300.516 16.1094C300.37 16.2031 300.198 16.349 300 16.5469C299.812 16.7448 299.609 16.9792 299.391 17.25C299.172 17.5104 298.948 17.7969 298.719 18.1094C298.5 18.4115 298.281 18.7292 298.062 19.0625C297.292 20.25 296.646 21.2917 296.125 22.1875C295.604 23.0833 295.203 23.8646 294.922 24.5312C294.734 24.9792 294.542 25.349 294.344 25.6406C294.156 25.9323 293.969 26.1615 293.781 26.3281C293.594 26.5052 293.406 26.625 293.219 26.6875C293.042 26.7604 292.87 26.7969 292.703 26.7969C292.255 26.7969 291.901 26.6823 291.641 26.4531C291.391 26.224 291.203 25.9219 291.078 25.5469C290.953 25.1615 290.875 24.7135 290.844 24.2031C290.823 23.6927 290.812 23.1562 290.812 22.5938C290.812 22.1042 290.828 21.5833 290.859 21.0312C290.891 20.4688 290.922 19.9219 290.953 19.3906C290.995 18.8594 291.031 18.3594 291.062 17.8906C291.094 17.4115 291.109 17.0156 291.109 16.7031C291.109 16.4427 291.099 16.1719 291.078 15.8906C291.068 15.599 291.062 15.3021 291.062 15C291.062 14.4896 291.125 14.0677 291.25 13.7344C291.375 13.3906 291.542 13.1198 291.75 12.9219C291.958 12.724 292.208 12.5833 292.5 12.5C292.792 12.4167 293.099 12.375 293.422 12.375C293.703 12.375 293.932 12.4115 294.109 12.4844C294.297 12.5469 294.438 12.6354 294.531 12.75C294.635 12.8646 294.708 13 294.75 13.1562C294.792 13.3021 294.812 13.4635 294.812 13.6406C294.812 13.7344 294.781 13.9792 294.719 14.375C294.656 14.7604 294.578 15.224 294.484 15.7656C294.401 16.3073 294.302 16.8906 294.188 17.5156C294.083 18.1302 293.984 18.7083 293.891 19.25C293.797 19.7917 293.719 20.2552 293.656 20.6406C293.594 21.026 293.557 21.2656 293.547 21.3594C293.661 21.1406 293.812 20.8438 294 20.4688C294.198 20.0833 294.406 19.6875 294.625 19.2812C294.844 18.8646 295.052 18.4688 295.25 18.0938C295.458 17.7188 295.63 17.4219 295.766 17.2031C296.307 16.3281 296.844 15.5677 297.375 14.9219C297.906 14.276 298.422 13.7448 298.922 13.3281C299.432 12.901 299.917 12.5833 300.375 12.375C300.844 12.1667 301.276 12.0625 301.672 12.0625C302.089 12.1042 302.438 12.25 302.719 12.5C303.01 12.75 303.24 13.0573 303.406 13.4219C303.583 13.776 303.708 14.1667 303.781 14.5938C303.854 15.0208 303.891 15.4375 303.891 15.8438C303.891 15.9896 303.88 16.1875 303.859 16.4375C303.849 16.6771 303.833 16.9427 303.812 17.2344C303.792 17.5156 303.76 17.8021 303.719 18.0938C303.688 18.375 303.646 18.6354 303.594 18.875C303.656 18.75 303.781 18.5417 303.969 18.25C304.167 17.9583 304.375 17.651 304.594 17.3281C304.812 17.0052 305.021 16.7083 305.219 16.4375C305.417 16.1667 305.547 15.9896 305.609 15.9062C306.12 15.2812 306.62 14.6875 307.109 14.125C307.609 13.5625 308.104 13.0729 308.594 12.6562C309.094 12.2396 309.583 11.9115 310.062 11.6719C310.542 11.4219 311.021 11.2969 311.5 11.2969C311.74 11.2969 311.958 11.3594 312.156 11.4844C312.365 11.6094 312.536 11.7656 312.672 11.9531C312.818 12.1302 312.927 12.3229 313 12.5312C313.083 12.7292 313.125 12.9062 313.125 13.0625V13.0781ZM331.922 15.7812C332.109 16.0625 332.26 16.3854 332.375 16.75C332.5 17.1042 332.594 17.4531 332.656 17.7969C332.719 18.1302 332.76 18.4271 332.781 18.6875C332.812 18.9479 332.828 19.125 332.828 19.2188C332.828 19.8333 332.703 20.4635 332.453 21.1094C332.203 21.7448 331.87 22.3646 331.453 22.9688C331.036 23.5625 330.562 24.1302 330.031 24.6719C329.5 25.2031 328.948 25.6667 328.375 26.0625C327.802 26.4583 327.234 26.7708 326.672 27C326.109 27.2396 325.594 27.3594 325.125 27.3594C323.708 27.3594 322.688 26.9167 322.062 26.0312C321.438 25.1458 321.125 23.8073 321.125 22.0156C321.125 21.599 321.193 21.0573 321.328 20.3906C321.464 19.724 321.635 19.0052 321.844 18.2344C322.052 17.4635 322.281 16.6771 322.531 15.875C322.781 15.0729 323.021 14.3229 323.25 13.625C323.49 12.9271 323.703 12.3229 323.891 11.8125C324.078 11.2917 324.208 10.9323 324.281 10.7344C324.344 10.5885 324.453 10.4479 324.609 10.3125C324.766 10.1771 324.938 10.0573 325.125 9.95312C325.312 9.84896 325.5 9.76562 325.688 9.70312C325.875 9.64062 326.031 9.60938 326.156 9.60938C326.458 9.60938 326.714 9.66667 326.922 9.78125C327.13 9.89583 327.302 10.0365 327.438 10.2031C327.573 10.3698 327.672 10.5417 327.734 10.7188C327.797 10.8958 327.828 11.0469 327.828 11.1719C327.828 11.2656 327.776 11.4583 327.672 11.75C327.568 12.0417 327.438 12.3802 327.281 12.7656C327.125 13.1406 326.964 13.5365 326.797 13.9531C326.63 14.3594 326.484 14.7292 326.359 15.0625C326.495 14.9479 326.667 14.8333 326.875 14.7188C327.083 14.6042 327.297 14.5052 327.516 14.4219C327.745 14.3281 327.964 14.2552 328.172 14.2031C328.391 14.1406 328.573 14.1094 328.719 14.1094C329.521 14.1094 330.177 14.2656 330.688 14.5781C331.198 14.8906 331.615 15.2917 331.938 15.7812H331.922ZM329.484 19.25C329.484 18.4896 329.349 17.9115 329.078 17.5156C328.807 17.1094 328.469 16.9062 328.062 16.9062C327.844 16.9062 327.63 16.9427 327.422 17.0156C327.224 17.0885 327.031 17.1719 326.844 17.2656C326.656 17.3594 326.479 17.4427 326.312 17.5156C326.146 17.5885 325.984 17.625 325.828 17.625C325.734 17.625 325.661 17.6146 325.609 17.5938C325.557 17.5625 325.5 17.5208 325.438 17.4688C325.312 17.8021 325.182 18.1979 325.047 18.6562C324.911 19.1146 324.781 19.5885 324.656 20.0781C324.542 20.5573 324.448 21.0312 324.375 21.5C324.302 21.9688 324.266 22.3906 324.266 22.7656C324.266 23.3594 324.349 23.8281 324.516 24.1719C324.682 24.5052 324.896 24.6719 325.156 24.6719C325.438 24.6719 325.745 24.5781 326.078 24.3906C326.411 24.1927 326.74 23.9479 327.062 23.6562C327.396 23.3542 327.714 23.0208 328.016 22.6562C328.318 22.2917 328.578 21.9323 328.797 21.5781C328.88 21.4531 328.964 21.3021 329.047 21.125C329.13 20.9479 329.203 20.7552 329.266 20.5469C329.328 20.3385 329.38 20.125 329.422 19.9062C329.464 19.6875 329.484 19.4688 329.484 19.25ZM358.812 22.7031C358.5 23.1615 358.115 23.6146 357.656 24.0625C357.208 24.5 356.714 24.8906 356.172 25.2344C355.63 25.5781 355.052 25.8542 354.438 26.0625C353.823 26.2812 353.198 26.3906 352.562 26.3906C352.052 26.3906 351.557 26.2604 351.078 26C350.599 25.7396 350.172 25.3594 349.797 24.8594C349.432 24.3594 349.135 23.7448 348.906 23.0156C348.688 22.2865 348.578 21.4531 348.578 20.5156C348.578 19.9635 348.609 19.3646 348.672 18.7188C348.734 18.0625 348.818 17.401 348.922 16.7344C349.026 16.0573 349.135 15.3958 349.25 14.75C349.375 14.1042 349.5 13.5156 349.625 12.9844C349.781 12.2865 349.995 11.5781 350.266 10.8594C350.536 10.1406 350.839 9.44271 351.172 8.76562C351.505 8.07812 351.865 7.43229 352.25 6.82812C352.635 6.21354 353.026 5.67188 353.422 5.20312C353.995 4.51562 354.672 3.96875 355.453 3.5625C356.245 3.15625 357.156 2.95312 358.188 2.95312C358.667 2.95312 359.104 3.04688 359.5 3.23438C359.896 3.42188 360.234 3.66667 360.516 3.96875C360.797 4.26042 361.016 4.59375 361.172 4.96875C361.328 5.33333 361.406 5.69792 361.406 6.0625C361.406 6.47917 361.312 6.95312 361.125 7.48438C360.948 8.01562 360.693 8.56771 360.359 9.14062C360.036 9.71354 359.646 10.2969 359.188 10.8906C358.74 11.474 358.25 12.0312 357.719 12.5625H357.844C358.26 12.5625 358.651 12.6615 359.016 12.8594C359.38 13.0469 359.698 13.3229 359.969 13.6875C360.24 14.0521 360.453 14.5052 360.609 15.0469C360.766 15.5781 360.844 16.1875 360.844 16.875C360.844 17.7083 360.693 18.6094 360.391 19.5781C360.089 20.5365 359.562 21.5781 358.812 22.7031ZM357.422 16.9375C357.422 16.4479 357.365 16.0417 357.25 15.7188C357.135 15.3854 356.995 15.1198 356.828 14.9219C356.672 14.7135 356.505 14.5677 356.328 14.4844C356.161 14.401 356.026 14.3594 355.922 14.3594C355.922 14.3594 355.88 14.3854 355.797 14.4375C355.724 14.4896 355.63 14.5625 355.516 14.6562C355.401 14.7396 355.271 14.8385 355.125 14.9531C354.99 15.0573 354.849 15.1667 354.703 15.2812C354.516 15.4375 354.307 15.5885 354.078 15.7344C353.859 15.8802 353.646 16.0312 353.438 16.1875C353.229 16.3438 353.031 16.5052 352.844 16.6719C352.667 16.8385 352.521 17.0208 352.406 17.2188C352.135 17.6771 351.964 18.1823 351.891 18.7344C351.818 19.2865 351.781 19.9062 351.781 20.5938C351.781 21.1354 351.818 21.6042 351.891 22C351.964 22.3854 352.052 22.6979 352.156 22.9375C352.26 23.1771 352.365 23.3542 352.469 23.4688C352.583 23.5833 352.677 23.6406 352.75 23.6406C353.146 23.6406 353.531 23.5469 353.906 23.3594C354.292 23.1615 354.656 22.901 355 22.5781C355.354 22.2448 355.677 21.8594 355.969 21.4219C356.26 20.9844 356.516 20.5208 356.734 20.0312C356.953 19.5312 357.12 19.0156 357.234 18.4844C357.359 17.9531 357.422 17.4375 357.422 16.9375ZM358.328 6.42188C358.328 6.34896 358.307 6.27083 358.266 6.1875C358.234 6.09375 358.188 6.01042 358.125 5.9375C358.062 5.86458 357.99 5.80729 357.906 5.76562C357.833 5.71354 357.755 5.6875 357.672 5.6875C357.245 5.6875 356.792 5.91667 356.312 6.375C355.844 6.82292 355.38 7.42188 354.922 8.17188C354.474 8.92188 354.052 9.78125 353.656 10.75C353.271 11.7188 352.948 12.7135 352.688 13.7344C353.719 12.9219 354.594 12.1458 355.312 11.4062C356.031 10.6667 356.615 9.98438 357.062 9.35938C357.51 8.72396 357.833 8.15625 358.031 7.65625C358.229 7.15625 358.328 6.74479 358.328 6.42188Z" fill="#4E352B"/>
</g>
<defs>
<clipPath id="clip0_2029_22">
<rect width="363" height="35" fill="white"/>
</clipPath>
</defs>
</svg>
