<svg width="27" height="30" viewBox="0 0 27 30" fill="none" xmlns="http://www.w3.org/2000/svg">
<g clip-path="url(#clip0_129_307)">
<path d="M13.8629 5C14.5304 5.00375 16.2004 5.02 17.9754 5.09125L18.6054 5.11875C20.3916 5.2025 22.1766 5.3475 23.0629 5.59375C24.2441 5.92625 25.1716 6.89375 25.4854 8.12125C25.9854 10.0712 26.0479 13.8738 26.0554 14.795L26.0566 14.985V15.2025C26.0479 16.1237 25.9854 19.9275 25.4854 21.8762C25.1679 23.1075 24.2391 24.0763 23.0629 24.4038C22.1766 24.65 20.3916 24.795 18.6054 24.8787L17.9754 24.9075C16.2004 24.9775 14.5304 24.995 13.8629 24.9975L13.5691 24.9988H13.2504C11.8379 24.99 5.93036 24.9263 4.05036 24.4038C2.87036 24.0713 1.94161 23.1038 1.62786 21.8762C1.12786 19.9262 1.06536 16.1237 1.05786 15.2025V14.795C1.06536 13.8738 1.12786 10.07 1.62786 8.12125C1.94536 6.89 2.87411 5.92125 4.05161 5.595C5.93036 5.07125 11.8391 5.0075 13.2516 5H13.8629ZM11.0566 10.625V19.375L18.5566 15L11.0566 10.625Z" fill="#FBFAF8"/>
</g>
<defs>
<clipPath id="clip0_129_307">
<rect width="26" height="30" fill="white" transform="translate(0.307861)"/>
</clipPath>
</defs>
</svg>
